<svg xmlns="http://www.w3.org/2000/svg" xmlns:xlink="http://www.w3.org/1999/xlink" width="180" zoomAndPan="magnify" viewBox="0 0 135 30.000001" height="40" preserveAspectRatio="xMidYMid meet" version="1.0"><defs><g/></defs><g fill="#ffffff" fill-opacity="1"><g transform="translate(7.492661, 19.070998)"><g><path d="M 5.875 -11.6875 C 6.21875 -11.664062 6.507812 -11.535156 6.75 -11.296875 C 7 -11.066406 7.128906 -10.78125 7.140625 -10.4375 L 7.140625 -5.578125 C 7.128906 -4.660156 7.003906 -3.800781 6.765625 -3 C 6.503906 -2.1875 6.082031 -1.5 5.5 -0.9375 C 4.914062 -0.382812 4.175781 -0.0820312 3.28125 -0.03125 L 2.0625 -0.03125 C 1.707031 -0.0507812 1.410156 -0.175781 1.171875 -0.40625 C 0.941406 -0.644531 0.820312 -0.9375 0.8125 -1.28125 C 0.8125 -1.644531 0.925781 -1.953125 1.15625 -2.203125 C 1.394531 -2.460938 1.695312 -2.597656 2.0625 -2.609375 L 2.625 -2.609375 C 3.113281 -2.640625 3.519531 -2.828125 3.84375 -3.171875 C 4.164062 -3.515625 4.367188 -3.90625 4.453125 -4.34375 C 4.535156 -4.789062 4.566406 -5.273438 4.546875 -5.796875 L 4.546875 -10.4375 C 4.566406 -10.789062 4.703125 -11.085938 4.953125 -11.328125 C 5.210938 -11.566406 5.519531 -11.6875 5.875 -11.6875 Z M 10.5625 -11.78125 C 10.5625 -12.363281 10.769531 -12.863281 11.1875 -13.28125 C 11.601562 -13.695312 12.113281 -13.90625 12.71875 -13.90625 C 13.300781 -13.90625 13.800781 -13.695312 14.21875 -13.28125 C 14.632812 -12.863281 14.84375 -12.363281 14.84375 -11.78125 C 14.84375 -11.175781 14.632812 -10.664062 14.21875 -10.25 C 13.800781 -9.832031 13.300781 -9.625 12.71875 -9.625 C 12.457031 -9.625 12.21875 -9.660156 12 -9.734375 L 12 -5.796875 C 11.988281 -5.273438 12.023438 -4.789062 12.109375 -4.34375 C 12.191406 -3.90625 12.394531 -3.515625 12.71875 -3.171875 C 13.039062 -2.828125 13.441406 -2.640625 13.921875 -2.609375 L 14.5 -2.609375 C 14.863281 -2.597656 15.160156 -2.460938 15.390625 -2.203125 C 15.628906 -1.953125 15.75 -1.644531 15.75 -1.28125 C 15.738281 -0.9375 15.613281 -0.644531 15.375 -0.40625 C 15.132812 -0.175781 14.84375 -0.0507812 14.5 -0.03125 L 13.28125 -0.03125 C 12.382812 -0.0820312 11.644531 -0.382812 11.0625 -0.9375 C 10.476562 -1.5 10.054688 -2.1875 9.796875 -3 C 9.554688 -3.800781 9.425781 -4.660156 9.40625 -5.578125 L 9.40625 -10.4375 C 9.425781 -10.78125 9.554688 -11.070312 9.796875 -11.3125 C 10.015625 -11.519531 10.269531 -11.644531 10.5625 -11.6875 C 10.5625 -11.707031 10.5625 -11.738281 10.5625 -11.78125 Z M 11.609375 -11.78125 C 11.609375 -11.46875 11.710938 -11.203125 11.921875 -10.984375 C 12.140625 -10.765625 12.40625 -10.65625 12.71875 -10.65625 C 13.007812 -10.65625 13.265625 -10.765625 13.484375 -10.984375 C 13.703125 -11.203125 13.8125 -11.46875 13.8125 -11.78125 C 13.8125 -12.070312 13.703125 -12.328125 13.484375 -12.546875 C 13.265625 -12.765625 13.007812 -12.875 12.71875 -12.875 C 12.40625 -12.875 12.140625 -12.765625 11.921875 -12.546875 C 11.710938 -12.328125 11.609375 -12.070312 11.609375 -11.78125 Z M 11.609375 -11.78125 "/></g></g><g transform="translate(24.148983, 19.070998)"><g><path d="M 1.15625 -10.078125 C 1.15625 -10.441406 1.28125 -10.75 1.53125 -11 C 1.78125 -11.25 2.082031 -11.375 2.4375 -11.375 L 7.390625 -11.375 C 7.753906 -11.375 8.0625 -11.25 8.3125 -11 C 8.5625 -10.75 8.6875 -10.441406 8.6875 -10.078125 C 8.6875 -9.722656 8.5625 -9.421875 8.3125 -9.171875 C 8.0625 -8.921875 7.753906 -8.796875 7.390625 -8.796875 L 2.4375 -8.796875 C 2.082031 -8.796875 1.78125 -8.925781 1.53125 -9.1875 C 1.28125 -9.425781 1.15625 -9.722656 1.15625 -10.078125 Z M 13.984375 -9.984375 L 12.21875 -4.53125 C 11.707031 -3.070312 11.066406 -1.96875 10.296875 -1.21875 C 9.523438 -0.476562 8.6875 -0.0820312 7.78125 -0.03125 L 4.171875 -0.03125 C 3.828125 -0.0507812 3.535156 -0.175781 3.296875 -0.40625 C 3.054688 -0.644531 2.929688 -0.9375 2.921875 -1.28125 C 2.921875 -1.644531 3.035156 -1.953125 3.265625 -2.203125 C 3.503906 -2.460938 3.804688 -2.597656 4.171875 -2.609375 L 7.125 -2.609375 C 7.613281 -2.640625 8.070312 -2.828125 8.5 -3.171875 C 8.925781 -3.515625 9.25 -3.90625 9.46875 -4.34375 C 9.6875 -4.789062 9.875 -5.273438 10.03125 -5.796875 L 11.609375 -10.828125 C 11.691406 -11.097656 11.816406 -11.316406 11.984375 -11.484375 C 12.160156 -11.660156 12.429688 -11.75 12.796875 -11.75 C 13.140625 -11.75 13.4375 -11.617188 13.6875 -11.359375 C 13.9375 -11.109375 14.0625 -10.804688 14.0625 -10.453125 C 14.0625 -10.285156 14.035156 -10.128906 13.984375 -9.984375 Z M 13.984375 -9.984375 "/></g></g><g transform="translate(39.133909, 19.070998)"><g><path d="M 1.15625 -10.078125 C 1.15625 -10.441406 1.28125 -10.75 1.53125 -11 C 1.78125 -11.25 2.082031 -11.375 2.4375 -11.375 L 11.125 -11.375 C 10.90625 -11.71875 10.796875 -12.109375 10.796875 -12.546875 C 10.796875 -13.128906 11.003906 -13.628906 11.421875 -14.046875 C 11.835938 -14.460938 12.347656 -14.671875 12.953125 -14.671875 C 13.535156 -14.671875 14.035156 -14.460938 14.453125 -14.046875 C 14.867188 -13.628906 15.078125 -13.128906 15.078125 -12.546875 C 15.078125 -11.941406 14.875 -11.4375 14.46875 -11.03125 C 14.34375 -10.894531 14.210938 -10.785156 14.078125 -10.703125 C 14.179688 -10.503906 14.226562 -10.296875 14.21875 -10.078125 L 13.59375 -5.578125 C 13.46875 -4.660156 13.234375 -3.800781 12.890625 -3 C 12.515625 -2.1875 12 -1.5 11.34375 -0.9375 C 10.6875 -0.382812 9.910156 -0.0820312 9.015625 -0.03125 L 5.390625 -0.03125 C 5.046875 -0.0507812 4.753906 -0.175781 4.515625 -0.40625 C 4.285156 -0.644531 4.164062 -0.9375 4.15625 -1.28125 C 4.15625 -1.644531 4.269531 -1.953125 4.5 -2.203125 C 4.738281 -2.460938 5.035156 -2.597656 5.390625 -2.609375 L 8.703125 -2.609375 C 9.191406 -2.640625 9.617188 -2.828125 9.984375 -3.171875 C 10.347656 -3.515625 10.597656 -3.90625 10.734375 -4.34375 C 10.878906 -4.789062 10.984375 -5.273438 11.046875 -5.796875 L 11.390625 -8.3125 C 11.429688 -8.625 11.320312 -8.785156 11.0625 -8.796875 L 2.4375 -8.796875 C 2.082031 -8.796875 1.78125 -8.925781 1.53125 -9.1875 C 1.28125 -9.425781 1.15625 -9.722656 1.15625 -10.078125 Z M 11.828125 -12.546875 C 11.828125 -12.234375 11.9375 -11.96875 12.15625 -11.75 C 12.375 -11.539062 12.640625 -11.4375 12.953125 -11.4375 C 13.242188 -11.4375 13.5 -11.539062 13.71875 -11.75 C 13.9375 -11.96875 14.046875 -12.234375 14.046875 -12.546875 C 14.046875 -12.835938 13.9375 -13.09375 13.71875 -13.3125 C 13.5 -13.53125 13.242188 -13.640625 12.953125 -13.640625 C 12.640625 -13.640625 12.375 -13.53125 12.15625 -13.3125 C 11.9375 -13.09375 11.828125 -12.835938 11.828125 -12.546875 Z M 11.828125 -12.546875 "/></g></g><g transform="translate(54.714391, 19.070998)"><g><path d="M 1.15625 -8.546875 C 1.15625 -8.910156 1.28125 -9.21875 1.53125 -9.46875 C 1.78125 -9.71875 2.082031 -9.84375 2.4375 -9.84375 L 6.1875 -9.84375 L 6.109375 -10.65625 C 6.097656 -11.019531 6.207031 -11.316406 6.4375 -11.546875 C 6.664062 -11.785156 6.957031 -11.90625 7.3125 -11.90625 C 7.664062 -11.894531 7.972656 -11.769531 8.234375 -11.53125 C 8.503906 -11.300781 8.660156 -11.007812 8.703125 -10.65625 L 8.78125 -9.84375 L 13.234375 -9.84375 C 13.597656 -9.84375 13.90625 -9.71875 14.15625 -9.46875 C 14.394531 -9.21875 14.515625 -8.910156 14.515625 -8.546875 C 14.515625 -8.191406 14.390625 -7.890625 14.140625 -7.640625 C 13.898438 -7.390625 13.597656 -7.265625 13.234375 -7.265625 L 9.046875 -7.265625 L 9.234375 -5.265625 L 13.234375 -5.265625 C 13.597656 -5.265625 13.90625 -5.144531 14.15625 -4.90625 C 14.394531 -4.644531 14.515625 -4.335938 14.515625 -3.984375 C 14.515625 -3.617188 14.390625 -3.3125 14.140625 -3.0625 C 13.898438 -2.8125 13.597656 -2.6875 13.234375 -2.6875 L 9.484375 -2.6875 L 9.65625 -1.015625 C 9.644531 -0.242188 9.265625 0.171875 8.515625 0.234375 C 8.148438 0.234375 7.820312 0.113281 7.53125 -0.125 C 7.25 -0.363281 7.09375 -0.660156 7.0625 -1.015625 L 6.890625 -2.6875 L 2.4375 -2.6875 C 2.082031 -2.6875 1.78125 -2.816406 1.53125 -3.078125 C 1.28125 -3.316406 1.15625 -3.617188 1.15625 -3.984375 C 1.15625 -4.335938 1.28125 -4.640625 1.53125 -4.890625 C 1.78125 -5.140625 2.082031 -5.265625 2.4375 -5.265625 L 6.640625 -5.265625 L 6.453125 -7.265625 L 2.4375 -7.265625 C 2.082031 -7.265625 1.78125 -7.390625 1.53125 -7.640625 C 1.28125 -7.890625 1.15625 -8.191406 1.15625 -8.546875 Z M 1.15625 -8.546875 "/></g></g><g transform="translate(70.294872, 19.070998)"><g><path d="M 1.15625 -10.078125 C 1.15625 -10.441406 1.28125 -10.75 1.53125 -11 C 1.78125 -11.25 2.082031 -11.375 2.4375 -11.375 L 7.390625 -11.375 C 7.753906 -11.375 8.0625 -11.25 8.3125 -11 C 8.5625 -10.75 8.6875 -10.441406 8.6875 -10.078125 C 8.6875 -9.722656 8.5625 -9.421875 8.3125 -9.171875 C 8.0625 -8.921875 7.753906 -8.796875 7.390625 -8.796875 L 2.4375 -8.796875 C 2.082031 -8.796875 1.78125 -8.925781 1.53125 -9.1875 C 1.28125 -9.425781 1.15625 -9.722656 1.15625 -10.078125 Z M 13.984375 -9.984375 L 12.21875 -4.53125 C 11.707031 -3.070312 11.066406 -1.96875 10.296875 -1.21875 C 9.523438 -0.476562 8.6875 -0.0820312 7.78125 -0.03125 L 4.171875 -0.03125 C 3.828125 -0.0507812 3.535156 -0.175781 3.296875 -0.40625 C 3.054688 -0.644531 2.929688 -0.9375 2.921875 -1.28125 C 2.921875 -1.644531 3.035156 -1.953125 3.265625 -2.203125 C 3.503906 -2.460938 3.804688 -2.597656 4.171875 -2.609375 L 7.125 -2.609375 C 7.613281 -2.640625 8.070312 -2.828125 8.5 -3.171875 C 8.925781 -3.515625 9.25 -3.90625 9.46875 -4.34375 C 9.6875 -4.789062 9.875 -5.273438 10.03125 -5.796875 L 11.609375 -10.828125 C 11.691406 -11.097656 11.816406 -11.316406 11.984375 -11.484375 C 12.160156 -11.660156 12.429688 -11.75 12.796875 -11.75 C 13.140625 -11.75 13.4375 -11.617188 13.6875 -11.359375 C 13.9375 -11.109375 14.0625 -10.804688 14.0625 -10.453125 C 14.0625 -10.285156 14.035156 -10.128906 13.984375 -9.984375 Z M 13.984375 -9.984375 "/></g></g><g transform="translate(85.279798, 19.070998)"><g><path d="M 1.15625 -9.09375 C 1.15625 -9.445312 1.28125 -9.75 1.53125 -10 C 1.78125 -10.25 2.082031 -10.375 2.4375 -10.375 L 5.46875 -10.375 L 5.515625 -10.65625 C 5.578125 -11.019531 5.75 -11.316406 6.03125 -11.546875 C 6.3125 -11.785156 6.632812 -11.90625 7 -11.90625 C 7.34375 -11.894531 7.617188 -11.769531 7.828125 -11.53125 C 8.035156 -11.300781 8.128906 -11.007812 8.109375 -10.65625 L 8.0625 -10.375 L 13.078125 -10.375 C 13.441406 -10.375 13.75 -10.253906 14 -10.015625 C 14.269531 -9.734375 14.394531 -9.425781 14.375 -9.09375 L 13.953125 -5.578125 C 13.816406 -4.660156 13.578125 -3.800781 13.234375 -3 C 12.859375 -2.1875 12.347656 -1.484375 11.703125 -0.890625 C 11.054688 -0.304688 10.390625 -0.0195312 9.703125 -0.03125 L 8.515625 -0.03125 C 8.160156 -0.0507812 7.863281 -0.175781 7.625 -0.40625 C 7.394531 -0.644531 7.273438 -0.9375 7.265625 -1.28125 C 7.265625 -1.644531 7.378906 -1.953125 7.609375 -2.203125 C 7.847656 -2.460938 8.148438 -2.597656 8.515625 -2.609375 L 9.390625 -2.609375 C 9.773438 -2.617188 10.117188 -2.800781 10.421875 -3.15625 C 10.722656 -3.507812 10.941406 -3.90625 11.078125 -4.34375 C 11.222656 -4.789062 11.328125 -5.273438 11.390625 -5.796875 L 11.546875 -7.3125 C 11.585938 -7.625 11.476562 -7.785156 11.21875 -7.796875 L 7.703125 -7.796875 L 7.375 -5.578125 C 7.25 -4.660156 7.015625 -3.800781 6.671875 -3 C 6.296875 -2.1875 5.773438 -1.5 5.109375 -0.9375 C 4.453125 -0.382812 3.675781 -0.0820312 2.78125 -0.03125 L 1.9375 -0.03125 C 1.59375 -0.0507812 1.300781 -0.175781 1.0625 -0.40625 C 0.820312 -0.644531 0.695312 -0.9375 0.6875 -1.28125 C 0.6875 -1.644531 0.804688 -1.953125 1.046875 -2.203125 C 1.285156 -2.460938 1.582031 -2.597656 1.9375 -2.609375 L 2.484375 -2.609375 C 2.960938 -2.640625 3.382812 -2.828125 3.75 -3.171875 C 4.113281 -3.515625 4.363281 -3.90625 4.5 -4.34375 C 4.644531 -4.789062 4.753906 -5.273438 4.828125 -5.796875 L 5.109375 -7.796875 L 2.4375 -7.796875 C 2.082031 -7.796875 1.78125 -7.925781 1.53125 -8.1875 C 1.28125 -8.425781 1.15625 -8.726562 1.15625 -9.09375 Z M 1.15625 -9.09375 "/></g></g><g transform="translate(100.937125, 19.070998)"><g><path d="M 1.15625 -10.078125 C 1.15625 -10.441406 1.28125 -10.75 1.53125 -11 C 1.78125 -11.25 2.082031 -11.375 2.4375 -11.375 L 12.921875 -11.375 C 13.285156 -11.375 13.59375 -11.25 13.84375 -11 C 14.113281 -10.71875 14.238281 -10.410156 14.21875 -10.078125 L 13.59375 -5.578125 C 13.46875 -4.660156 13.234375 -3.800781 12.890625 -3 C 12.515625 -2.1875 12 -1.5 11.34375 -0.9375 C 10.6875 -0.382812 9.910156 -0.0820312 9.015625 -0.03125 L 5.390625 -0.03125 C 5.046875 -0.0507812 4.753906 -0.175781 4.515625 -0.40625 C 4.285156 -0.644531 4.164062 -0.9375 4.15625 -1.28125 C 4.15625 -1.644531 4.269531 -1.953125 4.5 -2.203125 C 4.738281 -2.460938 5.035156 -2.597656 5.390625 -2.609375 L 8.703125 -2.609375 C 9.191406 -2.640625 9.617188 -2.828125 9.984375 -3.171875 C 10.347656 -3.515625 10.597656 -3.90625 10.734375 -4.34375 C 10.878906 -4.789062 10.984375 -5.273438 11.046875 -5.796875 L 11.390625 -8.3125 C 11.429688 -8.625 11.320312 -8.785156 11.0625 -8.796875 L 2.4375 -8.796875 C 2.082031 -8.796875 1.78125 -8.925781 1.53125 -9.1875 C 1.28125 -9.425781 1.15625 -9.722656 1.15625 -10.078125 Z M 1.15625 -10.078125 "/></g></g><g transform="translate(116.536817, 19.070998)"><g><path d="M 1.0625 -1.0625 C 1.0625 -1.34375 1.160156 -1.582031 1.359375 -1.78125 C 1.554688 -1.976562 1.800781 -2.078125 2.09375 -2.078125 L 5.03125 -2.078125 L 5.03125 -7.03125 L 2.09375 -7.03125 C 1.800781 -7.03125 1.554688 -7.132812 1.359375 -7.34375 C 1.160156 -7.53125 1.0625 -7.765625 1.0625 -8.046875 C 1.0625 -8.335938 1.160156 -8.582031 1.359375 -8.78125 C 1.554688 -8.988281 1.800781 -9.09375 2.09375 -9.09375 L 10.046875 -9.09375 C 10.335938 -9.09375 10.585938 -8.992188 10.796875 -8.796875 C 10.984375 -8.585938 11.078125 -8.335938 11.078125 -8.046875 C 11.078125 -7.765625 10.976562 -7.523438 10.78125 -7.328125 C 10.582031 -7.128906 10.335938 -7.03125 10.046875 -7.03125 L 7.109375 -7.03125 L 7.109375 -2.078125 L 10.046875 -2.078125 C 10.335938 -2.078125 10.585938 -1.976562 10.796875 -1.78125 C 10.984375 -1.582031 11.078125 -1.34375 11.078125 -1.0625 C 11.078125 -0.757812 10.976562 -0.507812 10.78125 -0.3125 C 10.582031 -0.113281 10.335938 -0.015625 10.046875 -0.015625 L 2.09375 -0.015625 C 1.800781 -0.015625 1.554688 -0.117188 1.359375 -0.328125 C 1.160156 -0.515625 1.0625 -0.757812 1.0625 -1.0625 Z M 1.0625 -1.0625 "/></g></g></g><g fill="#ffffff" fill-opacity="1"><g transform="translate(35.295797, 27.944123)"><g><path d="M 3.109375 -3.078125 L 3.421875 -2.0625 C 3.492188 -1.78125 3.472656 -1.507812 3.359375 -1.25 L 3.1875 -0.96875 L 2.828125 -1.1875 L 2.984375 -1.46875 C 3.046875 -1.625 3.054688 -1.773438 3.015625 -1.921875 L 2.6875 -2.9375 Z M 1.0625 -0.390625 C 1.144531 -0.597656 1.1875 -0.816406 1.1875 -1.046875 L 1.1875 -2.203125 L 0.953125 -2.203125 L 0.953125 -2.640625 L 1.1875 -2.640625 L 1.1875 -3.359375 L 1.625 -3.359375 L 1.625 -2.640625 L 1.921875 -2.640625 C 2.285156 -2.597656 2.484375 -2.394531 2.515625 -2.03125 L 2.515625 -0.34375 C 2.492188 0.0078125 2.316406 0.210938 1.984375 0.265625 L 1.65625 0.265625 L 1.65625 -0.171875 L 1.984375 -0.171875 C 2.054688 -0.191406 2.09375 -0.25 2.09375 -0.34375 L 2.09375 -2.03125 C 2.082031 -2.132812 2.023438 -2.191406 1.921875 -2.203125 L 1.625 -2.203125 L 1.625 -1.046875 C 1.613281 -0.753906 1.5625 -0.476562 1.46875 -0.21875 L 1.265625 0.265625 L 0.875 0.09375 Z M 1.0625 -0.390625 "/></g></g></g><g fill="#ffffff" fill-opacity="1"><g transform="translate(39.666394, 27.944123)"><g><path d="M 1.984375 -2.75 L 1.984375 -3.171875 L 3.453125 -3.171875 L 3.453125 -2.75 L 3.078125 -2.75 L 3.078125 -2.34375 L 3.453125 -2.34375 L 3.453125 -1.90625 L 3.078125 -1.90625 L 3.078125 -1.15625 L 3.4375 -1.15625 L 3.4375 -0.734375 L 3.078125 -0.734375 L 3.078125 -0.34375 C 3.054688 0 2.875 0.195312 2.53125 0.25 C 2.175781 0.207031 1.988281 0.0078125 1.96875 -0.34375 L 1.96875 -0.5625 C 2 -0.925781 2.195312 -1.125 2.5625 -1.15625 L 2.65625 -1.15625 L 2.65625 -1.90625 L 1.984375 -1.90625 L 1.984375 -2.34375 L 2.65625 -2.34375 L 2.65625 -2.75 Z M 2.65625 -0.34375 L 2.65625 -0.734375 L 2.5625 -0.734375 C 2.457031 -0.722656 2.398438 -0.664062 2.390625 -0.5625 L 2.390625 -0.34375 C 2.390625 -0.25 2.4375 -0.191406 2.53125 -0.171875 C 2.613281 -0.203125 2.65625 -0.257812 2.65625 -0.34375 Z M 1.515625 -0.265625 L 1.59375 0.09375 L 1.1875 0.203125 L 1.09375 -0.15625 C 1.03125 -0.40625 1 -0.664062 1 -0.9375 L 1 -3.34375 L 1.421875 -3.34375 L 1.421875 -0.9375 C 1.421875 -0.707031 1.453125 -0.484375 1.515625 -0.265625 Z M 2.875 -3.328125 L 2.875 -3.6875 L 3.234375 -3.6875 L 3.234375 -3.328125 Z M 3.40625 -3.328125 L 3.40625 -3.6875 L 3.765625 -3.6875 L 3.765625 -3.328125 Z M 3.40625 -3.328125 "/></g></g></g><g fill="#ffffff" fill-opacity="1"><g transform="translate(44.036991, 27.944123)"><g><path d="M 2.46875 -0.3125 C 2.601562 -0.382812 2.675781 -0.492188 2.6875 -0.640625 L 2.6875 -1.265625 C 2.695312 -1.304688 2.6875 -1.335938 2.65625 -1.359375 C 2.625 -1.390625 2.59375 -1.398438 2.5625 -1.390625 L 2.03125 -1.3125 C 1.863281 -1.289062 1.71875 -1.335938 1.59375 -1.453125 C 1.476562 -1.578125 1.429688 -1.722656 1.453125 -1.890625 L 1.53125 -2.609375 L 1.140625 -2.609375 L 1.140625 -3.03125 L 1.578125 -3.03125 L 1.625 -3.375 L 2.046875 -3.328125 L 2.015625 -3.03125 L 3.0625 -3.03125 L 3.0625 -2.609375 L 1.96875 -2.609375 L 1.875 -1.84375 C 1.875 -1.8125 1.882812 -1.785156 1.90625 -1.765625 C 1.925781 -1.742188 1.953125 -1.734375 1.984375 -1.734375 L 2.5 -1.8125 C 2.664062 -1.832031 2.8125 -1.789062 2.9375 -1.6875 C 3.0625 -1.570312 3.125 -1.429688 3.125 -1.265625 L 3.125 -0.640625 C 3.113281 -0.484375 3.066406 -0.34375 2.984375 -0.21875 C 2.898438 -0.0820312 2.785156 0.015625 2.640625 0.078125 L 1.96875 0.359375 L 1.8125 -0.03125 Z M 2.46875 -0.3125 "/></g></g></g><g fill="#ffffff" fill-opacity="1"><g transform="translate(48.407589, 27.944123)"><g><path d="M 1.6875 0.203125 L 1.46875 -1.90625 L 1.25 -1.90625 L 1.25 -2.28125 L 1.421875 -2.28125 L 1.390625 -2.53125 L 1.78125 -2.5625 L 1.8125 -2.28125 L 2.1875 -2.28125 L 2.1875 -2.53125 L 2.578125 -2.53125 L 2.578125 -2.28125 L 2.640625 -2.28125 C 2.929688 -2.257812 3.09375 -2.101562 3.125 -1.8125 L 3.125 -1.71875 C 3.125 -1.601562 3.101562 -1.488281 3.0625 -1.375 C 3.019531 -1.269531 2.96875 -1.171875 2.90625 -1.078125 L 2.625 -0.75 L 2.328125 -1 L 2.609375 -1.328125 C 2.679688 -1.453125 2.722656 -1.582031 2.734375 -1.71875 L 2.734375 -1.8125 C 2.734375 -1.875 2.703125 -1.90625 2.640625 -1.90625 L 2.578125 -1.90625 L 2.578125 -1.296875 L 2.1875 -1.296875 L 2.1875 -1.90625 L 1.859375 -1.90625 L 2.078125 0.171875 Z M 1.6875 0.203125 "/></g></g></g><g fill="#ffffff" fill-opacity="1"><g transform="translate(52.778186, 27.944123)"><g><path d="M 2.609375 -0.40625 C 2.703125 -0.601562 2.753906 -0.804688 2.765625 -1.015625 L 2.765625 -2.5625 C 2.753906 -2.664062 2.695312 -2.722656 2.59375 -2.734375 L 2.40625 -2.734375 L 2.40625 -1.703125 C 2.394531 -1.421875 2.351562 -1.144531 2.28125 -0.875 L 2.078125 -0.265625 C 2.035156 -0.148438 1.976562 -0.0390625 1.90625 0.0625 C 1.820312 0.175781 1.707031 0.238281 1.5625 0.25 C 1.40625 0.238281 1.300781 0.160156 1.25 0.015625 C 1.195312 -0.0976562 1.171875 -0.21875 1.171875 -0.34375 L 1.171875 -2.5625 C 1.203125 -2.925781 1.398438 -3.125 1.765625 -3.15625 L 2.59375 -3.15625 C 2.957031 -3.125 3.15625 -2.925781 3.1875 -2.5625 L 3.1875 -1.015625 C 3.175781 -0.722656 3.109375 -0.453125 2.984375 -0.203125 L 2.71875 0.265625 L 2.359375 0.046875 Z M 1.984375 -1.703125 L 1.984375 -2.734375 L 1.765625 -2.734375 C 1.660156 -2.722656 1.601562 -2.664062 1.59375 -2.5625 L 1.59375 -0.34375 C 1.59375 -0.3125 1.597656 -0.285156 1.609375 -0.265625 C 1.628906 -0.304688 1.648438 -0.347656 1.671875 -0.390625 L 1.875 -1.015625 C 1.9375 -1.234375 1.972656 -1.460938 1.984375 -1.703125 Z M 1.984375 -1.703125 "/></g></g></g><g fill="#ffffff" fill-opacity="1"><g transform="translate(57.148783, 27.944123)"><g><path d="M 2.359375 -1.21875 L 1.578125 0.234375 L 1.203125 0.046875 L 2.453125 -2.3125 C 2.535156 -2.476562 2.582031 -2.648438 2.59375 -2.828125 C 2.570312 -2.898438 2.53125 -2.9375 2.46875 -2.9375 L 1.3125 -2.9375 L 1.3125 -3.359375 L 2.46875 -3.359375 C 2.800781 -3.335938 2.984375 -3.160156 3.015625 -2.828125 C 3.003906 -2.578125 2.941406 -2.34375 2.828125 -2.125 L 2.609375 -1.703125 L 3.34375 0.0625 L 2.953125 0.21875 Z M 2.359375 -1.21875 "/></g></g></g><g fill="#ffffff" fill-opacity="1"><g transform="translate(61.51938, 27.944123)"><g><path d="M 2.0625 -1.78125 L 1.375 -1.09375 L 1.078125 -1.390625 L 2.28125 -2.609375 C 2.382812 -2.734375 2.441406 -2.875 2.453125 -3.03125 L 2.453125 -3.359375 L 2.890625 -3.359375 L 2.890625 -3.03125 C 2.867188 -2.757812 2.765625 -2.519531 2.578125 -2.3125 L 2.359375 -2.09375 L 2.40625 -2.046875 C 2.476562 -1.953125 2.535156 -1.847656 2.578125 -1.734375 C 2.617188 -1.617188 2.640625 -1.5 2.640625 -1.375 L 2.640625 0.265625 L 2.203125 0.265625 L 2.203125 -1.375 C 2.203125 -1.507812 2.164062 -1.632812 2.09375 -1.75 Z M 2.0625 -1.78125 "/></g></g></g><g fill="#ffffff" fill-opacity="1"><g transform="translate(65.889978, 27.944123)"><g><path d="M 0.90625 -1.3125 L 0.90625 -1.828125 L 3.46875 -1.828125 L 3.46875 -1.3125 Z M 0.90625 -1.3125 "/></g></g></g><g fill="#ffffff" fill-opacity="1"><g transform="translate(70.260575, 27.944123)"><g><path d="M 3.25 -2.09375 C 3.238281 -1.820312 3.160156 -1.570312 3.015625 -1.34375 L 1.828125 0.265625 L 1.484375 0.015625 L 2.671875 -1.59375 C 2.765625 -1.75 2.816406 -1.914062 2.828125 -2.09375 L 2.828125 -3.34375 L 3.25 -3.34375 Z M 1.078125 -1.828125 L 1.078125 -3.203125 L 1.5 -3.203125 L 1.5 -1.828125 Z M 1.84375 -1.828125 L 1.84375 -3.203125 L 2.28125 -3.203125 L 2.28125 -1.828125 Z M 1.84375 -1.828125 "/></g></g></g><g fill="#ffffff" fill-opacity="1"><g transform="translate(74.631172, 27.944123)"><g><path d="M 3.140625 -1.21875 L 2.765625 -1.421875 L 2.875 -1.640625 C 2.863281 -1.640625 2.859375 -1.640625 2.859375 -1.640625 L 2.125 -1.640625 L 2.125 -2.0625 L 2.859375 -2.0625 C 3.035156 -2.070312 3.175781 -2.003906 3.28125 -1.859375 C 3.34375 -1.734375 3.34375 -1.609375 3.28125 -1.484375 Z M 2.4375 0.265625 C 2.082031 0.242188 1.882812 0.0625 1.84375 -0.28125 L 1.84375 -0.609375 L 2.265625 -0.609375 L 2.265625 -0.28125 C 2.296875 -0.195312 2.351562 -0.15625 2.4375 -0.15625 L 3.28125 -0.15625 L 3.28125 0.265625 Z M 1.15625 -0.828125 C 1.195312 -1.066406 1.21875 -1.304688 1.21875 -1.546875 L 1.21875 -2.578125 L 0.96875 -2.578125 L 0.96875 -3.015625 L 1.21875 -3.015625 L 1.21875 -3.34375 L 1.65625 -3.34375 L 1.65625 -3.015625 L 2.421875 -3.015625 L 2.421875 -2.578125 L 1.65625 -2.578125 L 1.65625 -1.546875 C 1.644531 -1.273438 1.617188 -1.007812 1.578125 -0.75 L 1.359375 0.234375 L 0.953125 0.140625 Z M 1.15625 -0.828125 "/></g></g></g><g fill="#ffffff" fill-opacity="1"><g transform="translate(79.001769, 27.944123)"><g><path d="M 2.3125 -2.90625 C 2.414062 -2.8125 2.488281 -2.695312 2.53125 -2.5625 L 3.375 0.078125 L 2.984375 0.21875 L 2.125 -2.4375 C 2.09375 -2.53125 2.035156 -2.597656 1.953125 -2.640625 C 1.867188 -2.597656 1.8125 -2.53125 1.78125 -2.4375 L 1.40625 -1.328125 L 1 -1.46875 L 1.375 -2.5625 C 1.414062 -2.695312 1.488281 -2.8125 1.59375 -2.90625 C 1.6875 -3.007812 1.804688 -3.066406 1.953125 -3.078125 C 2.097656 -3.066406 2.21875 -3.007812 2.3125 -2.90625 Z M 2.65625 -2.5 L 2.65625 -2.859375 L 3.015625 -2.859375 L 3.015625 -2.5 Z M 3.234375 -2.5 L 3.234375 -2.859375 L 3.59375 -2.859375 L 3.59375 -2.5 Z M 3.234375 -2.5 "/></g></g></g><g fill="#ffffff" fill-opacity="1"><g transform="translate(83.372367, 27.944123)"><g><path d="M 1.984375 -2.796875 L 1.984375 -3.21875 L 3.453125 -3.21875 L 3.453125 -2.796875 L 3.078125 -2.796875 L 3.078125 -2.375 L 3.453125 -2.375 L 3.453125 -1.953125 L 3.078125 -1.953125 L 3.078125 -1.15625 L 3.4375 -1.15625 L 3.4375 -0.734375 L 3.078125 -0.734375 L 3.078125 -0.34375 C 3.054688 0 2.875 0.195312 2.53125 0.25 C 2.175781 0.207031 1.988281 0.0078125 1.96875 -0.34375 L 1.96875 -0.5625 C 2 -0.925781 2.195312 -1.125 2.5625 -1.15625 L 2.65625 -1.15625 L 2.65625 -1.953125 L 1.984375 -1.953125 L 1.984375 -2.375 L 2.65625 -2.375 L 2.65625 -2.796875 Z M 2.65625 -0.34375 L 2.65625 -0.734375 L 2.5625 -0.734375 C 2.457031 -0.722656 2.398438 -0.664062 2.390625 -0.5625 L 2.390625 -0.34375 C 2.390625 -0.25 2.4375 -0.191406 2.53125 -0.171875 C 2.613281 -0.203125 2.65625 -0.257812 2.65625 -0.34375 Z M 1 -0.9375 L 1 -3.34375 L 1.421875 -3.34375 L 1.421875 -0.9375 C 1.421875 -0.707031 1.453125 -0.484375 1.515625 -0.265625 L 1.59375 0.09375 L 1.1875 0.203125 L 1.09375 -0.15625 C 1.03125 -0.40625 1 -0.664062 1 -0.9375 Z M 1 -0.9375 "/></g></g></g><g fill="#ffffff" fill-opacity="1"><g transform="translate(87.742964, 27.944123)"><g><path d="M 1.53125 -3.015625 L 1.640625 -3.421875 L 2.875 -3.078125 L 2.765625 -2.671875 Z M 2.671875 -1.953125 C 2.660156 -2.054688 2.601562 -2.113281 2.5 -2.125 L 1.40625 -2.125 L 1.40625 -2.5625 L 2.5 -2.5625 C 2.863281 -2.519531 3.066406 -2.316406 3.109375 -1.953125 L 3.109375 -1.5 C 3.097656 -1.351562 3.070312 -1.210938 3.03125 -1.078125 C 2.976562 -0.929688 2.914062 -0.800781 2.84375 -0.6875 L 2.109375 0.328125 L 1.765625 0.078125 L 2.484375 -0.9375 C 2.597656 -1.113281 2.660156 -1.300781 2.671875 -1.5 Z M 2.671875 -1.953125 "/></g></g></g><g fill="#ffffff" fill-opacity="1"><g transform="translate(92.113561, 27.944123)"><g><path d="M 3.28125 -1.859375 C 3.34375 -1.734375 3.34375 -1.609375 3.28125 -1.484375 L 3.140625 -1.21875 L 2.765625 -1.421875 L 2.875 -1.640625 C 2.863281 -1.640625 2.859375 -1.640625 2.859375 -1.640625 L 2.125 -1.640625 L 2.125 -2.0625 L 2.859375 -2.0625 C 3.035156 -2.070312 3.175781 -2.003906 3.28125 -1.859375 Z M 1.84375 -0.609375 L 2.265625 -0.609375 L 2.265625 -0.28125 C 2.296875 -0.195312 2.351562 -0.15625 2.4375 -0.15625 L 3.28125 -0.15625 L 3.28125 0.265625 L 2.4375 0.265625 C 2.082031 0.242188 1.882812 0.0625 1.84375 -0.28125 Z M 1.65625 -2.578125 L 1.65625 -1.546875 C 1.644531 -1.273438 1.617188 -1.007812 1.578125 -0.75 L 1.359375 0.234375 L 0.953125 0.140625 L 1.15625 -0.828125 C 1.195312 -1.066406 1.21875 -1.304688 1.21875 -1.546875 L 1.21875 -2.578125 L 0.96875 -2.578125 L 0.96875 -3.015625 L 1.21875 -3.015625 L 1.21875 -3.34375 L 1.65625 -3.34375 L 1.65625 -3.015625 L 2.421875 -3.015625 L 2.421875 -2.578125 Z M 2.65625 -3.015625 L 2.65625 -3.375 L 3.015625 -3.375 L 3.015625 -3.015625 Z M 3.1875 -3.015625 L 3.1875 -3.375 L 3.546875 -3.375 L 3.546875 -3.015625 Z M 3.1875 -3.015625 "/></g></g></g><g fill="#ffffff" fill-opacity="1"><g transform="translate(96.484158, 27.944123)"><g><path d="M 1.515625 0.265625 C 1.171875 0.222656 0.988281 0.0234375 0.96875 -0.328125 L 0.96875 -3.046875 L 1.40625 -3.046875 L 1.40625 -0.328125 C 1.394531 -0.242188 1.429688 -0.1875 1.515625 -0.15625 C 1.617188 -0.1875 1.691406 -0.257812 1.734375 -0.375 L 1.90625 -0.984375 L 2.3125 -0.859375 L 2.140625 -0.25 C 2.097656 -0.113281 2.019531 0.00390625 1.90625 0.109375 C 1.789062 0.210938 1.660156 0.265625 1.515625 0.265625 Z M 2.984375 -2.59375 L 3.296875 -1.8125 C 3.390625 -1.550781 3.441406 -1.28125 3.453125 -1 L 3.453125 -0.140625 L 3.015625 -0.140625 L 3.015625 -1 C 3.003906 -1.226562 2.960938 -1.445312 2.890625 -1.65625 L 2.59375 -2.453125 Z M 2.984375 -2.59375 "/></g></g></g></svg>