<svg xmlns="http://www.w3.org/2000/svg" xmlns:xlink="http://www.w3.org/1999/xlink" width="180" zoomAndPan="magnify" viewBox="0 0 135 30.000001" height="40" preserveAspectRatio="xMidYMid meet" version="1.0"><defs><g/><clipPath id="87198ca0ee"><path d="M 80 4 L 96 4 L 96 29.03125 L 80 29.03125 Z M 80 4 " clip-rule="nonzero"/></clipPath><clipPath id="2dd27c4f77"><path d="M 81 4 L 97 4 L 97 29.03125 L 81 29.03125 Z M 81 4 " clip-rule="nonzero"/></clipPath><clipPath id="ec85fa5784"><path d="M 81 4 L 97 4 L 97 29.03125 L 81 29.03125 Z M 81 4 " clip-rule="nonzero"/></clipPath></defs><g fill="#ffc1b2" fill-opacity="0.302"><g transform="translate(11.207966, 28.255991)"><g><path d="M 19.417969 -0.59375 L 19.0625 -0.878906 C 18.683594 -1.1875 18.351562 -1.566406 18.089844 -1.992188 L 15.144531 -6.695312 C 15.050781 -6.835938 15.003906 -7.003906 15.050781 -7.191406 C 15.097656 -7.359375 15.191406 -7.5 15.359375 -7.621094 C 15.953125 -8.046875 16.476562 -8.523438 16.902344 -9.066406 C 17.542969 -9.851562 18.042969 -10.753906 18.375 -11.75 C 18.707031 -12.746094 18.894531 -13.792969 18.894531 -14.882812 C 18.894531 -15.976562 18.707031 -17.042969 18.375 -18.042969 C 18.042969 -19.039062 17.542969 -19.941406 16.902344 -20.746094 C 16.140625 -21.648438 15.214844 -22.363281 14.171875 -22.859375 C 13.105469 -23.335938 11.941406 -23.597656 10.707031 -23.597656 L 3.203125 -23.597656 C 3.039062 -23.597656 2.917969 -23.523438 2.871094 -23.382812 C 2.800781 -23.238281 2.824219 -23.121094 2.945312 -23.003906 C 3.324219 -22.574219 3.535156 -22.078125 3.535156 -21.507812 L 3.535156 -2.042969 C 3.535156 -1.496094 3.347656 -1.019531 2.992188 -0.617188 C 2.847656 -0.476562 2.824219 -0.355469 2.894531 -0.214844 C 2.945312 -0.0703125 3.0625 0 3.253906 0 L 8.570312 0 C 8.710938 0 8.832031 -0.046875 8.878906 -0.191406 C 8.925781 -0.332031 8.925781 -0.449219 8.832031 -0.59375 C 8.425781 -1.019531 8.238281 -1.496094 8.238281 -2.066406 L 8.238281 -5.53125 C 8.238281 -5.722656 8.285156 -5.886719 8.425781 -6.03125 C 8.570312 -6.171875 8.734375 -6.242188 8.925781 -6.242188 L 9.496094 -6.242188 C 9.734375 -6.242188 9.945312 -6.125 10.089844 -5.910156 L 13.007812 -1.210938 C 13.128906 -0.996094 13.105469 -0.808594 12.960938 -0.617188 L 12.9375 -0.59375 C 12.84375 -0.449219 12.84375 -0.332031 12.914062 -0.191406 C 12.960938 -0.046875 13.078125 0 13.246094 0 L 19.253906 0 C 19.417969 0 19.511719 -0.0703125 19.5625 -0.214844 C 19.609375 -0.355469 19.5625 -0.476562 19.417969 -0.59375 Z M 13.269531 -12.058594 C 12.675781 -11.300781 11.820312 -10.945312 10.707031 -10.945312 L 8.925781 -10.945312 C 8.734375 -10.945312 8.570312 -10.992188 8.425781 -11.132812 C 8.285156 -11.277344 8.238281 -11.441406 8.238281 -11.632812 L 8.238281 -18.183594 C 8.238281 -18.375 8.285156 -18.539062 8.425781 -18.683594 C 8.570312 -18.824219 8.734375 -18.894531 8.925781 -18.894531 L 10.707031 -18.894531 C 11.5625 -18.894531 12.203125 -18.707031 12.675781 -18.328125 C 13.152344 -17.945312 13.484375 -17.519531 13.722656 -17.042969 C 13.933594 -16.570312 14.078125 -16.117188 14.125 -15.691406 C 14.171875 -15.265625 14.195312 -14.980469 14.195312 -14.882812 C 14.195312 -14.316406 14.101562 -13.792969 13.957031 -13.316406 C 13.792969 -12.84375 13.554688 -12.414062 13.269531 -12.058594 Z M 13.269531 -12.058594 "/></g></g></g><g fill="#ffc1b2" fill-opacity="0.302"><g transform="translate(33.640869, 28.255991)"><g><path d="M 17.945312 -19.894531 C 17.042969 -21.078125 15.976562 -21.980469 14.789062 -22.621094 C 13.578125 -23.238281 12.320312 -23.574219 10.992188 -23.574219 C 9.660156 -23.574219 8.378906 -23.238281 7.167969 -22.621094 C 5.957031 -21.980469 4.914062 -21.078125 4.011719 -19.894531 C 3.15625 -18.777344 2.515625 -17.519531 2.089844 -16.140625 C 1.636719 -14.765625 1.425781 -13.292969 1.425781 -11.773438 C 1.425781 -10.253906 1.636719 -8.785156 2.089844 -7.40625 C 2.515625 -6.007812 3.15625 -4.773438 4.011719 -3.679688 C 4.914062 -2.492188 5.957031 -1.566406 7.167969 -0.949219 C 8.378906 -0.308594 9.660156 0 10.992188 0 C 12.320312 0 13.578125 -0.308594 14.789062 -0.949219 C 15.976562 -1.566406 17.042969 -2.492188 17.945312 -3.679688 C 18.800781 -4.773438 19.441406 -6.007812 19.894531 -7.40625 C 20.320312 -8.785156 20.558594 -10.253906 20.558594 -11.773438 C 20.558594 -13.292969 20.320312 -14.765625 19.894531 -16.140625 C 19.441406 -17.519531 18.800781 -18.777344 17.945312 -19.894531 Z M 10.992188 -4.699219 C 10.328125 -4.699219 9.683594 -4.890625 9.117188 -5.269531 C 8.523438 -5.648438 8 -6.148438 7.574219 -6.789062 C 7.121094 -7.429688 6.765625 -8.191406 6.503906 -9.042969 C 6.242188 -9.898438 6.125 -10.800781 6.125 -11.773438 C 6.125 -12.722656 6.242188 -13.648438 6.503906 -14.503906 C 6.765625 -15.359375 7.121094 -16.09375 7.574219 -16.757812 C 8 -17.402344 8.523438 -17.921875 9.117188 -18.300781 C 9.683594 -18.683594 10.328125 -18.871094 10.992188 -18.871094 C 11.65625 -18.871094 12.273438 -18.683594 12.867188 -18.300781 C 13.4375 -17.921875 13.957031 -17.402344 14.386719 -16.757812 C 14.8125 -16.09375 15.167969 -15.359375 15.429688 -14.503906 C 15.691406 -13.648438 15.832031 -12.722656 15.832031 -11.773438 C 15.832031 -10.800781 15.691406 -9.898438 15.429688 -9.042969 C 15.167969 -8.191406 14.8125 -7.429688 14.386719 -6.789062 C 13.957031 -6.148438 13.4375 -5.648438 12.867188 -5.269531 C 12.273438 -4.890625 11.65625 -4.699219 10.992188 -4.699219 Z M 10.992188 -4.699219 "/></g></g></g><g fill="#ffc1b2" fill-opacity="0.302"><g transform="translate(55.62274, 28.255991)"><g><path d="M 18.277344 -19.394531 C 17.519531 -20.746094 16.59375 -21.792969 15.5 -22.503906 C 14.410156 -23.214844 13.175781 -23.597656 11.84375 -23.597656 L 3.203125 -23.597656 C 3.039062 -23.597656 2.917969 -23.523438 2.871094 -23.382812 C 2.800781 -23.238281 2.824219 -23.097656 2.945312 -23.003906 C 3.371094 -22.527344 3.609375 -21.957031 3.609375 -21.316406 L 3.609375 -2.253906 C 3.609375 -1.613281 3.371094 -1.042969 2.945312 -0.570312 C 2.824219 -0.449219 2.800781 -0.332031 2.871094 -0.191406 C 2.917969 -0.046875 3.039062 0 3.203125 0 L 11.84375 0 C 13.175781 0 14.410156 -0.355469 15.5 -1.066406 C 16.59375 -1.78125 17.519531 -2.800781 18.277344 -4.152344 C 18.824219 -5.175781 19.253906 -6.339844 19.5625 -7.644531 C 19.871094 -8.949219 20.035156 -10.328125 20.035156 -11.773438 C 20.035156 -13.199219 19.871094 -14.574219 19.5625 -15.882812 C 19.253906 -17.1875 18.824219 -18.351562 18.277344 -19.394531 Z M 14.148438 -6.433594 C 13.910156 -6.007812 13.671875 -5.671875 13.4375 -5.4375 C 13.199219 -5.199219 12.960938 -5.007812 12.769531 -4.914062 C 12.558594 -4.796875 12.367188 -4.722656 12.203125 -4.722656 C 12.035156 -4.699219 11.917969 -4.699219 11.84375 -4.699219 L 9.1875 -4.699219 C 8.949219 -4.699219 8.734375 -4.773438 8.570312 -4.960938 C 8.378906 -5.128906 8.308594 -5.339844 8.308594 -5.578125 L 8.308594 -17.710938 C 8.308594 -18.019531 8.402344 -18.277344 8.640625 -18.515625 C 8.878906 -18.753906 9.164062 -18.871094 9.496094 -18.871094 L 11.84375 -18.871094 C 12.367188 -18.871094 12.867188 -18.660156 13.292969 -18.253906 C 13.722656 -17.828125 14.101562 -17.28125 14.410156 -16.617188 C 14.695312 -15.953125 14.933594 -15.191406 15.097656 -14.339844 C 15.242188 -13.484375 15.335938 -12.628906 15.335938 -11.773438 C 15.335938 -10.730469 15.214844 -9.734375 15.027344 -8.808594 C 14.8125 -7.882812 14.527344 -7.097656 14.148438 -6.433594 Z M 14.148438 -6.433594 "/></g></g></g><g clip-path="url(#87198ca0ee)"><g fill="#ffc1b2" fill-opacity="0.302"><g transform="translate(77.557138, 28.255991)"><g><path d="M 17.28125 -23.761719 C 16.878906 -23.382812 16.402344 -23.214844 15.882812 -23.214844 L 3.226562 -23.214844 C 3.0625 -23.214844 2.945312 -23.144531 2.894531 -23.003906 C 2.824219 -22.859375 2.824219 -22.742188 2.917969 -22.621094 L 2.992188 -22.550781 C 3.371094 -22.125 3.5625 -21.625 3.5625 -21.054688 L 3.5625 -1.78125 C 3.5625 -1.496094 3.511719 -1.234375 3.417969 -0.972656 C 3.324219 -0.710938 3.179688 -0.476562 2.992188 -0.285156 L 2.917969 -0.214844 C 2.824219 -0.0703125 2.824219 0.046875 2.894531 0.191406 C 2.945312 0.332031 3.0625 0.378906 3.226562 0.378906 L 15.882812 0.378906 C 16.402344 0.378906 16.878906 0.570312 17.28125 0.925781 C 17.402344 1.042969 17.542969 1.066406 17.683594 0.996094 C 17.828125 0.949219 17.921875 0.832031 17.921875 0.640625 L 17.921875 -4.652344 C 17.921875 -4.796875 17.851562 -4.914062 17.710938 -4.984375 C 17.566406 -5.03125 17.425781 -5.007812 17.328125 -4.914062 C 16.902344 -4.511719 16.402344 -4.320312 15.832031 -4.320312 L 8.855469 -4.320312 C 8.6875 -4.320312 8.546875 -4.367188 8.425781 -4.488281 C 8.308594 -4.582031 8.261719 -4.722656 8.261719 -4.914062 L 8.261719 -8.476562 C 8.261719 -8.640625 8.308594 -8.785156 8.425781 -8.902344 C 8.546875 -8.996094 8.6875 -9.066406 8.855469 -9.066406 L 10.945312 -9.066406 C 11.511719 -9.066406 12.011719 -8.855469 12.4375 -8.476562 C 12.558594 -8.378906 12.675781 -8.378906 12.820312 -8.449219 C 12.960938 -8.523438 13.03125 -8.640625 13.03125 -8.785156 L 13.03125 -14.054688 C 13.03125 -14.195312 12.960938 -14.289062 12.820312 -14.363281 C 12.675781 -14.433594 12.558594 -14.433594 12.4375 -14.363281 C 12.011719 -13.957031 11.511719 -13.769531 10.945312 -13.769531 L 8.855469 -13.769531 C 8.6875 -13.769531 8.546875 -13.816406 8.425781 -13.933594 C 8.308594 -14.03125 8.261719 -14.171875 8.261719 -14.363281 L 8.261719 -17.921875 C 8.261719 -18.089844 8.308594 -18.230469 8.425781 -18.351562 C 8.546875 -18.445312 8.6875 -18.515625 8.855469 -18.515625 L 15.832031 -18.515625 C 16.402344 -18.515625 16.902344 -18.300781 17.328125 -17.921875 C 17.425781 -17.804688 17.566406 -17.78125 17.710938 -17.851562 C 17.851562 -17.898438 17.921875 -18.019531 17.921875 -18.183594 L 17.921875 -23.5 C 17.921875 -23.644531 17.828125 -23.761719 17.683594 -23.832031 C 17.542969 -23.882812 17.402344 -23.859375 17.28125 -23.761719 Z M 17.28125 -23.761719 "/></g></g></g></g><g fill="#ffc1b2" fill-opacity="0.302"><g transform="translate(98.328343, 28.255991)"><g><path d="M 17.945312 -19.894531 C 17.042969 -21.078125 15.976562 -21.980469 14.789062 -22.621094 C 13.578125 -23.238281 12.320312 -23.574219 10.992188 -23.574219 C 9.660156 -23.574219 8.378906 -23.238281 7.167969 -22.621094 C 5.957031 -21.980469 4.914062 -21.078125 4.011719 -19.894531 C 3.15625 -18.777344 2.515625 -17.519531 2.089844 -16.140625 C 1.636719 -14.765625 1.425781 -13.292969 1.425781 -11.773438 C 1.425781 -10.253906 1.636719 -8.785156 2.089844 -7.40625 C 2.515625 -6.007812 3.15625 -4.773438 4.011719 -3.679688 C 4.914062 -2.492188 5.957031 -1.566406 7.167969 -0.949219 C 8.378906 -0.308594 9.660156 0 10.992188 0 C 12.320312 0 13.578125 -0.308594 14.789062 -0.949219 C 15.976562 -1.566406 17.042969 -2.492188 17.945312 -3.679688 C 18.800781 -4.773438 19.441406 -6.007812 19.894531 -7.40625 C 20.320312 -8.785156 20.558594 -10.253906 20.558594 -11.773438 C 20.558594 -13.292969 20.320312 -14.765625 19.894531 -16.140625 C 19.441406 -17.519531 18.800781 -18.777344 17.945312 -19.894531 Z M 10.992188 -4.699219 C 10.328125 -4.699219 9.683594 -4.890625 9.117188 -5.269531 C 8.523438 -5.648438 8 -6.148438 7.574219 -6.789062 C 7.121094 -7.429688 6.765625 -8.191406 6.503906 -9.042969 C 6.242188 -9.898438 6.125 -10.800781 6.125 -11.773438 C 6.125 -12.722656 6.242188 -13.648438 6.503906 -14.503906 C 6.765625 -15.359375 7.121094 -16.09375 7.574219 -16.757812 C 8 -17.402344 8.523438 -17.921875 9.117188 -18.300781 C 9.683594 -18.683594 10.328125 -18.871094 10.992188 -18.871094 C 11.65625 -18.871094 12.273438 -18.683594 12.867188 -18.300781 C 13.4375 -17.921875 13.957031 -17.402344 14.386719 -16.757812 C 14.8125 -16.09375 15.167969 -15.359375 15.429688 -14.503906 C 15.691406 -13.648438 15.832031 -12.722656 15.832031 -11.773438 C 15.832031 -10.800781 15.691406 -9.898438 15.429688 -9.042969 C 15.167969 -8.191406 14.8125 -7.429688 14.386719 -6.789062 C 13.957031 -6.148438 13.4375 -5.648438 12.867188 -5.269531 C 12.273438 -4.890625 11.65625 -4.699219 10.992188 -4.699219 Z M 10.992188 -4.699219 "/></g></g></g><g fill="#ffc1b2" fill-opacity="0.502"><g transform="translate(11.836238, 28.522677)"><g><path d="M 19.417969 -0.59375 L 19.0625 -0.878906 C 18.683594 -1.1875 18.351562 -1.566406 18.089844 -1.992188 L 15.144531 -6.695312 C 15.050781 -6.835938 15.003906 -7.003906 15.050781 -7.191406 C 15.097656 -7.359375 15.191406 -7.5 15.359375 -7.621094 C 15.953125 -8.046875 16.476562 -8.523438 16.902344 -9.066406 C 17.542969 -9.851562 18.042969 -10.753906 18.375 -11.75 C 18.707031 -12.746094 18.894531 -13.792969 18.894531 -14.882812 C 18.894531 -15.976562 18.707031 -17.042969 18.375 -18.042969 C 18.042969 -19.039062 17.542969 -19.941406 16.902344 -20.746094 C 16.140625 -21.648438 15.214844 -22.363281 14.171875 -22.859375 C 13.105469 -23.335938 11.941406 -23.597656 10.707031 -23.597656 L 3.203125 -23.597656 C 3.039062 -23.597656 2.917969 -23.523438 2.871094 -23.382812 C 2.800781 -23.238281 2.824219 -23.121094 2.945312 -23.003906 C 3.324219 -22.574219 3.535156 -22.078125 3.535156 -21.507812 L 3.535156 -2.042969 C 3.535156 -1.496094 3.347656 -1.019531 2.992188 -0.617188 C 2.847656 -0.476562 2.824219 -0.355469 2.894531 -0.214844 C 2.945312 -0.0703125 3.0625 0 3.253906 0 L 8.570312 0 C 8.710938 0 8.832031 -0.046875 8.878906 -0.191406 C 8.925781 -0.332031 8.925781 -0.449219 8.832031 -0.59375 C 8.425781 -1.019531 8.238281 -1.496094 8.238281 -2.066406 L 8.238281 -5.53125 C 8.238281 -5.722656 8.285156 -5.886719 8.425781 -6.03125 C 8.570312 -6.171875 8.734375 -6.242188 8.925781 -6.242188 L 9.496094 -6.242188 C 9.734375 -6.242188 9.945312 -6.125 10.089844 -5.910156 L 13.007812 -1.210938 C 13.128906 -0.996094 13.105469 -0.808594 12.960938 -0.617188 L 12.9375 -0.59375 C 12.84375 -0.449219 12.84375 -0.332031 12.914062 -0.191406 C 12.960938 -0.046875 13.078125 0 13.246094 0 L 19.253906 0 C 19.417969 0 19.511719 -0.0703125 19.5625 -0.214844 C 19.609375 -0.355469 19.5625 -0.476562 19.417969 -0.59375 Z M 13.269531 -12.058594 C 12.675781 -11.300781 11.820312 -10.945312 10.707031 -10.945312 L 8.925781 -10.945312 C 8.734375 -10.945312 8.570312 -10.992188 8.425781 -11.132812 C 8.285156 -11.277344 8.238281 -11.441406 8.238281 -11.632812 L 8.238281 -18.183594 C 8.238281 -18.375 8.285156 -18.539062 8.425781 -18.683594 C 8.570312 -18.824219 8.734375 -18.894531 8.925781 -18.894531 L 10.707031 -18.894531 C 11.5625 -18.894531 12.203125 -18.707031 12.675781 -18.328125 C 13.152344 -17.945312 13.484375 -17.519531 13.722656 -17.042969 C 13.933594 -16.570312 14.078125 -16.117188 14.125 -15.691406 C 14.171875 -15.265625 14.195312 -14.980469 14.195312 -14.882812 C 14.195312 -14.316406 14.101562 -13.792969 13.957031 -13.316406 C 13.792969 -12.84375 13.554688 -12.414062 13.269531 -12.058594 Z M 13.269531 -12.058594 "/></g></g></g><g fill="#ffc1b2" fill-opacity="0.502"><g transform="translate(34.269142, 28.522677)"><g><path d="M 17.945312 -19.894531 C 17.042969 -21.078125 15.976562 -21.980469 14.789062 -22.621094 C 13.578125 -23.238281 12.320312 -23.574219 10.992188 -23.574219 C 9.660156 -23.574219 8.378906 -23.238281 7.167969 -22.621094 C 5.957031 -21.980469 4.914062 -21.078125 4.011719 -19.894531 C 3.15625 -18.777344 2.515625 -17.519531 2.089844 -16.140625 C 1.636719 -14.765625 1.425781 -13.292969 1.425781 -11.773438 C 1.425781 -10.253906 1.636719 -8.785156 2.089844 -7.40625 C 2.515625 -6.007812 3.15625 -4.773438 4.011719 -3.679688 C 4.914062 -2.492188 5.957031 -1.566406 7.167969 -0.949219 C 8.378906 -0.308594 9.660156 0 10.992188 0 C 12.320312 0 13.578125 -0.308594 14.789062 -0.949219 C 15.976562 -1.566406 17.042969 -2.492188 17.945312 -3.679688 C 18.800781 -4.773438 19.441406 -6.007812 19.894531 -7.40625 C 20.320312 -8.785156 20.558594 -10.253906 20.558594 -11.773438 C 20.558594 -13.292969 20.320312 -14.765625 19.894531 -16.140625 C 19.441406 -17.519531 18.800781 -18.777344 17.945312 -19.894531 Z M 10.992188 -4.699219 C 10.328125 -4.699219 9.683594 -4.890625 9.117188 -5.269531 C 8.523438 -5.648438 8 -6.148438 7.574219 -6.789062 C 7.121094 -7.429688 6.765625 -8.191406 6.503906 -9.042969 C 6.242188 -9.898438 6.125 -10.800781 6.125 -11.773438 C 6.125 -12.722656 6.242188 -13.648438 6.503906 -14.503906 C 6.765625 -15.359375 7.121094 -16.09375 7.574219 -16.757812 C 8 -17.402344 8.523438 -17.921875 9.117188 -18.300781 C 9.683594 -18.683594 10.328125 -18.871094 10.992188 -18.871094 C 11.65625 -18.871094 12.273438 -18.683594 12.867188 -18.300781 C 13.4375 -17.921875 13.957031 -17.402344 14.386719 -16.757812 C 14.8125 -16.09375 15.167969 -15.359375 15.429688 -14.503906 C 15.691406 -13.648438 15.832031 -12.722656 15.832031 -11.773438 C 15.832031 -10.800781 15.691406 -9.898438 15.429688 -9.042969 C 15.167969 -8.191406 14.8125 -7.429688 14.386719 -6.789062 C 13.957031 -6.148438 13.4375 -5.648438 12.867188 -5.269531 C 12.273438 -4.890625 11.65625 -4.699219 10.992188 -4.699219 Z M 10.992188 -4.699219 "/></g></g></g><g fill="#ffc1b2" fill-opacity="0.502"><g transform="translate(56.251013, 28.522677)"><g><path d="M 18.277344 -19.394531 C 17.519531 -20.746094 16.59375 -21.792969 15.5 -22.503906 C 14.410156 -23.214844 13.175781 -23.597656 11.84375 -23.597656 L 3.203125 -23.597656 C 3.039062 -23.597656 2.917969 -23.523438 2.871094 -23.382812 C 2.800781 -23.238281 2.824219 -23.097656 2.945312 -23.003906 C 3.371094 -22.527344 3.609375 -21.957031 3.609375 -21.316406 L 3.609375 -2.253906 C 3.609375 -1.613281 3.371094 -1.042969 2.945312 -0.570312 C 2.824219 -0.449219 2.800781 -0.332031 2.871094 -0.191406 C 2.917969 -0.046875 3.039062 0 3.203125 0 L 11.84375 0 C 13.175781 0 14.410156 -0.355469 15.5 -1.066406 C 16.59375 -1.78125 17.519531 -2.800781 18.277344 -4.152344 C 18.824219 -5.175781 19.253906 -6.339844 19.5625 -7.644531 C 19.871094 -8.949219 20.035156 -10.328125 20.035156 -11.773438 C 20.035156 -13.199219 19.871094 -14.574219 19.5625 -15.882812 C 19.253906 -17.1875 18.824219 -18.351562 18.277344 -19.394531 Z M 14.148438 -6.433594 C 13.910156 -6.007812 13.671875 -5.671875 13.4375 -5.4375 C 13.199219 -5.199219 12.960938 -5.007812 12.769531 -4.914062 C 12.558594 -4.796875 12.367188 -4.722656 12.203125 -4.722656 C 12.035156 -4.699219 11.917969 -4.699219 11.84375 -4.699219 L 9.1875 -4.699219 C 8.949219 -4.699219 8.734375 -4.773438 8.570312 -4.960938 C 8.378906 -5.128906 8.308594 -5.339844 8.308594 -5.578125 L 8.308594 -17.710938 C 8.308594 -18.019531 8.402344 -18.277344 8.640625 -18.515625 C 8.878906 -18.753906 9.164062 -18.871094 9.496094 -18.871094 L 11.84375 -18.871094 C 12.367188 -18.871094 12.867188 -18.660156 13.292969 -18.253906 C 13.722656 -17.828125 14.101562 -17.28125 14.410156 -16.617188 C 14.695312 -15.953125 14.933594 -15.191406 15.097656 -14.339844 C 15.242188 -13.484375 15.335938 -12.628906 15.335938 -11.773438 C 15.335938 -10.730469 15.214844 -9.734375 15.027344 -8.808594 C 14.8125 -7.882812 14.527344 -7.097656 14.148438 -6.433594 Z M 14.148438 -6.433594 "/></g></g></g><g clip-path="url(#2dd27c4f77)"><g fill="#ffc1b2" fill-opacity="0.502"><g transform="translate(78.18541, 28.522677)"><g><path d="M 17.28125 -23.761719 C 16.878906 -23.382812 16.402344 -23.214844 15.882812 -23.214844 L 3.226562 -23.214844 C 3.0625 -23.214844 2.945312 -23.144531 2.894531 -23.003906 C 2.824219 -22.859375 2.824219 -22.742188 2.917969 -22.621094 L 2.992188 -22.550781 C 3.371094 -22.125 3.5625 -21.625 3.5625 -21.054688 L 3.5625 -1.78125 C 3.5625 -1.496094 3.511719 -1.234375 3.417969 -0.972656 C 3.324219 -0.710938 3.179688 -0.476562 2.992188 -0.285156 L 2.917969 -0.214844 C 2.824219 -0.0703125 2.824219 0.046875 2.894531 0.191406 C 2.945312 0.332031 3.0625 0.378906 3.226562 0.378906 L 15.882812 0.378906 C 16.402344 0.378906 16.878906 0.570312 17.28125 0.925781 C 17.402344 1.042969 17.542969 1.066406 17.683594 0.996094 C 17.828125 0.949219 17.921875 0.832031 17.921875 0.640625 L 17.921875 -4.652344 C 17.921875 -4.796875 17.851562 -4.914062 17.710938 -4.984375 C 17.566406 -5.03125 17.425781 -5.007812 17.328125 -4.914062 C 16.902344 -4.511719 16.402344 -4.320312 15.832031 -4.320312 L 8.855469 -4.320312 C 8.6875 -4.320312 8.546875 -4.367188 8.425781 -4.488281 C 8.308594 -4.582031 8.261719 -4.722656 8.261719 -4.914062 L 8.261719 -8.476562 C 8.261719 -8.640625 8.308594 -8.785156 8.425781 -8.902344 C 8.546875 -8.996094 8.6875 -9.066406 8.855469 -9.066406 L 10.945312 -9.066406 C 11.511719 -9.066406 12.011719 -8.855469 12.4375 -8.476562 C 12.558594 -8.378906 12.675781 -8.378906 12.820312 -8.449219 C 12.960938 -8.523438 13.03125 -8.640625 13.03125 -8.785156 L 13.03125 -14.054688 C 13.03125 -14.195312 12.960938 -14.289062 12.820312 -14.363281 C 12.675781 -14.433594 12.558594 -14.433594 12.4375 -14.363281 C 12.011719 -13.957031 11.511719 -13.769531 10.945312 -13.769531 L 8.855469 -13.769531 C 8.6875 -13.769531 8.546875 -13.816406 8.425781 -13.933594 C 8.308594 -14.03125 8.261719 -14.171875 8.261719 -14.363281 L 8.261719 -17.921875 C 8.261719 -18.089844 8.308594 -18.230469 8.425781 -18.351562 C 8.546875 -18.445312 8.6875 -18.515625 8.855469 -18.515625 L 15.832031 -18.515625 C 16.402344 -18.515625 16.902344 -18.300781 17.328125 -17.921875 C 17.425781 -17.804688 17.566406 -17.78125 17.710938 -17.851562 C 17.851562 -17.898438 17.921875 -18.019531 17.921875 -18.183594 L 17.921875 -23.5 C 17.921875 -23.644531 17.828125 -23.761719 17.683594 -23.832031 C 17.542969 -23.882812 17.402344 -23.859375 17.28125 -23.761719 Z M 17.28125 -23.761719 "/></g></g></g></g><g fill="#ffc1b2" fill-opacity="0.502"><g transform="translate(98.956616, 28.522677)"><g><path d="M 17.945312 -19.894531 C 17.042969 -21.078125 15.976562 -21.980469 14.789062 -22.621094 C 13.578125 -23.238281 12.320312 -23.574219 10.992188 -23.574219 C 9.660156 -23.574219 8.378906 -23.238281 7.167969 -22.621094 C 5.957031 -21.980469 4.914062 -21.078125 4.011719 -19.894531 C 3.15625 -18.777344 2.515625 -17.519531 2.089844 -16.140625 C 1.636719 -14.765625 1.425781 -13.292969 1.425781 -11.773438 C 1.425781 -10.253906 1.636719 -8.785156 2.089844 -7.40625 C 2.515625 -6.007812 3.15625 -4.773438 4.011719 -3.679688 C 4.914062 -2.492188 5.957031 -1.566406 7.167969 -0.949219 C 8.378906 -0.308594 9.660156 0 10.992188 0 C 12.320312 0 13.578125 -0.308594 14.789062 -0.949219 C 15.976562 -1.566406 17.042969 -2.492188 17.945312 -3.679688 C 18.800781 -4.773438 19.441406 -6.007812 19.894531 -7.40625 C 20.320312 -8.785156 20.558594 -10.253906 20.558594 -11.773438 C 20.558594 -13.292969 20.320312 -14.765625 19.894531 -16.140625 C 19.441406 -17.519531 18.800781 -18.777344 17.945312 -19.894531 Z M 10.992188 -4.699219 C 10.328125 -4.699219 9.683594 -4.890625 9.117188 -5.269531 C 8.523438 -5.648438 8 -6.148438 7.574219 -6.789062 C 7.121094 -7.429688 6.765625 -8.191406 6.503906 -9.042969 C 6.242188 -9.898438 6.125 -10.800781 6.125 -11.773438 C 6.125 -12.722656 6.242188 -13.648438 6.503906 -14.503906 C 6.765625 -15.359375 7.121094 -16.09375 7.574219 -16.757812 C 8 -17.402344 8.523438 -17.921875 9.117188 -18.300781 C 9.683594 -18.683594 10.328125 -18.871094 10.992188 -18.871094 C 11.65625 -18.871094 12.273438 -18.683594 12.867188 -18.300781 C 13.4375 -17.921875 13.957031 -17.402344 14.386719 -16.757812 C 14.8125 -16.09375 15.167969 -15.359375 15.429688 -14.503906 C 15.691406 -13.648438 15.832031 -12.722656 15.832031 -11.773438 C 15.832031 -10.800781 15.691406 -9.898438 15.429688 -9.042969 C 15.167969 -8.191406 14.8125 -7.429688 14.386719 -6.789062 C 13.957031 -6.148438 13.4375 -5.648438 12.867188 -5.269531 C 12.273438 -4.890625 11.65625 -4.699219 10.992188 -4.699219 Z M 10.992188 -4.699219 "/></g></g></g><g fill="#fffaef" fill-opacity="1"><g transform="translate(12.464511, 28.789363)"><g><path d="M 19.417969 -0.59375 L 19.0625 -0.878906 C 18.683594 -1.1875 18.351562 -1.566406 18.089844 -1.992188 L 15.144531 -6.695312 C 15.050781 -6.835938 15.003906 -7.003906 15.050781 -7.191406 C 15.097656 -7.359375 15.191406 -7.5 15.359375 -7.621094 C 15.953125 -8.046875 16.476562 -8.523438 16.902344 -9.066406 C 17.542969 -9.851562 18.042969 -10.753906 18.375 -11.75 C 18.707031 -12.746094 18.894531 -13.792969 18.894531 -14.882812 C 18.894531 -15.976562 18.707031 -17.042969 18.375 -18.042969 C 18.042969 -19.039062 17.542969 -19.941406 16.902344 -20.746094 C 16.140625 -21.648438 15.214844 -22.363281 14.171875 -22.859375 C 13.105469 -23.335938 11.941406 -23.597656 10.707031 -23.597656 L 3.203125 -23.597656 C 3.039062 -23.597656 2.917969 -23.523438 2.871094 -23.382812 C 2.800781 -23.238281 2.824219 -23.121094 2.945312 -23.003906 C 3.324219 -22.574219 3.535156 -22.078125 3.535156 -21.507812 L 3.535156 -2.042969 C 3.535156 -1.496094 3.347656 -1.019531 2.992188 -0.617188 C 2.847656 -0.476562 2.824219 -0.355469 2.894531 -0.214844 C 2.945312 -0.0703125 3.0625 0 3.253906 0 L 8.570312 0 C 8.710938 0 8.832031 -0.046875 8.878906 -0.191406 C 8.925781 -0.332031 8.925781 -0.449219 8.832031 -0.59375 C 8.425781 -1.019531 8.238281 -1.496094 8.238281 -2.066406 L 8.238281 -5.53125 C 8.238281 -5.722656 8.285156 -5.886719 8.425781 -6.03125 C 8.570312 -6.171875 8.734375 -6.242188 8.925781 -6.242188 L 9.496094 -6.242188 C 9.734375 -6.242188 9.945312 -6.125 10.089844 -5.910156 L 13.007812 -1.210938 C 13.128906 -0.996094 13.105469 -0.808594 12.960938 -0.617188 L 12.9375 -0.59375 C 12.84375 -0.449219 12.84375 -0.332031 12.914062 -0.191406 C 12.960938 -0.046875 13.078125 0 13.246094 0 L 19.253906 0 C 19.417969 0 19.511719 -0.0703125 19.5625 -0.214844 C 19.609375 -0.355469 19.5625 -0.476562 19.417969 -0.59375 Z M 13.269531 -12.058594 C 12.675781 -11.300781 11.820312 -10.945312 10.707031 -10.945312 L 8.925781 -10.945312 C 8.734375 -10.945312 8.570312 -10.992188 8.425781 -11.132812 C 8.285156 -11.277344 8.238281 -11.441406 8.238281 -11.632812 L 8.238281 -18.183594 C 8.238281 -18.375 8.285156 -18.539062 8.425781 -18.683594 C 8.570312 -18.824219 8.734375 -18.894531 8.925781 -18.894531 L 10.707031 -18.894531 C 11.5625 -18.894531 12.203125 -18.707031 12.675781 -18.328125 C 13.152344 -17.945312 13.484375 -17.519531 13.722656 -17.042969 C 13.933594 -16.570312 14.078125 -16.117188 14.125 -15.691406 C 14.171875 -15.265625 14.195312 -14.980469 14.195312 -14.882812 C 14.195312 -14.316406 14.101562 -13.792969 13.957031 -13.316406 C 13.792969 -12.84375 13.554688 -12.414062 13.269531 -12.058594 Z M 13.269531 -12.058594 "/></g></g></g><g fill="#fffaef" fill-opacity="1"><g transform="translate(34.897415, 28.789363)"><g><path d="M 17.945312 -19.894531 C 17.042969 -21.078125 15.976562 -21.980469 14.789062 -22.621094 C 13.578125 -23.238281 12.320312 -23.574219 10.992188 -23.574219 C 9.660156 -23.574219 8.378906 -23.238281 7.167969 -22.621094 C 5.957031 -21.980469 4.914062 -21.078125 4.011719 -19.894531 C 3.15625 -18.777344 2.515625 -17.519531 2.089844 -16.140625 C 1.636719 -14.765625 1.425781 -13.292969 1.425781 -11.773438 C 1.425781 -10.253906 1.636719 -8.785156 2.089844 -7.40625 C 2.515625 -6.007812 3.15625 -4.773438 4.011719 -3.679688 C 4.914062 -2.492188 5.957031 -1.566406 7.167969 -0.949219 C 8.378906 -0.308594 9.660156 0 10.992188 0 C 12.320312 0 13.578125 -0.308594 14.789062 -0.949219 C 15.976562 -1.566406 17.042969 -2.492188 17.945312 -3.679688 C 18.800781 -4.773438 19.441406 -6.007812 19.894531 -7.40625 C 20.320312 -8.785156 20.558594 -10.253906 20.558594 -11.773438 C 20.558594 -13.292969 20.320312 -14.765625 19.894531 -16.140625 C 19.441406 -17.519531 18.800781 -18.777344 17.945312 -19.894531 Z M 10.992188 -4.699219 C 10.328125 -4.699219 9.683594 -4.890625 9.117188 -5.269531 C 8.523438 -5.648438 8 -6.148438 7.574219 -6.789062 C 7.121094 -7.429688 6.765625 -8.191406 6.503906 -9.042969 C 6.242188 -9.898438 6.125 -10.800781 6.125 -11.773438 C 6.125 -12.722656 6.242188 -13.648438 6.503906 -14.503906 C 6.765625 -15.359375 7.121094 -16.09375 7.574219 -16.757812 C 8 -17.402344 8.523438 -17.921875 9.117188 -18.300781 C 9.683594 -18.683594 10.328125 -18.871094 10.992188 -18.871094 C 11.65625 -18.871094 12.273438 -18.683594 12.867188 -18.300781 C 13.4375 -17.921875 13.957031 -17.402344 14.386719 -16.757812 C 14.8125 -16.09375 15.167969 -15.359375 15.429688 -14.503906 C 15.691406 -13.648438 15.832031 -12.722656 15.832031 -11.773438 C 15.832031 -10.800781 15.691406 -9.898438 15.429688 -9.042969 C 15.167969 -8.191406 14.8125 -7.429688 14.386719 -6.789062 C 13.957031 -6.148438 13.4375 -5.648438 12.867188 -5.269531 C 12.273438 -4.890625 11.65625 -4.699219 10.992188 -4.699219 Z M 10.992188 -4.699219 "/></g></g></g><g fill="#fffaef" fill-opacity="1"><g transform="translate(56.879286, 28.789363)"><g><path d="M 18.277344 -19.394531 C 17.519531 -20.746094 16.59375 -21.792969 15.5 -22.503906 C 14.410156 -23.214844 13.175781 -23.597656 11.84375 -23.597656 L 3.203125 -23.597656 C 3.039062 -23.597656 2.917969 -23.523438 2.871094 -23.382812 C 2.800781 -23.238281 2.824219 -23.097656 2.945312 -23.003906 C 3.371094 -22.527344 3.609375 -21.957031 3.609375 -21.316406 L 3.609375 -2.253906 C 3.609375 -1.613281 3.371094 -1.042969 2.945312 -0.570312 C 2.824219 -0.449219 2.800781 -0.332031 2.871094 -0.191406 C 2.917969 -0.046875 3.039062 0 3.203125 0 L 11.84375 0 C 13.175781 0 14.410156 -0.355469 15.5 -1.066406 C 16.59375 -1.78125 17.519531 -2.800781 18.277344 -4.152344 C 18.824219 -5.175781 19.253906 -6.339844 19.5625 -7.644531 C 19.871094 -8.949219 20.035156 -10.328125 20.035156 -11.773438 C 20.035156 -13.199219 19.871094 -14.574219 19.5625 -15.882812 C 19.253906 -17.1875 18.824219 -18.351562 18.277344 -19.394531 Z M 14.148438 -6.433594 C 13.910156 -6.007812 13.671875 -5.671875 13.4375 -5.4375 C 13.199219 -5.199219 12.960938 -5.007812 12.769531 -4.914062 C 12.558594 -4.796875 12.367188 -4.722656 12.203125 -4.722656 C 12.035156 -4.699219 11.917969 -4.699219 11.84375 -4.699219 L 9.1875 -4.699219 C 8.949219 -4.699219 8.734375 -4.773438 8.570312 -4.960938 C 8.378906 -5.128906 8.308594 -5.339844 8.308594 -5.578125 L 8.308594 -17.710938 C 8.308594 -18.019531 8.402344 -18.277344 8.640625 -18.515625 C 8.878906 -18.753906 9.164062 -18.871094 9.496094 -18.871094 L 11.84375 -18.871094 C 12.367188 -18.871094 12.867188 -18.660156 13.292969 -18.253906 C 13.722656 -17.828125 14.101562 -17.28125 14.410156 -16.617188 C 14.695312 -15.953125 14.933594 -15.191406 15.097656 -14.339844 C 15.242188 -13.484375 15.335938 -12.628906 15.335938 -11.773438 C 15.335938 -10.730469 15.214844 -9.734375 15.027344 -8.808594 C 14.8125 -7.882812 14.527344 -7.097656 14.148438 -6.433594 Z M 14.148438 -6.433594 "/></g></g></g><g clip-path="url(#ec85fa5784)"><g fill="#fffaef" fill-opacity="1"><g transform="translate(78.813684, 28.789363)"><g><path d="M 17.28125 -23.761719 C 16.878906 -23.382812 16.402344 -23.214844 15.882812 -23.214844 L 3.226562 -23.214844 C 3.0625 -23.214844 2.945312 -23.144531 2.894531 -23.003906 C 2.824219 -22.859375 2.824219 -22.742188 2.917969 -22.621094 L 2.992188 -22.550781 C 3.371094 -22.125 3.5625 -21.625 3.5625 -21.054688 L 3.5625 -1.78125 C 3.5625 -1.496094 3.511719 -1.234375 3.417969 -0.972656 C 3.324219 -0.710938 3.179688 -0.476562 2.992188 -0.285156 L 2.917969 -0.214844 C 2.824219 -0.0703125 2.824219 0.046875 2.894531 0.191406 C 2.945312 0.332031 3.0625 0.378906 3.226562 0.378906 L 15.882812 0.378906 C 16.402344 0.378906 16.878906 0.570312 17.28125 0.925781 C 17.402344 1.042969 17.542969 1.066406 17.683594 0.996094 C 17.828125 0.949219 17.921875 0.832031 17.921875 0.640625 L 17.921875 -4.652344 C 17.921875 -4.796875 17.851562 -4.914062 17.710938 -4.984375 C 17.566406 -5.03125 17.425781 -5.007812 17.328125 -4.914062 C 16.902344 -4.511719 16.402344 -4.320312 15.832031 -4.320312 L 8.855469 -4.320312 C 8.6875 -4.320312 8.546875 -4.367188 8.425781 -4.488281 C 8.308594 -4.582031 8.261719 -4.722656 8.261719 -4.914062 L 8.261719 -8.476562 C 8.261719 -8.640625 8.308594 -8.785156 8.425781 -8.902344 C 8.546875 -8.996094 8.6875 -9.066406 8.855469 -9.066406 L 10.945312 -9.066406 C 11.511719 -9.066406 12.011719 -8.855469 12.4375 -8.476562 C 12.558594 -8.378906 12.675781 -8.378906 12.820312 -8.449219 C 12.960938 -8.523438 13.03125 -8.640625 13.03125 -8.785156 L 13.03125 -14.054688 C 13.03125 -14.195312 12.960938 -14.289062 12.820312 -14.363281 C 12.675781 -14.433594 12.558594 -14.433594 12.4375 -14.363281 C 12.011719 -13.957031 11.511719 -13.769531 10.945312 -13.769531 L 8.855469 -13.769531 C 8.6875 -13.769531 8.546875 -13.816406 8.425781 -13.933594 C 8.308594 -14.03125 8.261719 -14.171875 8.261719 -14.363281 L 8.261719 -17.921875 C 8.261719 -18.089844 8.308594 -18.230469 8.425781 -18.351562 C 8.546875 -18.445312 8.6875 -18.515625 8.855469 -18.515625 L 15.832031 -18.515625 C 16.402344 -18.515625 16.902344 -18.300781 17.328125 -17.921875 C 17.425781 -17.804688 17.566406 -17.78125 17.710938 -17.851562 C 17.851562 -17.898438 17.921875 -18.019531 17.921875 -18.183594 L 17.921875 -23.5 C 17.921875 -23.644531 17.828125 -23.761719 17.683594 -23.832031 C 17.542969 -23.882812 17.402344 -23.859375 17.28125 -23.761719 Z M 17.28125 -23.761719 "/></g></g></g></g><g fill="#fffaef" fill-opacity="1"><g transform="translate(99.584889, 28.789363)"><g><path d="M 17.945312 -19.894531 C 17.042969 -21.078125 15.976562 -21.980469 14.789062 -22.621094 C 13.578125 -23.238281 12.320312 -23.574219 10.992188 -23.574219 C 9.660156 -23.574219 8.378906 -23.238281 7.167969 -22.621094 C 5.957031 -21.980469 4.914062 -21.078125 4.011719 -19.894531 C 3.15625 -18.777344 2.515625 -17.519531 2.089844 -16.140625 C 1.636719 -14.765625 1.425781 -13.292969 1.425781 -11.773438 C 1.425781 -10.253906 1.636719 -8.785156 2.089844 -7.40625 C 2.515625 -6.007812 3.15625 -4.773438 4.011719 -3.679688 C 4.914062 -2.492188 5.957031 -1.566406 7.167969 -0.949219 C 8.378906 -0.308594 9.660156 0 10.992188 0 C 12.320312 0 13.578125 -0.308594 14.789062 -0.949219 C 15.976562 -1.566406 17.042969 -2.492188 17.945312 -3.679688 C 18.800781 -4.773438 19.441406 -6.007812 19.894531 -7.40625 C 20.320312 -8.785156 20.558594 -10.253906 20.558594 -11.773438 C 20.558594 -13.292969 20.320312 -14.765625 19.894531 -16.140625 C 19.441406 -17.519531 18.800781 -18.777344 17.945312 -19.894531 Z M 10.992188 -4.699219 C 10.328125 -4.699219 9.683594 -4.890625 9.117188 -5.269531 C 8.523438 -5.648438 8 -6.148438 7.574219 -6.789062 C 7.121094 -7.429688 6.765625 -8.191406 6.503906 -9.042969 C 6.242188 -9.898438 6.125 -10.800781 6.125 -11.773438 C 6.125 -12.722656 6.242188 -13.648438 6.503906 -14.503906 C 6.765625 -15.359375 7.121094 -16.09375 7.574219 -16.757812 C 8 -17.402344 8.523438 -17.921875 9.117188 -18.300781 C 9.683594 -18.683594 10.328125 -18.871094 10.992188 -18.871094 C 11.65625 -18.871094 12.273438 -18.683594 12.867188 -18.300781 C 13.4375 -17.921875 13.957031 -17.402344 14.386719 -16.757812 C 14.8125 -16.09375 15.167969 -15.359375 15.429688 -14.503906 C 15.691406 -13.648438 15.832031 -12.722656 15.832031 -11.773438 C 15.832031 -10.800781 15.691406 -9.898438 15.429688 -9.042969 C 15.167969 -8.191406 14.8125 -7.429688 14.386719 -6.789062 C 13.957031 -6.148438 13.4375 -5.648438 12.867188 -5.269531 C 12.273438 -4.890625 11.65625 -4.699219 10.992188 -4.699219 Z M 10.992188 -4.699219 "/></g></g></g></svg>