<svg xmlns="http://www.w3.org/2000/svg" xmlns:xlink="http://www.w3.org/1999/xlink" width="180" zoomAndPan="magnify" viewBox="0 0 135 30.000001" height="40" preserveAspectRatio="xMidYMid meet" version="1.0"><defs><g/></defs><g fill="#0057ff" fill-opacity="0.302"><g transform="translate(21.32494, 26.880267)"><g><path d="M 9.515625 -1.671875 C 9.378906 -1.390625 9.191406 -1.140625 8.953125 -0.921875 C 8.378906 -0.304688 7.691406 0 6.890625 0 L 4.265625 0 C 3.453125 0 2.753906 -0.304688 2.171875 -0.921875 C 1.597656 -1.535156 1.3125 -2.265625 1.3125 -3.109375 L 1.3125 -22.796875 L 4.921875 -22.796875 L 4.921875 -3.4375 L 7.703125 -3.4375 L 7.703125 -22.796875 L 11.3125 -22.796875 L 11.3125 -3.4375 L 14.109375 -3.4375 L 14.109375 -22.796875 L 17.703125 -22.796875 L 17.703125 -3.109375 C 17.703125 -2.234375 17.410156 -1.492188 16.828125 -0.890625 C 16.253906 -0.296875 15.566406 0 14.765625 0 L 12.140625 0 C 11.328125 0 10.625 -0.304688 10.03125 -0.921875 C 9.8125 -1.160156 9.640625 -1.410156 9.515625 -1.671875 Z M 9.515625 -1.671875 "/></g></g></g><g fill="#0057ff" fill-opacity="0.302"><g transform="translate(40.347303, 26.880267)"><g><path d="M 11.3125 -19.671875 L 11.3125 -3.109375 C 11.3125 -2.234375 11.019531 -1.492188 10.4375 -0.890625 C 9.863281 -0.296875 9.171875 0 8.359375 0 L 4.265625 0 C 3.453125 0 2.753906 -0.304688 2.171875 -0.921875 C 1.597656 -1.535156 1.3125 -2.265625 1.3125 -3.109375 L 1.3125 -19.671875 C 1.3125 -20.546875 1.597656 -21.285156 2.171875 -21.890625 C 2.753906 -22.492188 3.453125 -22.796875 4.265625 -22.796875 L 8.359375 -22.796875 C 9.171875 -22.796875 9.863281 -22.492188 10.4375 -21.890625 C 11.019531 -21.285156 11.3125 -20.546875 11.3125 -19.671875 Z M 7.703125 -3.4375 L 7.703125 -19.34375 L 4.921875 -19.34375 L 4.921875 -3.4375 Z M 7.703125 -3.4375 "/></g></g></g><g fill="#0057ff" fill-opacity="0.302"><g transform="translate(52.974218, 26.880267)"><g><path d="M 9.515625 0 L 5.734375 -8.53125 L 4.921875 -8.09375 L 4.921875 0 L 1.3125 0 L 1.3125 -22.796875 L 8.359375 -22.796875 C 9.171875 -22.796875 9.863281 -22.492188 10.4375 -21.890625 C 11.019531 -21.285156 11.3125 -20.546875 11.3125 -19.671875 L 11.3125 -11.375 L 8.921875 -10.171875 L 13.453125 0 Z M 7.703125 -13.609375 L 7.703125 -19.34375 L 4.921875 -19.34375 L 4.921875 -12.140625 Z M 7.703125 -13.609375 "/></g></g></g><g fill="#0057ff" fill-opacity="0.302"><g transform="translate(65.601132, 26.880267)"><g><path d="M 13.9375 0 L 10.09375 0 L 6.46875 -9.3125 L 4.921875 -6.140625 L 4.921875 0 L 1.3125 0 L 1.3125 -22.796875 L 4.921875 -22.796875 L 4.921875 -14.171875 L 8.796875 -22.796875 L 12.71875 -22.796875 L 8.421875 -13.546875 Z M 13.9375 0 "/></g></g></g><g fill="#0057ff" fill-opacity="0.302"><g transform="translate(78.883991, 26.880267)"><g><path d="M 11.3125 -19.671875 L 11.3125 -3.109375 C 11.3125 -2.234375 11.019531 -1.492188 10.4375 -0.890625 C 9.863281 -0.296875 9.171875 0 8.359375 0 L 4.265625 0 C 3.453125 0 2.753906 -0.304688 2.171875 -0.921875 C 1.597656 -1.535156 1.3125 -2.265625 1.3125 -3.109375 L 1.3125 -19.671875 C 1.3125 -20.546875 1.597656 -21.285156 2.171875 -21.890625 C 2.753906 -22.492188 3.453125 -22.796875 4.265625 -22.796875 L 8.359375 -22.796875 C 9.171875 -22.796875 9.863281 -22.492188 10.4375 -21.890625 C 11.019531 -21.285156 11.3125 -20.546875 11.3125 -19.671875 Z M 7.703125 -3.4375 L 7.703125 -19.34375 L 4.921875 -19.34375 L 4.921875 -3.4375 Z M 7.703125 -3.4375 "/></g></g></g><g fill="#0057ff" fill-opacity="0.302"><g transform="translate(91.510906, 26.880267)"><g><path d="M 11.3125 -22.796875 L 11.3125 -3.109375 C 11.3125 -2.234375 11.019531 -1.492188 10.4375 -0.890625 C 9.863281 -0.296875 9.171875 0 8.359375 0 L 4.265625 0 C 3.453125 0 2.753906 -0.304688 2.171875 -0.921875 C 1.597656 -1.535156 1.3125 -2.265625 1.3125 -3.109375 L 1.3125 -22.796875 L 4.921875 -22.796875 L 4.921875 -3.4375 L 7.703125 -3.4375 L 7.703125 -22.796875 Z M 11.3125 -22.796875 "/></g></g></g><g fill="#0057ff" fill-opacity="0.302"><g transform="translate(104.13782, 26.880267)"><g><path d="M 4.09375 0 L 4.09375 -19.34375 L 0.484375 -19.34375 L 0.484375 -22.796875 L 11.3125 -22.796875 L 11.3125 -19.34375 L 7.703125 -19.34375 L 7.703125 0 Z M 4.09375 0 "/></g></g></g><g fill="#0057ff" fill-opacity="0.502"><g transform="translate(20.244438, 26.06605)"><g><path d="M 9.515625 -1.671875 C 9.378906 -1.390625 9.191406 -1.140625 8.953125 -0.921875 C 8.378906 -0.304688 7.691406 0 6.890625 0 L 4.265625 0 C 3.453125 0 2.753906 -0.304688 2.171875 -0.921875 C 1.597656 -1.535156 1.3125 -2.265625 1.3125 -3.109375 L 1.3125 -22.796875 L 4.921875 -22.796875 L 4.921875 -3.4375 L 7.703125 -3.4375 L 7.703125 -22.796875 L 11.3125 -22.796875 L 11.3125 -3.4375 L 14.109375 -3.4375 L 14.109375 -22.796875 L 17.703125 -22.796875 L 17.703125 -3.109375 C 17.703125 -2.234375 17.410156 -1.492188 16.828125 -0.890625 C 16.253906 -0.296875 15.566406 0 14.765625 0 L 12.140625 0 C 11.328125 0 10.625 -0.304688 10.03125 -0.921875 C 9.8125 -1.160156 9.640625 -1.410156 9.515625 -1.671875 Z M 9.515625 -1.671875 "/></g></g></g><g fill="#0057ff" fill-opacity="0.502"><g transform="translate(39.266801, 26.06605)"><g><path d="M 11.3125 -19.671875 L 11.3125 -3.109375 C 11.3125 -2.234375 11.019531 -1.492188 10.4375 -0.890625 C 9.863281 -0.296875 9.171875 0 8.359375 0 L 4.265625 0 C 3.453125 0 2.753906 -0.304688 2.171875 -0.921875 C 1.597656 -1.535156 1.3125 -2.265625 1.3125 -3.109375 L 1.3125 -19.671875 C 1.3125 -20.546875 1.597656 -21.285156 2.171875 -21.890625 C 2.753906 -22.492188 3.453125 -22.796875 4.265625 -22.796875 L 8.359375 -22.796875 C 9.171875 -22.796875 9.863281 -22.492188 10.4375 -21.890625 C 11.019531 -21.285156 11.3125 -20.546875 11.3125 -19.671875 Z M 7.703125 -3.4375 L 7.703125 -19.34375 L 4.921875 -19.34375 L 4.921875 -3.4375 Z M 7.703125 -3.4375 "/></g></g></g><g fill="#0057ff" fill-opacity="0.502"><g transform="translate(51.893716, 26.06605)"><g><path d="M 9.515625 0 L 5.734375 -8.53125 L 4.921875 -8.09375 L 4.921875 0 L 1.3125 0 L 1.3125 -22.796875 L 8.359375 -22.796875 C 9.171875 -22.796875 9.863281 -22.492188 10.4375 -21.890625 C 11.019531 -21.285156 11.3125 -20.546875 11.3125 -19.671875 L 11.3125 -11.375 L 8.921875 -10.171875 L 13.453125 0 Z M 7.703125 -13.609375 L 7.703125 -19.34375 L 4.921875 -19.34375 L 4.921875 -12.140625 Z M 7.703125 -13.609375 "/></g></g></g><g fill="#0057ff" fill-opacity="0.502"><g transform="translate(64.52063, 26.06605)"><g><path d="M 13.9375 0 L 10.09375 0 L 6.46875 -9.3125 L 4.921875 -6.140625 L 4.921875 0 L 1.3125 0 L 1.3125 -22.796875 L 4.921875 -22.796875 L 4.921875 -14.171875 L 8.796875 -22.796875 L 12.71875 -22.796875 L 8.421875 -13.546875 Z M 13.9375 0 "/></g></g></g><g fill="#0057ff" fill-opacity="0.502"><g transform="translate(77.803489, 26.06605)"><g><path d="M 11.3125 -19.671875 L 11.3125 -3.109375 C 11.3125 -2.234375 11.019531 -1.492188 10.4375 -0.890625 C 9.863281 -0.296875 9.171875 0 8.359375 0 L 4.265625 0 C 3.453125 0 2.753906 -0.304688 2.171875 -0.921875 C 1.597656 -1.535156 1.3125 -2.265625 1.3125 -3.109375 L 1.3125 -19.671875 C 1.3125 -20.546875 1.597656 -21.285156 2.171875 -21.890625 C 2.753906 -22.492188 3.453125 -22.796875 4.265625 -22.796875 L 8.359375 -22.796875 C 9.171875 -22.796875 9.863281 -22.492188 10.4375 -21.890625 C 11.019531 -21.285156 11.3125 -20.546875 11.3125 -19.671875 Z M 7.703125 -3.4375 L 7.703125 -19.34375 L 4.921875 -19.34375 L 4.921875 -3.4375 Z M 7.703125 -3.4375 "/></g></g></g><g fill="#0057ff" fill-opacity="0.502"><g transform="translate(90.430403, 26.06605)"><g><path d="M 11.3125 -22.796875 L 11.3125 -3.109375 C 11.3125 -2.234375 11.019531 -1.492188 10.4375 -0.890625 C 9.863281 -0.296875 9.171875 0 8.359375 0 L 4.265625 0 C 3.453125 0 2.753906 -0.304688 2.171875 -0.921875 C 1.597656 -1.535156 1.3125 -2.265625 1.3125 -3.109375 L 1.3125 -22.796875 L 4.921875 -22.796875 L 4.921875 -3.4375 L 7.703125 -3.4375 L 7.703125 -22.796875 Z M 11.3125 -22.796875 "/></g></g></g><g fill="#0057ff" fill-opacity="0.502"><g transform="translate(103.057318, 26.06605)"><g><path d="M 4.09375 0 L 4.09375 -19.34375 L 0.484375 -19.34375 L 0.484375 -22.796875 L 11.3125 -22.796875 L 11.3125 -19.34375 L 7.703125 -19.34375 L 7.703125 0 Z M 4.09375 0 "/></g></g></g><g fill="#28ff0d" fill-opacity="1"><g transform="translate(19.163935, 25.251833)"><g><path d="M 9.515625 -1.671875 C 9.378906 -1.390625 9.191406 -1.140625 8.953125 -0.921875 C 8.378906 -0.304688 7.691406 0 6.890625 0 L 4.265625 0 C 3.453125 0 2.753906 -0.304688 2.171875 -0.921875 C 1.597656 -1.535156 1.3125 -2.265625 1.3125 -3.109375 L 1.3125 -22.796875 L 4.921875 -22.796875 L 4.921875 -3.4375 L 7.703125 -3.4375 L 7.703125 -22.796875 L 11.3125 -22.796875 L 11.3125 -3.4375 L 14.109375 -3.4375 L 14.109375 -22.796875 L 17.703125 -22.796875 L 17.703125 -3.109375 C 17.703125 -2.234375 17.410156 -1.492188 16.828125 -0.890625 C 16.253906 -0.296875 15.566406 0 14.765625 0 L 12.140625 0 C 11.328125 0 10.625 -0.304688 10.03125 -0.921875 C 9.8125 -1.160156 9.640625 -1.410156 9.515625 -1.671875 Z M 9.515625 -1.671875 "/></g></g></g><g fill="#28ff0d" fill-opacity="1"><g transform="translate(38.186298, 25.251833)"><g><path d="M 11.3125 -19.671875 L 11.3125 -3.109375 C 11.3125 -2.234375 11.019531 -1.492188 10.4375 -0.890625 C 9.863281 -0.296875 9.171875 0 8.359375 0 L 4.265625 0 C 3.453125 0 2.753906 -0.304688 2.171875 -0.921875 C 1.597656 -1.535156 1.3125 -2.265625 1.3125 -3.109375 L 1.3125 -19.671875 C 1.3125 -20.546875 1.597656 -21.285156 2.171875 -21.890625 C 2.753906 -22.492188 3.453125 -22.796875 4.265625 -22.796875 L 8.359375 -22.796875 C 9.171875 -22.796875 9.863281 -22.492188 10.4375 -21.890625 C 11.019531 -21.285156 11.3125 -20.546875 11.3125 -19.671875 Z M 7.703125 -3.4375 L 7.703125 -19.34375 L 4.921875 -19.34375 L 4.921875 -3.4375 Z M 7.703125 -3.4375 "/></g></g></g><g fill="#28ff0d" fill-opacity="1"><g transform="translate(50.813213, 25.251833)"><g><path d="M 9.515625 0 L 5.734375 -8.53125 L 4.921875 -8.09375 L 4.921875 0 L 1.3125 0 L 1.3125 -22.796875 L 8.359375 -22.796875 C 9.171875 -22.796875 9.863281 -22.492188 10.4375 -21.890625 C 11.019531 -21.285156 11.3125 -20.546875 11.3125 -19.671875 L 11.3125 -11.375 L 8.921875 -10.171875 L 13.453125 0 Z M 7.703125 -13.609375 L 7.703125 -19.34375 L 4.921875 -19.34375 L 4.921875 -12.140625 Z M 7.703125 -13.609375 "/></g></g></g><g fill="#28ff0d" fill-opacity="1"><g transform="translate(63.440127, 25.251833)"><g><path d="M 13.9375 0 L 10.09375 0 L 6.46875 -9.3125 L 4.921875 -6.140625 L 4.921875 0 L 1.3125 0 L 1.3125 -22.796875 L 4.921875 -22.796875 L 4.921875 -14.171875 L 8.796875 -22.796875 L 12.71875 -22.796875 L 8.421875 -13.546875 Z M 13.9375 0 "/></g></g></g><g fill="#28ff0d" fill-opacity="1"><g transform="translate(76.722986, 25.251833)"><g><path d="M 11.3125 -19.671875 L 11.3125 -3.109375 C 11.3125 -2.234375 11.019531 -1.492188 10.4375 -0.890625 C 9.863281 -0.296875 9.171875 0 8.359375 0 L 4.265625 0 C 3.453125 0 2.753906 -0.304688 2.171875 -0.921875 C 1.597656 -1.535156 1.3125 -2.265625 1.3125 -3.109375 L 1.3125 -19.671875 C 1.3125 -20.546875 1.597656 -21.285156 2.171875 -21.890625 C 2.753906 -22.492188 3.453125 -22.796875 4.265625 -22.796875 L 8.359375 -22.796875 C 9.171875 -22.796875 9.863281 -22.492188 10.4375 -21.890625 C 11.019531 -21.285156 11.3125 -20.546875 11.3125 -19.671875 Z M 7.703125 -3.4375 L 7.703125 -19.34375 L 4.921875 -19.34375 L 4.921875 -3.4375 Z M 7.703125 -3.4375 "/></g></g></g><g fill="#28ff0d" fill-opacity="1"><g transform="translate(89.349901, 25.251833)"><g><path d="M 11.3125 -22.796875 L 11.3125 -3.109375 C 11.3125 -2.234375 11.019531 -1.492188 10.4375 -0.890625 C 9.863281 -0.296875 9.171875 0 8.359375 0 L 4.265625 0 C 3.453125 0 2.753906 -0.304688 2.171875 -0.921875 C 1.597656 -1.535156 1.3125 -2.265625 1.3125 -3.109375 L 1.3125 -22.796875 L 4.921875 -22.796875 L 4.921875 -3.4375 L 7.703125 -3.4375 L 7.703125 -22.796875 Z M 11.3125 -22.796875 "/></g></g></g><g fill="#28ff0d" fill-opacity="1"><g transform="translate(101.976815, 25.251833)"><g><path d="M 4.09375 0 L 4.09375 -19.34375 L 0.484375 -19.34375 L 0.484375 -22.796875 L 11.3125 -22.796875 L 11.3125 -19.34375 L 7.703125 -19.34375 L 7.703125 0 Z M 4.09375 0 "/></g></g></g></svg>