<svg xmlns="http://www.w3.org/2000/svg" xmlns:xlink="http://www.w3.org/1999/xlink" width="180" zoomAndPan="magnify" viewBox="0 0 135 30.000001" height="40" preserveAspectRatio="xMidYMid meet" version="1.0"><defs><g/></defs><g fill="#2fdfdf" fill-opacity="1"><g transform="translate(20.447636, 22.986054)"><g><path d="M 22.5625 -9.78125 C 22.957031 -9.78125 23.15625 -9.578125 23.15625 -9.171875 C 23.15625 -8.523438 22.726562 -7.613281 21.875 -6.4375 C 21.289062 -5.625 20.078125 -4.488281 18.234375 -3.03125 C 16.035156 -1.3125 14.269531 -0.453125 12.9375 -0.453125 C 11.9375 -0.453125 11.175781 -0.875 10.65625 -1.71875 C 10.351562 -2.226562 10.101562 -2.976562 9.90625 -3.96875 L 8.734375 -3.125 C 5.492188 -0.882812 3.078125 0.234375 1.484375 0.234375 C 0.148438 0.234375 -0.914062 -0.25 -1.71875 -1.21875 C -2.425781 -2.09375 -2.78125 -3.140625 -2.78125 -4.359375 C -2.78125 -5.691406 -2.320312 -6.75 -1.40625 -7.53125 C 0.46875 -9.09375 2.789062 -10.382812 5.5625 -11.40625 C 6.695312 -11.820312 7.410156 -12.03125 7.703125 -12.03125 C 8.003906 -12.03125 8.28125 -11.976562 8.53125 -11.875 C 8.789062 -11.769531 9.039062 -11.640625 9.28125 -11.484375 C 9.863281 -11.085938 10.15625 -10.703125 10.15625 -10.328125 C 10.15625 -10.023438 9.972656 -9.785156 9.609375 -9.609375 C 9.492188 -9.546875 9.296875 -9.457031 9.015625 -9.34375 C 8.742188 -9.238281 8.410156 -9.097656 8.015625 -8.921875 C 6.953125 -8.410156 5.910156 -7.800781 4.890625 -7.09375 C 4.171875 -6.476562 3.8125 -5.984375 3.8125 -5.609375 C 3.8125 -5.242188 4.066406 -5.0625 4.578125 -5.0625 C 5.003906 -5.0625 5.851562 -5.4375 7.125 -6.1875 C 7.125 -6.1875 7.492188 -6.414062 8.234375 -6.875 C 9.046875 -7.382812 9.691406 -7.84375 10.171875 -8.25 C 10.171875 -8.25 10.375 -8.910156 10.78125 -10.234375 C 11.53125 -12.597656 12.363281 -14.550781 13.28125 -16.09375 C 14.90625 -19.207031 16.535156 -20.765625 18.171875 -20.765625 C 18.773438 -20.765625 19.253906 -20.65625 19.609375 -20.4375 C 20.242188 -20.039062 20.5625 -19.601562 20.5625 -19.125 C 20.5625 -18.644531 20.472656 -18.132812 20.296875 -17.59375 C 20.117188 -17.050781 19.882812 -16.515625 19.59375 -15.984375 C 19.3125 -15.460938 18.984375 -14.941406 18.609375 -14.421875 L 16.34375 -11.4375 C 15.96875 -10.945312 15.632812 -10.472656 15.34375 -10.015625 C 14.832031 -8.910156 14.578125 -7.96875 14.578125 -7.1875 C 14.578125 -6.050781 14.988281 -5.484375 15.8125 -5.484375 C 16.28125 -5.484375 17.117188 -5.972656 18.328125 -6.953125 L 19.890625 -8.28125 C 20.628906 -8.9375 21.351562 -9.394531 22.0625 -9.65625 C 22.269531 -9.738281 22.4375 -9.78125 22.5625 -9.78125 Z M 22.5625 -9.78125 "/></g></g></g><g fill="#2fdfdf" fill-opacity="1"><g transform="translate(40.14439, 22.986054)"><g><path d="M -0.71875 -4.359375 C -0.882812 -4.359375 -1.046875 -4.398438 -1.203125 -4.484375 C -1.367188 -4.566406 -1.523438 -4.695312 -1.671875 -4.875 C -1.972656 -5.257812 -2.125 -5.785156 -2.125 -6.453125 C -2.125 -7.171875 -1.695312 -8.0625 -0.84375 -9.125 C -0.0195312 -10.15625 0.941406 -11.046875 2.046875 -11.796875 C 3.234375 -12.609375 4.25 -13.015625 5.09375 -13.015625 C 5.84375 -13.015625 6.347656 -12.800781 6.609375 -12.375 L 6.796875 -12.09375 C 6.941406 -11.875 7.082031 -11.765625 7.21875 -11.765625 C 7.363281 -11.765625 7.585938 -11.773438 7.890625 -11.796875 L 9.765625 -11.9375 C 10.054688 -11.957031 10.285156 -11.96875 10.453125 -11.96875 C 10.617188 -11.96875 10.804688 -11.90625 11.015625 -11.78125 C 11.234375 -11.664062 11.429688 -11.515625 11.609375 -11.328125 C 11.972656 -10.878906 12.15625 -10.394531 12.15625 -9.875 C 12.15625 -9.320312 11.550781 -8.460938 10.34375 -7.296875 L 9.46875 -6.421875 C 8.84375 -5.773438 8.53125 -5.367188 8.53125 -5.203125 C 8.53125 -5.035156 8.609375 -4.882812 8.765625 -4.75 C 8.929688 -4.625 9.101562 -4.5625 9.28125 -4.5625 C 9.46875 -4.5625 9.675781 -4.613281 9.90625 -4.71875 C 10.144531 -4.820312 10.4375 -4.972656 10.78125 -5.171875 C 11.125 -5.367188 11.515625 -5.609375 11.953125 -5.890625 C 13.160156 -6.679688 13.96875 -7.226562 14.375 -7.53125 L 15.484375 -8.3125 C 16.234375 -8.84375 16.765625 -9.109375 17.078125 -9.109375 C 17.398438 -9.109375 17.660156 -9.035156 17.859375 -8.890625 C 18.054688 -8.753906 18.15625 -8.519531 18.15625 -8.1875 C 18.15625 -7.851562 17.984375 -7.40625 17.640625 -6.84375 C 17.296875 -6.28125 16.921875 -5.789062 16.515625 -5.375 C 16.117188 -4.957031 15.734375 -4.570312 15.359375 -4.21875 C 14.984375 -3.863281 14.535156 -3.476562 14.015625 -3.0625 C 13.503906 -2.65625 12.929688 -2.242188 12.296875 -1.828125 C 11.671875 -1.410156 11.007812 -1.035156 10.3125 -0.703125 C 8.738281 0.0664062 7.289062 0.453125 5.96875 0.453125 C 4.03125 0.453125 2.851562 -0.046875 2.4375 -1.046875 C 2.300781 -1.347656 2.234375 -1.679688 2.234375 -2.046875 C 2.234375 -2.421875 2.300781 -2.820312 2.4375 -3.25 C 2.582031 -3.675781 2.769531 -4.101562 3 -4.53125 C 3.457031 -5.363281 4 -6.101562 4.625 -6.75 C 5.15625 -7.300781 5.421875 -7.628906 5.421875 -7.734375 C 5.421875 -7.898438 5.328125 -8.003906 5.140625 -8.046875 C 4.953125 -8.097656 4.671875 -8.125 4.296875 -8.125 C 4.140625 -8.125 3.800781 -7.894531 3.28125 -7.4375 L 1.984375 -6.25 C 0.609375 -4.988281 -0.289062 -4.359375 -0.71875 -4.359375 Z M -0.71875 -4.359375 "/></g></g></g><g fill="#2fdfdf" fill-opacity="1"><g transform="translate(55.343682, 22.986054)"><g><path d="M 18.296875 -9.71875 C 18.722656 -9.71875 18.9375 -9.484375 18.9375 -9.015625 C 18.9375 -8.691406 18.828125 -8.289062 18.609375 -7.8125 C 18.390625 -7.332031 18.078125 -6.878906 17.671875 -6.453125 C 17.265625 -6.035156 16.796875 -5.601562 16.265625 -5.15625 C 15.742188 -4.707031 15.132812 -4.234375 14.4375 -3.734375 C 13.738281 -3.242188 12.960938 -2.753906 12.109375 -2.265625 C 11.265625 -1.785156 10.367188 -1.351562 9.421875 -0.96875 C 7.304688 -0.101562 5.265625 0.328125 3.296875 0.328125 C 1.785156 0.328125 0.46875 -0.0625 -0.65625 -0.84375 C -1.84375 -1.664062 -2.4375 -2.664062 -2.4375 -3.84375 C -2.4375 -5.675781 -1.441406 -7.425781 0.546875 -9.09375 C 2.253906 -10.519531 4.269531 -11.625 6.59375 -12.40625 C 8 -12.882812 9.191406 -13.125 10.171875 -13.125 C 10.960938 -13.125 11.632812 -12.929688 12.1875 -12.546875 C 12.769531 -12.117188 13.0625 -11.546875 13.0625 -10.828125 C 13.0625 -9.710938 12.171875 -8.476562 10.390625 -7.125 C 10.109375 -6.894531 9.851562 -6.707031 9.625 -6.5625 L 9.15625 -6.25 C 8.269531 -5.625 6.929688 -4.929688 5.140625 -4.171875 C 5.691406 -3.878906 6.207031 -3.734375 6.6875 -3.734375 C 7.164062 -3.734375 7.597656 -3.789062 7.984375 -3.90625 C 8.367188 -4.019531 8.800781 -4.179688 9.28125 -4.390625 C 9.769531 -4.597656 10.289062 -4.847656 10.84375 -5.140625 C 11.394531 -5.441406 11.953125 -5.769531 12.515625 -6.125 C 13.773438 -6.90625 14.867188 -7.707031 15.796875 -8.53125 C 16.285156 -8.976562 16.898438 -9.335938 17.640625 -9.609375 C 17.890625 -9.679688 18.109375 -9.71875 18.296875 -9.71875 Z M 3.703125 -6 L 4.4375 -6.375 C 4.664062 -6.5 4.875 -6.613281 5.0625 -6.71875 C 6.84375 -7.738281 7.859375 -8.367188 8.109375 -8.609375 C 8.359375 -8.847656 8.484375 -9.015625 8.484375 -9.109375 C 8.484375 -9.203125 8.457031 -9.3125 8.40625 -9.4375 C 8.351562 -9.5625 8.28125 -9.671875 8.1875 -9.765625 C 7.976562 -10.015625 7.753906 -10.140625 7.515625 -10.140625 C 7.273438 -10.140625 7.007812 -10.09375 6.71875 -10 C 6.4375 -9.914062 6.148438 -9.796875 5.859375 -9.640625 C 5.566406 -9.484375 5.285156 -9.296875 5.015625 -9.078125 C 4.742188 -8.867188 4.507812 -8.640625 4.3125 -8.390625 C 3.84375 -7.828125 3.609375 -7.34375 3.609375 -6.9375 C 3.609375 -6.539062 3.640625 -6.226562 3.703125 -6 Z M 3.703125 -6 "/></g></g></g><g fill="#2fdfdf" fill-opacity="1"><g transform="translate(70.542971, 22.986054)"><g><path d="M 22.984375 -9.9375 C 23.265625 -9.9375 23.40625 -9.695312 23.40625 -9.21875 C 23.40625 -8.394531 22.832031 -7.332031 21.6875 -6.03125 L 20.921875 -5.265625 C 18.640625 -2.984375 16.488281 -1.460938 14.46875 -0.703125 C 13.21875 -0.234375 12.320312 -0.253906 11.78125 -0.765625 C 11.320312 -1.203125 10.960938 -1.898438 10.703125 -2.859375 L 10.390625 -4.015625 L 7.5625 -2.28125 L 5.9375 -1.34375 C 4 -0.289062 2.546875 0.234375 1.578125 0.234375 C 0.328125 0.234375 -0.707031 -0.242188 -1.53125 -1.203125 C -2.320312 -2.109375 -2.71875 -3.160156 -2.71875 -4.359375 C -2.71875 -5.546875 -2.25 -6.601562 -1.3125 -7.53125 C 0.0390625 -8.851562 2.171875 -10.066406 5.078125 -11.171875 C 7.828125 -12.203125 10.050781 -12.71875 11.75 -12.71875 C 12.320312 -12.71875 12.609375 -12.429688 12.609375 -11.859375 C 12.609375 -11.472656 12.53125 -11.179688 12.375 -10.984375 C 12.226562 -10.796875 11.921875 -10.597656 11.453125 -10.390625 L 9.796875 -9.6875 C 7.316406 -8.65625 5.503906 -7.582031 4.359375 -6.46875 C 4.035156 -6.15625 3.875 -5.851562 3.875 -5.5625 C 3.875 -5.28125 4.109375 -5.140625 4.578125 -5.140625 C 5.035156 -5.140625 6.101562 -5.628906 7.78125 -6.609375 L 8.875 -7.265625 C 10.582031 -8.285156 12.007812 -8.796875 13.15625 -8.796875 C 14.125 -8.796875 14.765625 -8.367188 15.078125 -7.515625 C 15.160156 -7.285156 15.234375 -7.050781 15.296875 -6.8125 C 15.367188 -6.582031 15.441406 -6.375 15.515625 -6.1875 C 15.671875 -5.757812 15.8125 -5.546875 15.9375 -5.546875 C 16.070312 -5.546875 16.257812 -5.609375 16.5 -5.734375 C 16.738281 -5.859375 17 -6.019531 17.28125 -6.21875 C 17.570312 -6.414062 17.867188 -6.632812 18.171875 -6.875 L 19.78125 -8.15625 C 21.195312 -9.34375 22.265625 -9.9375 22.984375 -9.9375 Z M 22.984375 -9.9375 "/></g></g></g><g fill="#2fdfdf" fill-opacity="1"><g transform="translate(90.239728, 22.986054)"><g><path d="M 25.109375 -7.25 C 25.109375 -5.957031 25.515625 -5.3125 26.328125 -5.3125 C 26.890625 -5.3125 27.863281 -5.800781 29.25 -6.78125 C 30.5 -7.707031 31.242188 -8.289062 31.484375 -8.53125 C 32.035156 -8.988281 32.609375 -9.21875 33.203125 -9.21875 C 33.460938 -9.21875 33.679688 -9.128906 33.859375 -8.953125 C 34.035156 -8.785156 34.125 -8.53125 34.125 -8.1875 C 34.125 -7.84375 34.039062 -7.53125 33.875 -7.25 C 33.707031 -6.96875 33.492188 -6.675781 33.234375 -6.375 C 32.972656 -6.070312 32.648438 -5.734375 32.265625 -5.359375 C 31.890625 -4.992188 31.453125 -4.601562 30.953125 -4.1875 C 30.460938 -3.78125 29.921875 -3.375 29.328125 -2.96875 C 28.742188 -2.570312 28.140625 -2.207031 27.515625 -1.875 C 26.109375 -1.15625 24.832031 -0.796875 23.6875 -0.796875 C 22.382812 -0.796875 21.5 -1.382812 21.03125 -2.5625 C 20.757812 -3.238281 20.625 -4.054688 20.625 -5.015625 L 16.78125 -2.40625 C 14.132812 -0.550781 12.5625 0.429688 12.0625 0.546875 C 11.8125 0.609375 11.554688 0.640625 11.296875 0.640625 C 11.035156 0.640625 10.789062 0.613281 10.5625 0.5625 C 10.332031 0.507812 10.128906 0.425781 9.953125 0.3125 C 9.546875 0.0703125 9.34375 -0.273438 9.34375 -0.734375 C 9.34375 -0.921875 9.460938 -1.375 9.703125 -2.09375 L 10.84375 -5.21875 C 11.195312 -6.21875 11.375 -6.820312 11.375 -7.03125 C 11.375 -7.09375 11.328125 -7.125 11.234375 -7.125 C 11.148438 -7.125 10.988281 -7.03125 10.75 -6.84375 C 10.507812 -6.664062 10.222656 -6.429688 9.890625 -6.140625 L 6.75 -3.390625 L 5.09375 -2.015625 C 3.394531 -0.660156 2.015625 0.015625 0.953125 0.015625 C 0.453125 0.015625 -0.0507812 -0.207031 -0.5625 -0.65625 C -1.125 -1.132812 -1.40625 -1.707031 -1.40625 -2.375 C -1.40625 -3.050781 -1.335938 -3.785156 -1.203125 -4.578125 C -1.078125 -5.367188 -0.894531 -6.132812 -0.65625 -6.875 C -0.414062 -7.613281 -0.125 -8.304688 0.21875 -8.953125 C 0.570312 -9.597656 0.972656 -10.160156 1.421875 -10.640625 C 2.398438 -11.679688 3.546875 -12.203125 4.859375 -12.203125 C 6.179688 -12.203125 6.84375 -11.8125 6.84375 -11.03125 C 6.84375 -10.695312 6.660156 -10.1875 6.296875 -9.5 C 5.523438 -7.976562 5.140625 -7.15625 5.140625 -7.03125 C 5.140625 -6.914062 5.175781 -6.828125 5.25 -6.765625 C 5.332031 -6.703125 5.414062 -6.671875 5.5 -6.671875 C 5.6875 -6.671875 5.953125 -6.820312 6.296875 -7.125 C 8.566406 -9.101562 9.992188 -10.328125 10.578125 -10.796875 C 11.160156 -11.273438 11.726562 -11.695312 12.28125 -12.0625 C 13.53125 -12.882812 14.523438 -13.296875 15.265625 -13.296875 C 15.867188 -13.296875 16.363281 -13.195312 16.75 -13 C 17.40625 -12.65625 17.734375 -12.265625 17.734375 -11.828125 C 17.734375 -11.398438 17.675781 -10.910156 17.5625 -10.359375 C 17.445312 -9.816406 17.316406 -9.289062 17.171875 -8.78125 L 16.78125 -7.4375 C 16.65625 -7.050781 16.59375 -6.753906 16.59375 -6.546875 C 16.59375 -6.335938 16.679688 -6.234375 16.859375 -6.234375 C 17.273438 -6.234375 18.113281 -6.832031 19.375 -8.03125 L 20.671875 -9.234375 C 22.140625 -10.554688 23.253906 -11.21875 24.015625 -11.21875 C 24.367188 -11.21875 24.691406 -11.078125 24.984375 -10.796875 C 25.472656 -10.296875 25.71875 -9.863281 25.71875 -9.5 C 25.71875 -9.289062 25.644531 -9.015625 25.5 -8.671875 C 25.238281 -8.035156 25.109375 -7.5625 25.109375 -7.25 Z M 25.109375 -7.25 "/></g></g></g><path stroke-linecap="butt" transform="matrix(0.183083, 0, 0, 0.183083, 12.485739, 1.013735)" fill="none" stroke-linejoin="miter" d="M 160.289344 65.596951 C 162.444272 65.596951 163.532405 66.706419 163.532405 68.925355 C 163.532405 72.445783 161.228125 77.417053 156.598229 83.81783 C 153.376505 88.298374 146.719697 94.507128 136.649141 102.444092 C 124.658352 111.853234 115.03585 116.547137 107.7603 116.547137 C 102.255632 116.547137 98.116462 114.221521 95.321456 109.612962 C 93.635918 106.817956 92.270419 102.721459 91.203623 97.32347 L 84.78151 101.953365 C 67.094029 114.17885 53.908429 120.30226 45.182036 120.30226 C 37.906486 120.30226 32.081779 117.656605 27.707914 112.34396 C 23.846112 107.586049 21.925879 101.868022 21.925879 95.232549 C 21.925879 87.914327 24.422182 82.132292 29.436124 77.886443 C 39.656032 69.309402 52.32957 62.268547 67.520748 56.721207 C 73.68683 54.459599 77.569968 53.328795 79.212834 53.328795 C 80.8557 53.328795 82.349215 53.606162 83.73605 54.160896 C 85.101549 54.71563 86.467048 55.419716 87.811211 56.294489 C 90.990264 58.449417 92.590458 60.540337 92.590458 62.56725 C 92.590458 64.210116 91.566334 65.532944 89.539421 66.535732 C 88.920679 66.877107 87.853883 67.346497 86.360369 67.922567 C 84.866854 68.498637 83.0533 69.288066 80.877036 70.31219 C 75.052329 73.043189 69.355637 76.371593 63.829633 80.276067 C 59.882487 83.647143 57.898246 86.335469 57.898246 88.31971 C 57.898246 90.325287 59.306417 91.328075 62.101423 91.328075 C 64.405703 91.328075 69.035598 89.279827 75.969774 85.183329 C 75.969774 85.183329 78.018022 83.92451 82.11452 81.428207 C 86.488384 78.675873 90.008811 76.179569 92.654466 73.917962 C 92.654466 73.917962 93.763934 70.31219 95.98287 63.079312 C 100.079367 50.171078 104.623919 39.503117 109.637861 31.075427 C 118.49227 14.070696 127.410686 5.557662 136.371774 5.557662 C 139.63617 5.557662 142.239153 6.176404 144.159386 7.371216 C 147.637141 9.54748 149.365351 11.937103 149.365351 14.561422 C 149.365351 17.18574 148.895961 19.959411 147.935844 22.903768 C 146.954392 25.848125 145.695572 28.749811 144.13805 31.651497 C 142.559192 34.531846 140.766974 37.412196 138.761397 40.249874 L 126.386561 56.571856 C 124.316977 59.21751 122.503423 61.799157 120.903229 64.29546 C 118.108223 70.333526 116.721388 75.475484 116.721388 79.764005 C 116.721388 85.930087 118.96166 89.023796 123.442204 89.023796 C 125.981179 89.023796 130.589738 86.335469 137.225211 81.001488 L 145.75958 73.76861 C 149.749398 70.205511 153.696544 67.709208 157.601018 66.258365 C 158.710486 65.831646 159.606595 65.596951 160.289344 65.596951 Z M 140.766974 95.147206 C 139.870865 95.147206 138.95342 94.933846 138.057312 94.507128 C 137.182539 94.080409 136.350438 93.376324 135.582344 92.416207 C 133.896807 90.282615 133.04337 87.402265 133.04337 83.732486 C 133.04337 79.849348 135.390321 74.984758 140.062888 69.138715 C 144.586104 63.506031 149.856077 58.64144 155.872808 54.544943 C 162.337593 50.128407 167.863597 47.909471 172.493492 47.909471 C 176.58999 47.909471 179.36366 49.06161 180.793167 51.36589 L 181.817291 52.966084 C 182.585384 54.160896 183.353478 54.758302 184.121571 54.758302 C 184.889664 54.758302 186.105812 54.694294 187.748678 54.544943 L 197.989921 53.819521 C 199.590116 53.691506 200.848935 53.606162 201.745044 53.606162 C 202.662489 53.606162 203.707949 53.947537 204.902761 54.587615 C 206.076236 55.249028 207.121697 56.102465 208.039141 57.147926 C 210.066054 59.558885 211.068842 62.204539 211.068842 65.106225 C 211.068842 68.093254 207.78311 72.787158 201.168974 79.187935 L 196.411063 83.967182 C 192.997315 87.466273 191.269105 89.685209 191.269105 90.602654 C 191.269105 91.520099 191.71716 92.330864 192.570597 93.034949 C 193.44537 93.717699 194.38415 94.080409 195.386939 94.080409 C 196.411063 94.080409 197.563203 93.803042 198.822022 93.248308 C 200.102178 92.693574 201.681036 91.861473 203.558597 90.794677 C 205.436159 89.706545 207.591087 88.383718 210.002046 86.847531 C 216.594847 82.516339 220.990047 79.529309 223.208983 77.886443 L 229.204378 73.619259 C 233.300875 70.738909 236.223897 69.288066 237.952106 69.288066 C 239.680316 69.288066 241.109823 69.672113 242.219291 70.41887 C 243.328759 71.165627 243.883493 72.445783 243.883493 74.280672 C 243.883493 76.115562 242.944712 78.569193 241.067151 81.641566 C 239.18959 84.735275 237.141341 87.402265 234.965077 89.663873 C 232.767477 91.925481 230.633885 94.016402 228.5643 95.957971 C 226.494715 97.878204 224.041084 99.969124 221.224742 102.209396 C 218.4084 104.449668 215.293355 106.711276 211.879608 108.99422 C 208.444524 111.277164 204.838753 113.346749 201.040958 115.160302 C 192.421245 119.363479 184.484282 121.4544 177.272739 121.4544 C 166.711457 121.4544 160.289344 118.744737 157.963728 113.282741 C 157.259643 111.661211 156.896932 109.826321 156.896932 107.799408 C 156.896932 105.772496 157.280979 103.596231 158.049072 101.270616 C 158.817165 98.923664 159.819954 96.598048 161.078773 94.293769 C 163.575076 89.706545 166.54077 85.674055 169.975853 82.153628 C 172.856203 79.123927 174.307046 77.310373 174.307046 76.734303 C 174.307046 75.816859 173.773648 75.240789 172.749524 75.006094 C 171.704063 74.750063 170.189213 74.643383 168.1623 74.643383 C 167.287527 74.643383 165.431302 75.880867 162.593624 78.398506 L 155.510097 84.905962 C 147.999852 91.733458 143.09259 95.147206 140.766974 95.147206 Z M 327.626994 65.895654 C 329.931273 65.895654 331.083413 67.197146 331.083413 69.800128 C 331.083413 71.528338 330.507343 73.704602 329.312532 76.328921 C 328.139056 78.95324 326.432182 81.406871 324.213246 83.711151 C 322.015646 85.994094 319.476671 88.362382 316.596321 90.816013 C 313.737307 93.269644 310.387567 95.851291 306.568437 98.560953 C 302.727971 101.24928 298.503458 103.91627 293.873562 106.583261 C 289.243667 109.228915 284.336404 111.597203 279.130439 113.730795 C 267.630376 118.446034 256.471688 120.814322 245.675711 120.814322 C 237.440044 120.814322 230.249838 118.659394 224.083756 114.370873 C 217.618971 109.890329 214.397247 104.449668 214.397247 98.048891 C 214.397247 87.978335 219.816571 78.419841 230.65522 69.37341 C 240.000355 61.564462 251.009692 55.505059 263.68323 51.237875 C 271.385499 48.634892 277.914291 47.333401 283.248272 47.333401 C 287.600801 47.333401 291.249244 48.378861 294.236273 50.512453 C 297.415326 52.816733 299.01552 55.931778 299.01552 59.836252 C 299.01552 65.938326 294.172265 72.701814 284.485756 80.126715 C 282.949569 81.342863 281.541398 82.345651 280.303915 83.156416 L 277.700932 84.905962 C 272.879013 88.277038 265.560792 92.053497 255.724931 96.235338 C 258.754632 97.835532 261.59231 98.624961 264.216628 98.624961 C 266.840947 98.624961 269.209235 98.304922 271.300155 97.686181 C 273.391076 97.067439 275.759363 96.17133 278.426354 95.01919 C 281.072008 93.86705 283.88835 92.480215 286.896715 90.858685 C 289.926416 89.237155 292.956118 87.466273 296.049827 85.54604 C 302.94133 81.257519 308.915389 76.883655 313.972002 72.403111 C 316.617657 69.94948 319.988733 67.986575 324.08523 66.535732 C 325.429393 66.109013 326.602869 65.895654 327.626994 65.895654 Z M 247.915983 86.207454 L 251.9058 84.180541 C 253.207292 83.497791 254.359432 82.879049 255.36222 82.30298 C 265.091401 76.712968 270.638741 73.256548 271.982905 71.955057 C 273.327068 70.653565 274.009817 69.757456 274.009817 69.245394 C 274.009817 68.754668 273.860466 68.157262 273.583099 67.474513 C 273.284396 66.813099 272.900349 66.215693 272.409623 65.682295 C 271.257483 64.338132 270.041336 63.655382 268.739844 63.655382 C 267.438353 63.655382 266.008846 63.890077 264.429988 64.380804 C 262.872465 64.850194 261.293607 65.511608 259.693413 66.365045 C 258.114554 67.218481 256.578368 68.22127 255.106189 69.394746 C 253.655346 70.589557 252.353855 71.848377 251.244387 73.19254 C 248.705412 76.222241 247.425256 78.84656 247.425256 81.065496 C 247.425256 83.284432 247.595944 84.991306 247.915983 86.207454 Z M 436.205509 64.743514 C 437.763032 64.743514 438.531125 66.045006 438.531125 68.647988 C 438.531125 73.128532 435.394744 78.931904 429.143319 86.058102 L 425.025485 90.239943 C 412.54397 102.721459 400.787876 111.021133 389.757203 115.160302 C 382.908372 117.720613 378.001109 117.592597 375.01408 114.818927 C 372.560449 112.45064 370.61888 108.652845 369.168037 103.404208 L 367.439827 97.110111 L 352.03529 106.583261 L 343.159546 111.639875 C 332.555592 117.400574 324.618628 120.30226 319.305983 120.30226 C 312.52116 120.30226 306.86714 117.677941 302.322588 112.429304 C 297.991396 107.458034 295.836467 101.697334 295.836467 95.147206 C 295.836467 88.703757 298.418114 82.943057 303.560072 77.886443 C 310.920965 70.653565 322.57038 64.039429 338.465643 58.022698 C 353.486133 52.390015 365.626274 49.573673 374.864729 49.573673 C 378.001109 49.573673 379.579968 51.109859 379.579968 54.182232 C 379.579968 56.315824 379.153249 57.894683 378.342484 58.961479 C 377.531719 60.028275 375.846181 61.095071 373.28587 62.204539 L 364.175431 66.109013 C 350.691127 71.741697 340.812594 77.609076 334.561169 83.668479 C 332.768951 85.354017 331.894178 86.996883 331.894178 88.575741 C 331.894178 90.175935 333.152998 90.965365 335.713309 90.965365 C 338.209612 90.965365 344.055655 88.277038 353.18743 82.879049 L 359.204161 79.337286 C 368.485288 73.747274 376.2729 70.952268 382.524325 70.952268 C 387.83697 70.952268 391.336062 73.29922 393.085608 77.971787 C 393.512326 79.209271 393.917709 80.46809 394.301755 81.748246 C 394.685802 83.028401 395.069848 84.180541 395.475231 85.183329 C 396.328668 87.551617 397.118097 88.725093 397.822183 88.725093 C 398.504932 88.725093 399.507721 88.383718 400.809212 87.679632 C 402.110703 86.975547 403.54021 86.079438 405.119068 85.012642 C 406.676591 83.92451 408.298121 82.729698 409.983659 81.428207 L 418.731388 74.430024 C 426.476328 67.965239 432.322371 64.743514 436.205509 64.743514 Z M 555.430651 79.401294 C 555.430651 86.484821 557.649587 90.026584 562.087459 90.026584 C 565.159832 90.026584 570.472477 87.338258 578.04673 81.940269 C 584.874226 76.883655 588.949387 73.704602 590.250878 72.403111 C 593.237908 69.885472 596.374288 68.647988 599.638685 68.647988 C 601.046856 68.647988 602.241667 69.117379 603.22312 70.056159 C 604.204572 70.99494 604.695299 72.403111 604.695299 74.280672 C 604.695299 76.158234 604.247244 77.865107 603.3298 79.401294 C 602.412355 80.93748 601.238879 82.537675 599.830708 84.180541 C 598.401201 85.802071 596.651655 87.63696 594.560735 89.663873 C 592.448479 91.690786 590.058855 93.824378 587.370529 96.06465 C 584.660866 98.304922 581.716509 100.523858 578.51612 102.742794 C 575.315732 104.961731 572.008664 106.967307 568.57358 108.738189 C 560.871311 112.685335 553.9158 114.669576 547.707047 114.669576 C 540.580848 114.669576 535.737593 111.447851 533.177282 104.983066 C 531.683768 101.270616 530.937011 96.811408 530.937011 91.626778 L 509.921126 105.857839 C 495.519377 115.971067 486.942336 121.326384 484.190002 121.966462 C 482.803167 122.307836 481.394996 122.478524 479.965489 122.478524 C 478.535982 122.478524 477.213155 122.329172 475.954335 122.073141 C 474.695516 121.795774 473.586048 121.369056 472.625931 120.728978 C 470.406995 119.427487 469.297527 117.507254 469.297527 114.946943 C 469.297527 113.944154 469.980277 111.490523 471.32444 107.586049 L 477.533193 90.538646 C 479.474763 85.033978 480.434879 81.748246 480.434879 80.638777 C 480.434879 80.254731 480.200184 80.062708 479.709458 80.062708 C 479.240067 80.062708 478.343959 80.553434 477.042467 81.577558 C 475.740976 82.580347 474.162118 83.881838 472.348564 85.482032 L 455.15181 100.502522 L 446.105378 108.012768 C 436.866923 115.394997 429.335342 119.064776 423.510635 119.064776 C 420.758301 119.064776 417.98463 117.848628 415.189624 115.394997 C 412.159923 112.792014 410.645073 109.655634 410.645073 105.985855 C 410.645073 102.337412 410.986448 98.326258 411.690533 93.995066 C 412.394618 89.663873 413.376071 85.482032 414.677562 81.470879 C 415.979054 77.438389 417.600584 73.66193 419.520817 70.120167 C 421.462386 66.578404 423.63865 63.506031 426.092281 60.903048 C 431.404926 55.227692 437.656352 52.390015 444.846558 52.390015 C 452.058101 52.390015 455.642536 54.502271 455.642536 58.74812 C 455.642536 60.583009 454.661083 63.356679 452.698178 67.133138 C 448.495001 75.411476 446.404081 79.870684 446.404081 80.532098 C 446.404081 81.172176 446.61744 81.684238 447.022823 82.046948 C 447.428205 82.409659 447.87626 82.580347 448.34565 82.580347 C 449.369774 82.580347 450.820617 81.769581 452.698178 80.126715 C 465.073014 69.288066 472.860626 62.56725 476.061015 59.964267 C 479.261403 57.361285 482.355112 55.078341 485.342142 53.115436 C 492.190973 48.634892 497.631634 46.39462 501.685459 46.39462 C 504.992527 46.39462 507.70219 46.928018 509.771774 47.973478 C 513.377545 49.85104 515.191099 51.984632 515.191099 54.331584 C 515.191099 56.699871 514.87106 59.366862 514.209646 62.353891 C 513.569569 65.34092 512.844147 68.22127 512.076054 71.016276 L 509.921126 78.398506 C 509.238376 80.510762 508.897001 82.132292 508.897001 83.263096 C 508.897001 84.3939 509.387728 84.96997 510.347844 84.96997 C 512.652124 84.96997 517.260683 81.684238 524.152187 75.134109 L 531.15037 68.562645 C 539.194013 61.351102 545.296087 57.723995 549.435256 57.723995 C 551.398161 57.723995 553.169043 58.492089 554.705229 60.049611 C 557.414892 62.737938 558.759055 65.106225 558.759055 67.133138 C 558.759055 68.22127 558.375008 69.714785 557.606915 71.613682 C 556.156072 75.112773 555.430651 77.715756 555.430651 79.401294 Z M 555.430651 79.401294 " stroke="#2fdfdf" stroke-width="1.387244" stroke-opacity="1" stroke-miterlimit="4"/></svg>