<svg xmlns="http://www.w3.org/2000/svg" xmlns:xlink="http://www.w3.org/1999/xlink" width="180" zoomAndPan="magnify" viewBox="0 0 135 30.000001" height="40" preserveAspectRatio="xMidYMid meet" version="1.0"><defs><g/></defs><g fill="#ffffff" fill-opacity="1"><g transform="translate(13.686333, 15.315673)"><g><path d="M 12.671875 -10.5625 C 12.773438 -10.5625 12.828125 -10.617188 12.828125 -10.734375 L 12.828125 -11.453125 C 12.828125 -11.554688 12.773438 -11.609375 12.671875 -11.609375 L 10.640625 -11.609375 C 10.523438 -11.609375 10.46875 -11.554688 10.46875 -11.453125 L 10.46875 -10.734375 C 10.46875 -10.617188 10.523438 -10.5625 10.640625 -10.5625 Z M 12.671875 -8.6875 C 12.773438 -8.6875 12.828125 -8.738281 12.828125 -8.84375 L 12.828125 -9.609375 C 12.828125 -9.710938 12.773438 -9.765625 12.671875 -9.765625 L 10.640625 -9.765625 C 10.523438 -9.765625 10.46875 -9.710938 10.46875 -9.609375 L 10.46875 -8.84375 C 10.46875 -8.738281 10.523438 -8.6875 10.640625 -8.6875 Z M 3.6875 -9.765625 C 3.582031 -9.765625 3.53125 -9.710938 3.53125 -9.609375 L 3.53125 -8.84375 C 3.53125 -8.738281 3.582031 -8.6875 3.6875 -8.6875 L 5.59375 -8.6875 C 5.707031 -8.6875 5.765625 -8.738281 5.765625 -8.84375 L 5.765625 -9.609375 C 5.765625 -9.710938 5.707031 -9.765625 5.59375 -9.765625 Z M 3.6875 -11.609375 C 3.582031 -11.609375 3.53125 -11.554688 3.53125 -11.453125 L 3.53125 -10.734375 C 3.53125 -10.617188 3.582031 -10.5625 3.6875 -10.5625 L 5.59375 -10.5625 C 5.707031 -10.5625 5.765625 -10.617188 5.765625 -10.734375 L 5.765625 -11.453125 C 5.765625 -11.554688 5.707031 -11.609375 5.59375 -11.609375 Z M 9.28125 -9.609375 C 9.28125 -9.710938 9.226562 -9.765625 9.125 -9.765625 L 7.078125 -9.765625 C 6.972656 -9.765625 6.921875 -9.710938 6.921875 -9.609375 L 6.921875 -8.84375 C 6.921875 -8.738281 6.972656 -8.6875 7.078125 -8.6875 L 9.125 -8.6875 C 9.226562 -8.6875 9.28125 -8.738281 9.28125 -8.84375 Z M 9.28125 -11.453125 C 9.28125 -11.554688 9.226562 -11.609375 9.125 -11.609375 L 7.078125 -11.609375 C 6.972656 -11.609375 6.921875 -11.554688 6.921875 -11.453125 L 6.921875 -10.734375 C 6.921875 -10.617188 6.972656 -10.5625 7.078125 -10.5625 L 9.125 -10.5625 C 9.226562 -10.5625 9.28125 -10.617188 9.28125 -10.734375 Z M 12.625 -12.421875 C 13.007812 -12.421875 13.332031 -12.285156 13.59375 -12.015625 C 13.863281 -11.742188 14 -11.421875 14 -11.046875 L 14 -9.234375 C 14 -8.859375 13.863281 -8.535156 13.59375 -8.265625 C 13.332031 -7.992188 13.007812 -7.859375 12.625 -7.859375 L 3.796875 -7.859375 C 3.421875 -7.859375 3.097656 -7.992188 2.828125 -8.265625 C 2.554688 -8.535156 2.421875 -8.859375 2.421875 -9.234375 L 2.421875 -11.046875 C 2.421875 -11.421875 2.554688 -11.742188 2.828125 -12.015625 C 3.097656 -12.285156 3.421875 -12.421875 3.796875 -12.421875 L 5.640625 -12.421875 C 5.722656 -12.421875 5.765625 -12.460938 5.765625 -12.546875 L 5.765625 -12.953125 C 5.765625 -13.117188 5.816406 -13.257812 5.921875 -13.375 C 6.035156 -13.488281 6.171875 -13.546875 6.328125 -13.546875 C 6.492188 -13.546875 6.632812 -13.488281 6.75 -13.375 C 6.863281 -13.257812 6.921875 -13.117188 6.921875 -12.953125 L 6.921875 -12.546875 C 6.921875 -12.460938 6.960938 -12.421875 7.046875 -12.421875 L 9.15625 -12.421875 C 9.238281 -12.421875 9.28125 -12.460938 9.28125 -12.546875 L 9.28125 -12.953125 C 9.28125 -13.117188 9.335938 -13.257812 9.453125 -13.375 C 9.578125 -13.488281 9.71875 -13.546875 9.875 -13.546875 C 10.039062 -13.546875 10.179688 -13.488281 10.296875 -13.375 C 10.410156 -13.257812 10.46875 -13.117188 10.46875 -12.953125 L 10.46875 -12.546875 C 10.46875 -12.460938 10.503906 -12.421875 10.578125 -12.421875 Z M 13.25 -2.640625 C 13.269531 -2.648438 13.273438 -2.664062 13.265625 -2.6875 C 13.265625 -2.707031 13.253906 -2.71875 13.234375 -2.71875 L 9.109375 -2.71875 C 9.078125 -2.71875 9.050781 -2.703125 9.03125 -2.671875 C 9.019531 -2.640625 9.023438 -2.613281 9.046875 -2.59375 C 9.398438 -2.15625 9.832031 -1.757812 10.34375 -1.40625 C 10.425781 -1.351562 10.523438 -1.347656 10.640625 -1.390625 C 11.597656 -1.773438 12.46875 -2.191406 13.25 -2.640625 Z M 13.671875 -2.71875 C 13.648438 -2.71875 13.632812 -2.707031 13.625 -2.6875 C 13.625 -2.675781 13.628906 -2.664062 13.640625 -2.65625 C 13.785156 -2.53125 13.859375 -2.382812 13.859375 -2.21875 C 13.859375 -2.1875 13.851562 -2.15625 13.84375 -2.125 C 13.820312 -1.90625 13.710938 -1.753906 13.515625 -1.671875 C 12.890625 -1.378906 12.238281 -1.117188 11.5625 -0.890625 C 11.539062 -0.878906 11.53125 -0.859375 11.53125 -0.828125 C 11.53125 -0.796875 11.539062 -0.773438 11.5625 -0.765625 C 12.476562 -0.359375 13.570312 -0.0664062 14.84375 0.109375 C 14.976562 0.117188 15.066406 0.1875 15.109375 0.3125 C 15.160156 0.4375 15.148438 0.554688 15.078125 0.671875 C 14.859375 0.984375 14.597656 1.140625 14.296875 1.140625 C 14.242188 1.140625 14.1875 1.132812 14.125 1.125 C 11.15625 0.59375 9.085938 -0.640625 7.921875 -2.578125 C 7.859375 -2.671875 7.78125 -2.71875 7.6875 -2.71875 L 6.140625 -2.71875 C 6.035156 -2.71875 5.984375 -2.664062 5.984375 -2.5625 L 5.984375 -0.453125 C 5.984375 -0.410156 6 -0.375 6.03125 -0.34375 C 6.0625 -0.320312 6.097656 -0.316406 6.140625 -0.328125 L 9 -0.6875 C 9.125 -0.707031 9.238281 -0.671875 9.34375 -0.578125 C 9.445312 -0.492188 9.503906 -0.382812 9.515625 -0.25 C 9.515625 -0.113281 9.46875 0.00390625 9.375 0.109375 C 9.28125 0.210938 9.171875 0.269531 9.046875 0.28125 C 6.984375 0.5625 5.328125 0.785156 4.078125 0.953125 C 3.929688 0.972656 3.800781 0.9375 3.6875 0.84375 C 3.570312 0.757812 3.503906 0.644531 3.484375 0.5 C 3.460938 0.351562 3.492188 0.222656 3.578125 0.109375 C 3.671875 0.00390625 3.785156 -0.0546875 3.921875 -0.078125 C 4.242188 -0.109375 4.488281 -0.132812 4.65625 -0.15625 C 4.75 -0.164062 4.796875 -0.21875 4.796875 -0.3125 L 4.796875 -2.5625 C 4.796875 -2.664062 4.742188 -2.71875 4.640625 -2.71875 L 3.390625 -2.71875 C 3.285156 -2.71875 3.222656 -2.664062 3.203125 -2.5625 C 2.972656 -1.1875 2.578125 -0.046875 2.015625 0.859375 C 1.929688 0.992188 1.804688 1.070312 1.640625 1.09375 C 1.472656 1.113281 1.328125 1.078125 1.203125 0.984375 C 1.066406 0.898438 0.984375 0.785156 0.953125 0.640625 C 0.941406 0.585938 0.9375 0.539062 0.9375 0.5 C 0.9375 0.394531 0.96875 0.296875 1.03125 0.203125 C 1.832031 -1.046875 2.234375 -2.789062 2.234375 -5.03125 L 2.234375 -5.734375 C 2.234375 -6.109375 2.363281 -6.429688 2.625 -6.703125 C 2.894531 -6.972656 3.222656 -7.109375 3.609375 -7.109375 L 14.40625 -7.109375 C 14.53125 -7.109375 14.632812 -7.054688 14.71875 -6.953125 C 14.8125 -6.859375 14.859375 -6.75 14.859375 -6.625 C 14.859375 -6.5 14.8125 -6.390625 14.71875 -6.296875 C 14.632812 -6.210938 14.53125 -6.171875 14.40625 -6.171875 L 3.546875 -6.171875 C 3.441406 -6.171875 3.390625 -6.117188 3.390625 -6.015625 L 3.390625 -5.015625 C 3.390625 -4.640625 3.378906 -4.234375 3.359375 -3.796875 C 3.347656 -3.753906 3.359375 -3.71875 3.390625 -3.6875 C 3.421875 -3.65625 3.457031 -3.640625 3.5 -3.640625 L 14.765625 -3.640625 C 14.890625 -3.640625 15 -3.59375 15.09375 -3.5 C 15.1875 -3.414062 15.234375 -3.304688 15.234375 -3.171875 C 15.234375 -3.046875 15.1875 -2.9375 15.09375 -2.84375 C 15 -2.757812 14.890625 -2.71875 14.765625 -2.71875 Z M 13.015625 -4.5 L 4.71875 -4.5 C 4.601562 -4.5 4.5 -4.535156 4.40625 -4.609375 C 4.320312 -4.691406 4.28125 -4.789062 4.28125 -4.90625 C 4.28125 -5.019531 4.320312 -5.117188 4.40625 -5.203125 C 4.5 -5.285156 4.601562 -5.328125 4.71875 -5.328125 L 13.015625 -5.328125 C 13.140625 -5.328125 13.242188 -5.285156 13.328125 -5.203125 C 13.410156 -5.117188 13.453125 -5.019531 13.453125 -4.90625 C 13.453125 -4.789062 13.410156 -4.691406 13.328125 -4.609375 C 13.242188 -4.535156 13.140625 -4.5 13.015625 -4.5 Z M 13.015625 -4.5 "/></g></g></g><g fill="#ffffff" fill-opacity="1"><g transform="translate(29.880889, 15.315673)"><g><path d="M 2.796875 -11 C 2.691406 -11 2.640625 -10.945312 2.640625 -10.84375 L 2.640625 -9.515625 C 2.640625 -9.335938 2.582031 -9.191406 2.46875 -9.078125 C 2.351562 -8.960938 2.210938 -8.90625 2.046875 -8.90625 C 1.878906 -8.90625 1.738281 -8.960938 1.625 -9.078125 C 1.507812 -9.191406 1.453125 -9.335938 1.453125 -9.515625 L 1.453125 -10.75 C 1.453125 -11.125 1.585938 -11.445312 1.859375 -11.71875 C 2.128906 -11.988281 2.453125 -12.125 2.828125 -12.125 L 7.328125 -12.125 C 7.421875 -12.125 7.46875 -12.171875 7.46875 -12.265625 L 7.46875 -12.9375 C 7.46875 -13.113281 7.523438 -13.257812 7.640625 -13.375 C 7.765625 -13.488281 7.910156 -13.546875 8.078125 -13.546875 C 8.242188 -13.546875 8.382812 -13.488281 8.5 -13.375 C 8.625 -13.257812 8.6875 -13.113281 8.6875 -12.9375 L 8.6875 -12.265625 C 8.6875 -12.171875 8.734375 -12.125 8.828125 -12.125 L 13.421875 -12.125 C 13.796875 -12.125 14.117188 -11.988281 14.390625 -11.71875 C 14.660156 -11.445312 14.796875 -11.125 14.796875 -10.75 L 14.796875 -9.53125 C 14.796875 -9.351562 14.734375 -9.203125 14.609375 -9.078125 C 14.492188 -8.960938 14.351562 -8.90625 14.1875 -8.90625 C 14.019531 -8.90625 13.875 -8.960938 13.75 -9.078125 C 13.632812 -9.203125 13.578125 -9.351562 13.578125 -9.53125 L 13.578125 -10.84375 C 13.578125 -10.945312 13.523438 -11 13.421875 -11 Z M 13.203125 -7.40625 C 13.335938 -7.519531 13.488281 -7.570312 13.65625 -7.5625 C 13.832031 -7.5625 13.984375 -7.503906 14.109375 -7.390625 C 14.222656 -7.285156 14.273438 -7.148438 14.265625 -6.984375 C 14.265625 -6.828125 14.203125 -6.703125 14.078125 -6.609375 C 13.179688 -5.921875 12.289062 -5.320312 11.40625 -4.8125 C 11.320312 -4.757812 11.304688 -4.6875 11.359375 -4.59375 C 12.304688 -3.132812 13.460938 -2.0625 14.828125 -1.375 C 14.960938 -1.300781 15.046875 -1.1875 15.078125 -1.03125 C 15.085938 -1 15.09375 -0.96875 15.09375 -0.9375 C 15.09375 -0.820312 15.050781 -0.710938 14.96875 -0.609375 C 14.851562 -0.453125 14.707031 -0.347656 14.53125 -0.296875 C 14.46875 -0.273438 14.40625 -0.265625 14.34375 -0.265625 C 14.21875 -0.265625 14.101562 -0.296875 14 -0.359375 C 11.476562 -1.796875 9.695312 -4.460938 8.65625 -8.359375 C 8.65625 -8.359375 8.648438 -8.359375 8.640625 -8.359375 C 8.640625 -8.359375 8.632812 -8.359375 8.625 -8.359375 C 8.144531 -7.953125 7.644531 -7.601562 7.125 -7.3125 C 7.09375 -7.289062 7.070312 -7.257812 7.0625 -7.21875 C 7.0625 -7.1875 7.078125 -7.15625 7.109375 -7.125 C 7.796875 -6.519531 8.347656 -5.8125 8.765625 -5 C 9.179688 -4.1875 9.429688 -3.414062 9.515625 -2.6875 C 9.546875 -2.425781 9.5625 -2.171875 9.5625 -1.921875 C 9.5625 -1.472656 9.507812 -1.054688 9.40625 -0.671875 C 9.25 -0.046875 8.984375 0.40625 8.609375 0.6875 C 8.347656 0.90625 8.085938 1.054688 7.828125 1.140625 C 7.566406 1.222656 7.238281 1.269531 6.84375 1.28125 C 6.601562 1.28125 6.328125 1.273438 6.015625 1.265625 C 5.847656 1.253906 5.695312 1.191406 5.5625 1.078125 C 5.4375 0.960938 5.351562 0.816406 5.3125 0.640625 C 5.269531 0.503906 5.285156 0.382812 5.359375 0.28125 C 5.429688 0.175781 5.539062 0.125 5.6875 0.125 C 5.988281 0.144531 6.296875 0.15625 6.609375 0.15625 C 7.109375 0.15625 7.472656 0.046875 7.703125 -0.171875 C 7.992188 -0.378906 8.191406 -0.742188 8.296875 -1.265625 C 8.335938 -1.484375 8.359375 -1.71875 8.359375 -1.96875 C 8.359375 -2.289062 8.316406 -2.640625 8.234375 -3.015625 C 8.234375 -3.046875 8.210938 -3.070312 8.171875 -3.09375 C 8.140625 -3.113281 8.109375 -3.101562 8.078125 -3.0625 C 7.285156 -2.414062 6.34375 -1.785156 5.25 -1.171875 C 4.164062 -0.554688 3.09375 -0.0546875 2.03125 0.328125 C 1.875 0.390625 1.71875 0.382812 1.5625 0.3125 C 1.40625 0.25 1.28125 0.140625 1.1875 -0.015625 C 1.144531 -0.0859375 1.125 -0.164062 1.125 -0.25 C 1.125 -0.300781 1.132812 -0.351562 1.15625 -0.40625 C 1.207031 -0.539062 1.300781 -0.640625 1.4375 -0.703125 C 2.582031 -1.054688 3.726562 -1.546875 4.875 -2.171875 C 6.03125 -2.804688 6.976562 -3.457031 7.71875 -4.125 C 7.800781 -4.1875 7.820312 -4.269531 7.78125 -4.375 C 7.664062 -4.644531 7.53125 -4.890625 7.375 -5.109375 C 7.320312 -5.203125 7.253906 -5.21875 7.171875 -5.15625 C 6.546875 -4.707031 5.8125 -4.257812 4.96875 -3.8125 C 4.132812 -3.363281 3.328125 -2.984375 2.546875 -2.671875 C 2.398438 -2.617188 2.25 -2.617188 2.09375 -2.671875 C 1.9375 -2.734375 1.8125 -2.832031 1.71875 -2.96875 C 1.644531 -3.09375 1.628906 -3.21875 1.671875 -3.34375 C 1.710938 -3.46875 1.804688 -3.550781 1.953125 -3.59375 C 2.765625 -3.851562 3.601562 -4.191406 4.46875 -4.609375 C 5.332031 -5.035156 6.046875 -5.460938 6.609375 -5.890625 C 6.691406 -5.953125 6.695312 -6.019531 6.625 -6.09375 C 6.457031 -6.269531 6.289062 -6.429688 6.125 -6.578125 C 6.050781 -6.648438 5.96875 -6.664062 5.875 -6.625 C 4.820312 -6.125 3.695312 -5.679688 2.5 -5.296875 C 2.34375 -5.253906 2.179688 -5.257812 2.015625 -5.3125 C 1.847656 -5.375 1.71875 -5.484375 1.625 -5.640625 C 1.550781 -5.753906 1.535156 -5.875 1.578125 -6 C 1.628906 -6.132812 1.722656 -6.21875 1.859375 -6.25 C 3.921875 -6.8125 5.582031 -7.488281 6.84375 -8.28125 C 6.875 -8.289062 6.882812 -8.304688 6.875 -8.328125 C 6.875 -8.347656 6.851562 -8.359375 6.8125 -8.359375 L 4.03125 -8.359375 C 3.882812 -8.359375 3.757812 -8.410156 3.65625 -8.515625 C 3.5625 -8.617188 3.515625 -8.738281 3.515625 -8.875 C 3.515625 -9.019531 3.5625 -9.144531 3.65625 -9.25 C 3.757812 -9.351562 3.882812 -9.40625 4.03125 -9.40625 L 12.015625 -9.40625 C 12.148438 -9.40625 12.269531 -9.351562 12.375 -9.25 C 12.476562 -9.144531 12.53125 -9.019531 12.53125 -8.875 C 12.53125 -8.738281 12.476562 -8.617188 12.375 -8.515625 C 12.269531 -8.410156 12.148438 -8.359375 12.015625 -8.359375 L 9.859375 -8.359375 C 9.828125 -8.359375 9.796875 -8.34375 9.765625 -8.3125 C 9.742188 -8.28125 9.738281 -8.25 9.75 -8.21875 C 10 -7.351562 10.316406 -6.539062 10.703125 -5.78125 C 10.742188 -5.6875 10.804688 -5.671875 10.890625 -5.734375 C 11.753906 -6.273438 12.523438 -6.832031 13.203125 -7.40625 Z M 13.203125 -7.40625 "/></g></g></g><g fill="#ffffff" fill-opacity="1"><g transform="translate(46.075446, 15.315673)"><g><path d="M 5.546875 -7.515625 C 5.742188 -8.085938 5.875 -8.632812 5.9375 -9.15625 C 5.96875 -9.695312 5.613281 -9.953125 4.875 -9.921875 C 4.6875 -9.890625 4.585938 -9.953125 4.578125 -10.109375 C 4.566406 -10.273438 4.664062 -10.390625 4.875 -10.453125 C 5.46875 -10.585938 6.019531 -10.59375 6.53125 -10.46875 C 7.050781 -10.351562 7.289062 -10.003906 7.25 -9.421875 C 7.226562 -9.148438 7.023438 -8.5625 6.640625 -7.65625 C 6.804688 -7.664062 7.113281 -7.671875 7.5625 -7.671875 C 8.695312 -7.617188 9.210938 -6.863281 9.109375 -5.40625 C 8.898438 -3.226562 8.3125 -1.65625 7.34375 -0.6875 C 6.800781 -0.132812 6.316406 -0.0234375 5.890625 -0.359375 C 5.460938 -0.691406 5.078125 -1.25 4.734375 -2.03125 C 4.617188 -2.269531 4.601562 -2.46875 4.6875 -2.625 C 4.769531 -2.789062 4.890625 -2.785156 5.046875 -2.609375 C 5.578125 -1.953125 5.96875 -1.601562 6.21875 -1.5625 C 6.46875 -1.519531 6.65625 -1.570312 6.78125 -1.71875 C 7.4375 -2.570312 7.847656 -3.890625 8.015625 -5.671875 C 8.097656 -6.453125 7.921875 -6.859375 7.484375 -6.890625 C 7.078125 -6.878906 6.6875 -6.84375 6.3125 -6.78125 C 5.75 -5.351562 4.875 -3.726562 3.6875 -1.90625 C 2.8125 -0.507812 2.238281 0.171875 1.96875 0.140625 C 1.601562 0.109375 1.441406 -0.15625 1.484375 -0.65625 C 1.503906 -0.96875 1.71875 -1.3125 2.125 -1.6875 C 2.75 -2.4375 3.503906 -3.546875 4.390625 -5.015625 C 4.773438 -5.710938 5.03125 -6.21875 5.15625 -6.53125 C 4.757812 -6.4375 4.269531 -6.304688 3.6875 -6.140625 C 3.445312 -6.078125 3.265625 -6.050781 3.140625 -6.0625 C 2.472656 -6.0625 1.957031 -6.601562 1.59375 -7.6875 C 1.519531 -7.9375 1.5625 -8.113281 1.71875 -8.21875 C 1.882812 -8.332031 2.03125 -8.269531 2.15625 -8.03125 C 2.351562 -7.613281 2.734375 -7.363281 3.296875 -7.28125 C 3.460938 -7.269531 3.882812 -7.304688 4.5625 -7.390625 L 5.203125 -7.484375 Z M 10.46875 -3.875 C 11.414062 -4 12.019531 -4.222656 12.28125 -4.546875 C 12.539062 -4.878906 12.476562 -5.3125 12.09375 -5.84375 C 11.78125 -6.320312 10.992188 -6.707031 9.734375 -7 C 9.453125 -7.050781 9.351562 -7.1875 9.4375 -7.40625 C 9.519531 -7.625 9.707031 -7.71875 10 -7.6875 C 11.488281 -7.5 12.566406 -7.035156 13.234375 -6.296875 C 13.835938 -5.503906 13.96875 -4.847656 13.625 -4.328125 C 13.289062 -3.816406 12.65625 -3.5 11.71875 -3.375 C 11.46875 -3.320312 11.054688 -3.28125 10.484375 -3.25 C 10.242188 -3.226562 10.125 -3.316406 10.125 -3.515625 C 10.125 -3.710938 10.238281 -3.832031 10.46875 -3.875 Z M 10.46875 -3.875 "/></g></g></g><g fill="#ffffff" fill-opacity="1"><g transform="translate(61.463437, 15.315673)"><g><path d="M 3.71875 -0.125 C 7.09375 -0.59375 8.78125 -1.566406 8.78125 -3.046875 C 8.78125 -3.484375 8.648438 -3.851562 8.390625 -4.15625 C 8.023438 -4.53125 7.5625 -4.71875 7 -4.71875 C 6 -4.6875 5.222656 -4.421875 4.671875 -3.921875 C 4.265625 -3.535156 3.953125 -3.050781 3.734375 -2.46875 C 3.609375 -2.300781 3.472656 -2.21875 3.328125 -2.21875 C 2.910156 -2.21875 2.660156 -2.71875 2.578125 -3.71875 C 2.472656 -5.070312 2.679688 -6.425781 3.203125 -7.78125 C 3.285156 -7.96875 3.40625 -8.078125 3.5625 -8.109375 C 3.726562 -8.148438 3.832031 -8.078125 3.875 -7.890625 C 3.882812 -7.734375 3.9375 -7.515625 4.03125 -7.234375 C 4.070312 -7.085938 4.097656 -6.945312 4.109375 -6.8125 C 4.117188 -6.625 4.078125 -6.40625 3.984375 -6.15625 C 3.660156 -5.445312 3.523438 -4.71875 3.578125 -3.96875 C 3.578125 -3.957031 3.554688 -3.953125 3.515625 -3.953125 C 3.617188 -3.953125 3.765625 -4.046875 3.953125 -4.234375 C 4.835938 -5.085938 5.878906 -5.515625 7.078125 -5.515625 C 8.097656 -5.515625 8.890625 -5.207031 9.453125 -4.59375 C 9.867188 -4.125 10.078125 -3.59375 10.078125 -3 C 10.078125 -0.90625 8.039062 0.328125 3.96875 0.703125 C 3.65625 0.722656 3.445312 0.613281 3.34375 0.375 C 3.238281 0.132812 3.363281 -0.03125 3.71875 -0.125 Z M 4.109375 -9.15625 C 4.398438 -9.332031 4.742188 -9.523438 5.140625 -9.734375 C 4.785156 -10.003906 4.304688 -10.203125 3.703125 -10.328125 C 3.429688 -10.367188 3.328125 -10.492188 3.390625 -10.703125 C 3.460938 -10.921875 3.660156 -11.015625 3.984375 -10.984375 C 5.128906 -10.859375 5.925781 -10.679688 6.375 -10.453125 C 6.875 -10.234375 7.125 -9.882812 7.125 -9.40625 C 7.125 -9 6.976562 -8.8125 6.6875 -8.84375 C 6.601562 -8.84375 6.492188 -8.859375 6.359375 -8.890625 C 6.210938 -8.921875 6.054688 -8.9375 5.890625 -8.9375 C 5.359375 -8.9375 4.910156 -8.800781 4.546875 -8.53125 C 4.328125 -8.394531 4.140625 -8.421875 3.984375 -8.609375 C 3.835938 -8.804688 3.878906 -8.988281 4.109375 -9.15625 Z M 4.109375 -9.15625 "/></g></g></g><g fill="#ffffff" fill-opacity="1"><g transform="translate(73.846579, 15.315673)"><g><path d="M 12.375 -3.640625 C 12.394531 -3.660156 12.398438 -3.679688 12.390625 -3.703125 C 12.378906 -3.722656 12.363281 -3.734375 12.34375 -3.734375 L 8.65625 -3.734375 C 8.625 -3.734375 8.597656 -3.71875 8.578125 -3.6875 C 8.566406 -3.65625 8.570312 -3.628906 8.59375 -3.609375 C 8.914062 -3.128906 9.316406 -2.695312 9.796875 -2.3125 C 9.878906 -2.25 9.96875 -2.242188 10.0625 -2.296875 C 10.945312 -2.742188 11.71875 -3.191406 12.375 -3.640625 Z M 4.875 -6.21875 C 4.769531 -6.21875 4.71875 -6.164062 4.71875 -6.0625 L 4.71875 -4.875 C 4.71875 -4.769531 4.769531 -4.71875 4.875 -4.71875 L 11.34375 -4.71875 C 11.445312 -4.71875 11.5 -4.769531 11.5 -4.875 L 11.5 -6.0625 C 11.5 -6.164062 11.445312 -6.21875 11.34375 -6.21875 Z M 4.875 -8.484375 C 4.769531 -8.484375 4.71875 -8.429688 4.71875 -8.328125 L 4.71875 -7.3125 C 4.71875 -7.207031 4.769531 -7.15625 4.875 -7.15625 L 11.34375 -7.15625 C 11.445312 -7.15625 11.5 -7.207031 11.5 -7.3125 L 11.5 -8.328125 C 11.5 -8.429688 11.445312 -8.484375 11.34375 -8.484375 Z M 8.671875 -9.625 C 8.671875 -9.519531 8.722656 -9.46875 8.828125 -9.46875 L 12.078125 -9.46875 C 12.097656 -9.46875 12.109375 -9.476562 12.109375 -9.5 C 12.117188 -9.519531 12.117188 -9.535156 12.109375 -9.546875 C 10.460938 -10.566406 9.144531 -11.625 8.15625 -12.71875 C 8.070312 -12.789062 8 -12.785156 7.9375 -12.703125 C 7.082031 -11.679688 5.832031 -10.628906 4.1875 -9.546875 C 4.164062 -9.535156 4.160156 -9.519531 4.171875 -9.5 C 4.179688 -9.476562 4.195312 -9.46875 4.21875 -9.46875 L 7.296875 -9.46875 C 7.398438 -9.46875 7.453125 -9.519531 7.453125 -9.625 L 7.453125 -10.5 C 7.453125 -10.664062 7.507812 -10.804688 7.625 -10.921875 C 7.75 -11.046875 7.894531 -11.109375 8.0625 -11.109375 C 8.226562 -11.109375 8.367188 -11.046875 8.484375 -10.921875 C 8.609375 -10.804688 8.671875 -10.664062 8.671875 -10.5 Z M 13.15625 -4.1875 C 13.28125 -4.28125 13.425781 -4.328125 13.59375 -4.328125 C 13.757812 -4.328125 13.910156 -4.28125 14.046875 -4.1875 C 14.148438 -4.101562 14.203125 -3.992188 14.203125 -3.859375 C 14.203125 -3.722656 14.148438 -3.613281 14.046875 -3.53125 C 13.148438 -2.882812 12.128906 -2.257812 10.984375 -1.65625 C 10.953125 -1.632812 10.9375 -1.609375 10.9375 -1.578125 C 10.9375 -1.546875 10.953125 -1.519531 10.984375 -1.5 C 12.078125 -0.894531 13.347656 -0.46875 14.796875 -0.21875 C 14.929688 -0.195312 15.019531 -0.125 15.0625 0 C 15.113281 0.132812 15.097656 0.253906 15.015625 0.359375 C 14.910156 0.523438 14.769531 0.65625 14.59375 0.75 C 14.476562 0.800781 14.351562 0.828125 14.21875 0.828125 C 14.164062 0.828125 14.113281 0.820312 14.0625 0.8125 C 10.84375 0.113281 8.59375 -1.351562 7.3125 -3.59375 C 7.257812 -3.6875 7.179688 -3.734375 7.078125 -3.734375 L 4.875 -3.734375 C 4.769531 -3.734375 4.71875 -3.679688 4.71875 -3.578125 L 4.71875 -0.8125 C 4.71875 -0.769531 4.734375 -0.734375 4.765625 -0.703125 C 4.796875 -0.679688 4.832031 -0.671875 4.875 -0.671875 L 8.421875 -1 C 8.554688 -1.007812 8.675781 -0.96875 8.78125 -0.875 C 8.882812 -0.78125 8.941406 -0.65625 8.953125 -0.5 C 8.953125 -0.351562 8.898438 -0.222656 8.796875 -0.109375 C 8.703125 -0.00390625 8.582031 0.0507812 8.4375 0.0625 C 6.1875 0.300781 4.191406 0.507812 2.453125 0.6875 C 2.296875 0.695312 2.148438 0.648438 2.015625 0.546875 C 1.890625 0.441406 1.816406 0.3125 1.796875 0.15625 C 1.765625 0.0078125 1.796875 -0.117188 1.890625 -0.234375 C 1.992188 -0.359375 2.125 -0.425781 2.28125 -0.4375 C 2.351562 -0.445312 2.421875 -0.457031 2.484375 -0.46875 C 2.828125 -0.488281 3.125 -0.507812 3.375 -0.53125 C 3.476562 -0.539062 3.53125 -0.601562 3.53125 -0.71875 L 3.53125 -8.984375 C 3.53125 -9.015625 3.515625 -9.035156 3.484375 -9.046875 C 3.453125 -9.066406 3.421875 -9.070312 3.390625 -9.0625 C 2.941406 -8.800781 2.453125 -8.535156 1.921875 -8.265625 C 1.765625 -8.191406 1.601562 -8.175781 1.4375 -8.21875 C 1.28125 -8.269531 1.15625 -8.367188 1.0625 -8.515625 C 1 -8.597656 0.96875 -8.691406 0.96875 -8.796875 C 0.96875 -8.828125 0.972656 -8.863281 0.984375 -8.90625 C 1.003906 -9.050781 1.082031 -9.15625 1.21875 -9.21875 C 2.382812 -9.769531 3.5 -10.441406 4.5625 -11.234375 C 5.582031 -12.003906 6.398438 -12.765625 7.015625 -13.515625 C 7.273438 -13.828125 7.59375 -13.984375 7.96875 -13.984375 C 8.363281 -13.984375 8.695312 -13.835938 8.96875 -13.546875 C 9.757812 -12.703125 10.695312 -11.910156 11.78125 -11.171875 C 12.851562 -10.429688 13.921875 -9.84375 14.984375 -9.40625 C 15.128906 -9.332031 15.222656 -9.222656 15.265625 -9.078125 C 15.273438 -9.023438 15.28125 -8.976562 15.28125 -8.9375 C 15.28125 -8.832031 15.25 -8.734375 15.1875 -8.640625 C 15.082031 -8.492188 14.941406 -8.390625 14.765625 -8.328125 C 14.691406 -8.304688 14.617188 -8.296875 14.546875 -8.296875 C 14.441406 -8.296875 14.335938 -8.316406 14.234375 -8.359375 C 13.785156 -8.578125 13.320312 -8.828125 12.84375 -9.109375 C 12.8125 -9.128906 12.78125 -9.128906 12.75 -9.109375 C 12.71875 -9.085938 12.703125 -9.0625 12.703125 -9.03125 L 12.703125 -3.984375 C 12.703125 -3.960938 12.710938 -3.945312 12.734375 -3.9375 C 12.753906 -3.925781 12.773438 -3.925781 12.796875 -3.9375 C 12.921875 -4.03125 13.039062 -4.113281 13.15625 -4.1875 Z M 13.15625 -4.1875 "/></g></g></g><g fill="#ffffff" fill-opacity="1"><g transform="translate(90.041135, 15.315673)"><g><path d="M 4 -6.4375 C 3.894531 -6.4375 3.84375 -6.382812 3.84375 -6.28125 L 3.84375 -5.03125 C 3.84375 -4.925781 3.894531 -4.875 4 -4.875 L 12.3125 -4.875 C 12.414062 -4.875 12.46875 -4.925781 12.46875 -5.03125 L 12.46875 -6.28125 C 12.46875 -6.382812 12.414062 -6.4375 12.3125 -6.4375 Z M 4 -8.90625 C 3.894531 -8.90625 3.84375 -8.851562 3.84375 -8.75 L 3.84375 -7.546875 C 3.84375 -7.441406 3.894531 -7.390625 4 -7.390625 L 12.3125 -7.390625 C 12.414062 -7.390625 12.46875 -7.441406 12.46875 -7.546875 L 12.46875 -8.75 C 12.46875 -8.851562 12.414062 -8.90625 12.3125 -8.90625 Z M 14.71875 -2.515625 C 14.875 -2.515625 15.003906 -2.457031 15.109375 -2.34375 C 15.222656 -2.238281 15.28125 -2.109375 15.28125 -1.953125 C 15.28125 -1.796875 15.222656 -1.660156 15.109375 -1.546875 C 15.003906 -1.441406 14.875 -1.390625 14.71875 -1.390625 L 8.8125 -1.390625 C 8.707031 -1.390625 8.65625 -1.335938 8.65625 -1.234375 L 8.65625 0.609375 C 8.65625 0.785156 8.59375 0.929688 8.46875 1.046875 C 8.351562 1.171875 8.210938 1.234375 8.046875 1.234375 C 7.878906 1.234375 7.734375 1.171875 7.609375 1.046875 C 7.492188 0.929688 7.4375 0.785156 7.4375 0.609375 L 7.4375 -1.234375 C 7.4375 -1.335938 7.382812 -1.390625 7.28125 -1.390625 L 1.515625 -1.390625 C 1.359375 -1.390625 1.222656 -1.441406 1.109375 -1.546875 C 1.003906 -1.660156 0.953125 -1.796875 0.953125 -1.953125 C 0.953125 -2.109375 1.003906 -2.238281 1.109375 -2.34375 C 1.222656 -2.457031 1.359375 -2.515625 1.515625 -2.515625 L 7.28125 -2.515625 C 7.382812 -2.515625 7.4375 -2.566406 7.4375 -2.671875 L 7.4375 -3.71875 C 7.4375 -3.820312 7.382812 -3.875 7.28125 -3.875 L 4.03125 -3.875 C 3.65625 -3.875 3.332031 -4.007812 3.0625 -4.28125 C 2.789062 -4.550781 2.65625 -4.875 2.65625 -5.25 L 2.65625 -8.546875 C 2.65625 -8.921875 2.789062 -9.242188 3.0625 -9.515625 C 3.332031 -9.785156 3.65625 -9.921875 4.03125 -9.921875 L 7.140625 -9.921875 C 7.242188 -9.921875 7.296875 -9.972656 7.296875 -10.078125 L 7.296875 -12.9375 C 7.296875 -13.113281 7.351562 -13.257812 7.46875 -13.375 C 7.582031 -13.488281 7.722656 -13.546875 7.890625 -13.546875 C 8.066406 -13.546875 8.210938 -13.488281 8.328125 -13.375 C 8.453125 -13.257812 8.515625 -13.113281 8.515625 -12.9375 L 8.515625 -12.40625 C 8.515625 -12.3125 8.554688 -12.265625 8.640625 -12.265625 L 14.140625 -12.265625 C 14.296875 -12.265625 14.425781 -12.210938 14.53125 -12.109375 C 14.632812 -12.015625 14.6875 -11.890625 14.6875 -11.734375 C 14.6875 -11.585938 14.632812 -11.460938 14.53125 -11.359375 C 14.425781 -11.265625 14.296875 -11.21875 14.140625 -11.21875 L 8.671875 -11.21875 C 8.566406 -11.21875 8.515625 -11.164062 8.515625 -11.0625 L 8.515625 -10.078125 C 8.515625 -9.972656 8.566406 -9.921875 8.671875 -9.921875 L 12.328125 -9.921875 C 12.703125 -9.921875 13.023438 -9.785156 13.296875 -9.515625 C 13.566406 -9.242188 13.703125 -8.921875 13.703125 -8.546875 L 13.703125 -5.25 C 13.703125 -4.875 13.566406 -4.550781 13.296875 -4.28125 C 13.023438 -4.007812 12.703125 -3.875 12.328125 -3.875 L 8.8125 -3.875 C 8.707031 -3.875 8.65625 -3.820312 8.65625 -3.71875 L 8.65625 -2.671875 C 8.65625 -2.566406 8.707031 -2.515625 8.8125 -2.515625 Z M 14.71875 -2.515625 "/></g></g></g><g fill="#ffffff" fill-opacity="1"><g transform="translate(106.235692, 15.315673)"><g><path d="M 1.984375 -6.265625 C 2.253906 -5.953125 2.4375 -5.789062 2.53125 -5.78125 C 2.59375 -5.769531 2.691406 -5.816406 2.828125 -5.921875 C 2.921875 -6.015625 3.304688 -6.351562 3.984375 -6.9375 C 4.660156 -7.53125 5.097656 -7.9375 5.296875 -8.15625 C 5.492188 -8.375 5.734375 -8.488281 6.015625 -8.5 C 6.328125 -8.507812 6.800781 -8.207031 7.4375 -7.59375 C 8.394531 -6.625 9.546875 -5.664062 10.890625 -4.71875 C 11.691406 -4.15625 12.300781 -3.769531 12.71875 -3.5625 C 13.25 -3.300781 13.523438 -2.925781 13.546875 -2.4375 C 13.578125 -2.039062 13.445312 -1.835938 13.15625 -1.828125 C 12.894531 -1.816406 12.519531 -1.972656 12.03125 -2.296875 C 11.1875 -2.828125 10.285156 -3.53125 9.328125 -4.40625 C 8.128906 -5.46875 7.128906 -6.457031 6.328125 -7.375 C 6.203125 -7.5 6.109375 -7.5625 6.046875 -7.5625 C 5.972656 -7.550781 5.28125 -6.789062 3.96875 -5.28125 C 3.6875 -4.988281 3.507812 -4.789062 3.4375 -4.6875 C 3.207031 -4.394531 3.003906 -4.269531 2.828125 -4.3125 C 2.316406 -4.382812 1.914062 -4.875 1.625 -5.78125 C 1.539062 -6.082031 1.554688 -6.265625 1.671875 -6.328125 C 1.796875 -6.398438 1.898438 -6.378906 1.984375 -6.265625 Z M 1.984375 -6.265625 "/></g></g></g><g fill="#ffffff" fill-opacity="1"><g transform="translate(22.294589, 27.922354)"><g><path d="M 1.890625 -3.890625 L 2.265625 -3.890625 C 2.265625 -3.609375 2.257812 -3.347656 2.25 -3.109375 L 4.140625 -3.109375 L 4.140625 -2.828125 C 4.140625 -2.316406 4.128906 -1.890625 4.109375 -1.546875 C 4.097656 -1.210938 4.070312 -0.9375 4.03125 -0.71875 C 4 -0.5 3.945312 -0.332031 3.875 -0.21875 C 3.8125 -0.113281 3.738281 -0.0390625 3.65625 0 C 3.570312 0.0390625 3.46875 0.0625 3.34375 0.0625 C 3.070312 0.0625 2.765625 0.046875 2.421875 0.015625 L 2.453125 -0.34375 C 2.742188 -0.3125 3.007812 -0.296875 3.25 -0.296875 C 3.382812 -0.296875 3.484375 -0.34375 3.546875 -0.4375 C 3.609375 -0.53125 3.65625 -0.75 3.6875 -1.09375 C 3.726562 -1.4375 3.75 -1.957031 3.75 -2.65625 L 3.75 -2.765625 L 2.21875 -2.765625 C 2.164062 -2.023438 2.03125 -1.441406 1.8125 -1.015625 C 1.601562 -0.585938 1.269531 -0.195312 0.8125 0.15625 L 0.578125 -0.109375 C 0.847656 -0.316406 1.0625 -0.523438 1.21875 -0.734375 C 1.382812 -0.941406 1.519531 -1.210938 1.625 -1.546875 C 1.738281 -1.878906 1.816406 -2.285156 1.859375 -2.765625 L 0.609375 -2.765625 L 0.609375 -3.109375 L 1.875 -3.109375 C 1.882812 -3.347656 1.890625 -3.609375 1.890625 -3.890625 Z M 1.890625 -3.890625 "/></g></g></g><g fill="#ffffff" fill-opacity="1"><g transform="translate(27.640734, 27.922354)"><g><path d="M 3.5 -3.609375 L 3.890625 -3.609375 L 3.890625 -2.359375 C 3.890625 -1.546875 3.707031 -0.9375 3.34375 -0.53125 C 2.976562 -0.125 2.375 0.132812 1.53125 0.25 L 1.453125 -0.109375 C 2.210938 -0.222656 2.742188 -0.445312 3.046875 -0.78125 C 3.347656 -1.113281 3.5 -1.640625 3.5 -2.359375 Z M 0.96875 -1.46875 L 0.96875 -3.609375 L 1.34375 -3.609375 L 1.34375 -1.46875 Z M 0.96875 -1.46875 "/></g></g></g><g fill="#ffffff" fill-opacity="1"><g transform="translate(32.98688, 27.922354)"><g><path d="M 0.625 -3.421875 L 4.25 -3.421875 L 4.25 -3.34375 C 4.25 -2.269531 3.992188 -1.453125 3.484375 -0.890625 C 2.984375 -0.335938 2.203125 -0.00390625 1.140625 0.109375 L 1.078125 -0.234375 C 1.992188 -0.335938 2.675781 -0.613281 3.125 -1.0625 C 3.570312 -1.507812 3.8125 -2.175781 3.84375 -3.0625 L 0.625 -3.0625 Z M 0.625 -3.421875 "/></g></g></g><g fill="#ffffff" fill-opacity="1"><g transform="translate(38.333024, 27.922354)"><g><path d="M 0.875 -2.4375 L 2.859375 -2.4375 L 2.859375 -3.0625 L 3.203125 -3.0625 L 3.203125 -2.4375 L 4.0625 -2.4375 L 4.0625 -2.140625 L 3.203125 -2.140625 L 3.203125 -0.40625 C 3.203125 -0.175781 3.171875 -0.0351562 3.109375 0.015625 C 3.046875 0.078125 2.898438 0.109375 2.671875 0.109375 C 2.460938 0.109375 2.242188 0.0976562 2.015625 0.078125 L 2.03125 -0.25 C 2.289062 -0.21875 2.492188 -0.203125 2.640625 -0.203125 C 2.734375 -0.203125 2.789062 -0.210938 2.8125 -0.234375 C 2.84375 -0.265625 2.859375 -0.328125 2.859375 -0.421875 L 2.859375 -1.765625 C 2.296875 -1.191406 1.691406 -0.71875 1.046875 -0.34375 L 0.890625 -0.625 C 1.566406 -1.007812 2.191406 -1.515625 2.765625 -2.140625 L 0.875 -2.140625 Z M 0.875 -2.4375 "/></g></g></g><g fill="#ffffff" fill-opacity="1"><g transform="translate(43.67917, 27.922354)"><g><path d="M 1.25 -3.578125 L 1.640625 -3.578125 L 1.640625 -2.625 C 1.640625 -1.988281 1.601562 -1.492188 1.53125 -1.140625 C 1.457031 -0.785156 1.34375 -0.515625 1.1875 -0.328125 C 1.039062 -0.140625 0.820312 0.0195312 0.53125 0.15625 L 0.328125 -0.15625 C 0.585938 -0.28125 0.773438 -0.421875 0.890625 -0.578125 C 1.015625 -0.734375 1.101562 -0.960938 1.15625 -1.265625 C 1.21875 -1.578125 1.25 -2.03125 1.25 -2.625 Z M 2.90625 -0.25 C 3.3125 -0.3125 3.632812 -0.492188 3.875 -0.796875 C 4.113281 -1.109375 4.257812 -1.523438 4.3125 -2.046875 L 4.671875 -2 C 4.609375 -1.332031 4.390625 -0.804688 4.015625 -0.421875 C 3.648438 -0.046875 3.175781 0.140625 2.59375 0.140625 L 2.515625 0.140625 L 2.515625 -3.578125 L 2.90625 -3.578125 Z M 2.90625 -0.25 "/></g></g></g><g fill="#ffffff" fill-opacity="1"><g transform="translate(49.025315, 27.922354)"><g><path d="M 0.84375 -3.015625 L 0.84375 -3.390625 L 4.015625 -3.390625 L 4.015625 -3.015625 Z M 0.5 -0.109375 L 0.5 -0.46875 L 4.359375 -0.46875 L 4.359375 -0.109375 Z M 0.5 -0.109375 "/></g></g></g><g fill="#ffffff" fill-opacity="1"><g transform="translate(54.371459, 27.922354)"><g><path d="M 0.59375 -3.140625 L 0.59375 -3.46875 L 4.4375 -3.46875 L 4.4375 -3.140625 C 4.332031 -2.785156 4.160156 -2.46875 3.921875 -2.1875 C 3.691406 -1.914062 3.410156 -1.695312 3.078125 -1.53125 L 2.890625 -1.84375 C 3.484375 -2.132812 3.863281 -2.566406 4.03125 -3.140625 Z M 2.03125 -2.671875 L 2.390625 -2.671875 C 2.390625 -1.835938 2.285156 -1.207031 2.078125 -0.78125 C 1.878906 -0.363281 1.535156 -0.0507812 1.046875 0.15625 L 0.875 -0.15625 C 1.289062 -0.332031 1.585938 -0.609375 1.765625 -0.984375 C 1.941406 -1.359375 2.03125 -1.921875 2.03125 -2.671875 Z M 2.03125 -2.671875 "/></g></g></g><g fill="#ffffff" fill-opacity="1"><g transform="translate(59.717603, 27.922354)"><g><path d="M 0.5 -3.078125 L 2.984375 -3.078125 L 2.984375 -3.859375 L 3.359375 -3.859375 L 3.359375 -3.078125 L 4.453125 -3.078125 L 4.453125 -2.75 L 3.359375 -2.75 L 3.359375 -0.546875 C 3.359375 -0.273438 3.316406 -0.101562 3.234375 -0.03125 C 3.160156 0.0390625 2.992188 0.078125 2.734375 0.078125 C 2.484375 0.078125 2.210938 0.0625 1.921875 0.03125 L 1.9375 -0.3125 C 2.207031 -0.28125 2.460938 -0.265625 2.703125 -0.265625 C 2.828125 -0.265625 2.90625 -0.28125 2.9375 -0.3125 C 2.96875 -0.34375 2.984375 -0.421875 2.984375 -0.546875 L 2.984375 -2.359375 C 2.285156 -1.609375 1.519531 -0.992188 0.6875 -0.515625 L 0.515625 -0.8125 C 0.929688 -1.050781 1.347656 -1.335938 1.765625 -1.671875 C 2.179688 -2.015625 2.5625 -2.375 2.90625 -2.75 L 0.5 -2.75 Z M 0.5 -3.078125 "/></g></g></g><g fill="#ffffff" fill-opacity="1"><g transform="translate(65.063748, 27.922354)"><g><path d="M 0.453125 -1.5625 L 0.453125 -1.9375 L 4.40625 -1.9375 L 4.40625 -1.5625 Z M 0.453125 -1.5625 "/></g></g></g><g fill="#ffffff" fill-opacity="1"><g transform="translate(70.409892, 27.922354)"><g><path d="M 3.328125 -3.90625 L 3.59375 -4.046875 C 3.75 -3.785156 3.890625 -3.539062 4.015625 -3.3125 L 3.734375 -3.1875 C 3.597656 -3.445312 3.460938 -3.6875 3.328125 -3.90625 Z M 3.984375 -3.984375 L 4.265625 -4.125 C 4.390625 -3.90625 4.523438 -3.65625 4.671875 -3.375 L 4.40625 -3.25 C 4.238281 -3.550781 4.097656 -3.796875 3.984375 -3.984375 Z M 1.84375 -3.84375 L 2.21875 -3.84375 C 2.21875 -3.507812 2.207031 -3.226562 2.1875 -3 L 4.09375 -3 L 4.09375 -2.765625 C 4.09375 -2.128906 4.082031 -1.625 4.0625 -1.25 C 4.039062 -0.875 3.992188 -0.582031 3.921875 -0.375 C 3.847656 -0.175781 3.765625 -0.046875 3.671875 0.015625 C 3.585938 0.078125 3.460938 0.109375 3.296875 0.109375 C 3.023438 0.109375 2.71875 0.09375 2.375 0.0625 L 2.40625 -0.296875 C 2.695312 -0.265625 2.960938 -0.25 3.203125 -0.25 C 3.335938 -0.25 3.4375 -0.296875 3.5 -0.390625 C 3.5625 -0.484375 3.609375 -0.695312 3.640625 -1.03125 C 3.679688 -1.375 3.703125 -1.894531 3.703125 -2.59375 L 3.703125 -2.65625 L 2.171875 -2.65625 C 2.109375 -1.9375 1.96875 -1.363281 1.75 -0.9375 C 1.539062 -0.519531 1.210938 -0.140625 0.765625 0.203125 L 0.53125 -0.0625 C 0.800781 -0.257812 1.015625 -0.460938 1.171875 -0.671875 C 1.335938 -0.878906 1.472656 -1.144531 1.578125 -1.46875 C 1.691406 -1.789062 1.765625 -2.1875 1.796875 -2.65625 L 0.5625 -2.65625 L 0.5625 -3 L 1.828125 -3 C 1.835938 -3.226562 1.84375 -3.507812 1.84375 -3.84375 Z M 1.84375 -3.84375 "/></g></g></g><g fill="#ffffff" fill-opacity="1"><g transform="translate(75.756036, 27.922354)"><g><path d="M 0.84375 -3.015625 L 0.84375 -3.390625 L 4.015625 -3.390625 L 4.015625 -3.015625 Z M 0.5 -0.109375 L 0.5 -0.46875 L 4.359375 -0.46875 L 4.359375 -0.109375 Z M 0.5 -0.109375 "/></g></g></g><g fill="#ffffff" fill-opacity="1"><g transform="translate(81.10218, 27.922354)"><g><path d="M 3.96875 -2.765625 C 3.957031 -2.109375 3.863281 -1.582031 3.6875 -1.1875 C 3.519531 -0.789062 3.265625 -0.484375 2.921875 -0.265625 C 2.578125 -0.0546875 2.113281 0.0859375 1.53125 0.171875 L 1.453125 -0.15625 C 2.242188 -0.269531 2.796875 -0.515625 3.109375 -0.890625 C 3.421875 -1.265625 3.59375 -1.894531 3.625 -2.78125 Z M 0.890625 -2.578125 L 1.21875 -2.65625 C 1.320312 -2.3125 1.441406 -1.878906 1.578125 -1.359375 L 1.234375 -1.28125 C 1.117188 -1.726562 1.003906 -2.160156 0.890625 -2.578125 Z M 1.953125 -2.71875 L 2.296875 -2.796875 C 2.429688 -2.347656 2.546875 -1.898438 2.640625 -1.453125 L 2.296875 -1.375 C 2.191406 -1.832031 2.078125 -2.28125 1.953125 -2.71875 Z M 1.953125 -2.71875 "/></g></g></g><g fill="#ffffff" fill-opacity="1"><g transform="translate(86.448324, 27.922354)"><g><path d="M 3.6875 -2.96875 L 1.78125 -2.96875 C 1.582031 -2.40625 1.257812 -1.910156 0.8125 -1.484375 L 0.546875 -1.71875 C 1.148438 -2.289062 1.5 -2.988281 1.59375 -3.8125 L 1.953125 -3.78125 C 1.929688 -3.632812 1.90625 -3.472656 1.875 -3.296875 L 4.078125 -3.296875 L 4.078125 -3.21875 C 4.078125 -2.144531 3.820312 -1.34375 3.3125 -0.8125 C 2.800781 -0.28125 1.988281 0.03125 0.875 0.125 L 0.828125 -0.203125 C 1.804688 -0.296875 2.519531 -0.554688 2.96875 -0.984375 C 3.414062 -1.410156 3.65625 -2.070312 3.6875 -2.96875 Z M 3.6875 -2.96875 "/></g></g></g><g fill="#ffffff" fill-opacity="1"><g transform="translate(91.794468, 27.922354)"><g><path d="M 2.078125 -2.515625 L 2.828125 -2.515625 L 2.828125 -2.84375 L 2.078125 -2.84375 Z M 1.71875 -3.375 L 0.953125 -3.375 L 0.953125 -3.078125 L 1.71875 -3.078125 Z M 2.828125 -3.375 L 2.078125 -3.375 L 2.078125 -3.078125 L 2.828125 -3.078125 Z M 3.1875 -3.375 L 3.1875 -3.078125 L 3.953125 -3.078125 L 3.953125 -3.375 Z M 0.953125 -2.515625 L 1.71875 -2.515625 L 1.71875 -2.84375 L 0.953125 -2.84375 Z M 0.953125 -2.265625 L 0.59375 -2.265625 L 0.59375 -3.671875 L 1.71875 -3.671875 L 1.71875 -3.984375 L 2.078125 -3.984375 L 2.078125 -3.671875 L 2.828125 -3.671875 L 2.828125 -3.984375 L 3.1875 -3.984375 L 3.1875 -3.671875 L 4.3125 -3.671875 L 4.3125 -2.265625 Z M 3.296875 -0.34375 C 3.546875 -0.46875 3.789062 -0.617188 4.03125 -0.796875 L 2.75 -0.796875 C 2.882812 -0.628906 3.066406 -0.476562 3.296875 -0.34375 Z M 3.953125 -2.515625 L 3.953125 -2.84375 L 3.1875 -2.84375 L 3.1875 -2.515625 Z M 4.4375 -1.8125 L 0.90625 -1.8125 L 0.90625 -1.265625 C 0.90625 -1.179688 0.898438 -1.117188 0.890625 -1.078125 L 4.484375 -1.078125 L 4.484375 -0.796875 L 4.125 -0.796875 L 4.3125 -0.625 C 4.082031 -0.445312 3.847656 -0.296875 3.609375 -0.171875 C 3.898438 -0.046875 4.21875 0.0390625 4.5625 0.09375 L 4.4375 0.40625 C 3.988281 0.34375 3.570312 0.203125 3.1875 -0.015625 C 2.8125 -0.242188 2.535156 -0.503906 2.359375 -0.796875 L 1.78125 -0.796875 L 1.78125 -0.03125 C 2.21875 -0.0703125 2.59375 -0.117188 2.90625 -0.171875 L 2.9375 0.140625 C 2.1875 0.253906 1.453125 0.335938 0.734375 0.390625 L 0.71875 0.0625 C 0.875 0.0507812 1.101562 0.0351562 1.40625 0.015625 L 1.40625 -0.796875 L 0.859375 -0.796875 C 0.796875 -0.316406 0.65625 0.0664062 0.4375 0.359375 L 0.171875 0.09375 C 0.410156 -0.28125 0.53125 -0.765625 0.53125 -1.359375 L 0.53125 -2.09375 L 4.4375 -2.09375 Z M 1.125 -1.3125 L 1.125 -1.59375 L 4.234375 -1.59375 L 4.234375 -1.3125 Z M 1.125 -1.3125 "/></g></g></g><g fill="#ffffff" fill-opacity="1"><g transform="translate(97.140612, 27.922354)"><g><path d="M 2.890625 -2.3125 C 3.015625 -2.519531 3.117188 -2.738281 3.203125 -2.96875 L 1.671875 -2.96875 C 1.773438 -2.757812 1.867188 -2.539062 1.953125 -2.3125 Z M 4.46875 -1.015625 L 4.46875 -0.71875 L 2.859375 -0.71875 C 3.296875 -0.4375 3.894531 -0.191406 4.65625 0.015625 L 4.5 0.328125 C 3.707031 0.078125 3.082031 -0.207031 2.625 -0.53125 L 2.625 0.421875 L 2.234375 0.421875 L 2.234375 -0.53125 C 1.773438 -0.207031 1.148438 0.078125 0.359375 0.328125 L 0.203125 0.015625 C 0.960938 -0.191406 1.5625 -0.4375 2 -0.71875 L 0.390625 -0.71875 L 0.390625 -1.015625 L 2.234375 -1.015625 L 2.234375 -1.375 L 0.609375 -1.375 L 0.609375 -1.65625 L 2.234375 -1.65625 L 2.234375 -2.015625 L 0.4375 -2.015625 L 0.4375 -2.3125 L 1.5625 -2.3125 C 1.457031 -2.582031 1.363281 -2.800781 1.28125 -2.96875 L 0.34375 -2.96875 L 0.34375 -3.28125 L 1 -3.28125 C 0.894531 -3.46875 0.796875 -3.628906 0.703125 -3.765625 L 1.015625 -3.890625 C 1.128906 -3.722656 1.253906 -3.519531 1.390625 -3.28125 L 1.8125 -3.28125 L 1.8125 -3.953125 L 2.15625 -3.953125 L 2.15625 -3.28125 L 2.703125 -3.28125 L 2.703125 -3.953125 L 3.046875 -3.953125 L 3.046875 -3.28125 L 3.484375 -3.28125 C 3.617188 -3.476562 3.738281 -3.679688 3.84375 -3.890625 L 4.15625 -3.78125 C 4.0625 -3.59375 3.96875 -3.425781 3.875 -3.28125 L 4.515625 -3.28125 L 4.515625 -2.96875 L 3.59375 -2.96875 C 3.5 -2.726562 3.398438 -2.507812 3.296875 -2.3125 L 4.421875 -2.3125 L 4.421875 -2.015625 L 2.625 -2.015625 L 2.625 -1.65625 L 4.25 -1.65625 L 4.25 -1.375 L 2.625 -1.375 L 2.625 -1.015625 Z M 4.46875 -1.015625 "/></g></g></g><g fill="#ffffff" fill-opacity="1"><g transform="translate(102.486756, 27.922354)"><g><path d="M 0.359375 -3.59375 L 0.578125 -3.859375 C 0.859375 -3.648438 1.125 -3.429688 1.375 -3.203125 L 1.15625 -2.9375 C 0.90625 -3.164062 0.640625 -3.382812 0.359375 -3.59375 Z M 1 -1.796875 C 0.738281 -2.046875 0.453125 -2.289062 0.140625 -2.53125 L 0.359375 -2.796875 C 0.679688 -2.554688 0.972656 -2.3125 1.234375 -2.0625 Z M 1.375 -1.203125 C 1.1875 -0.617188 0.925781 -0.0976562 0.59375 0.359375 L 0.296875 0.15625 C 0.609375 -0.28125 0.859375 -0.78125 1.046875 -1.34375 Z M 3.46875 -1.234375 L 3.796875 -1.375 C 4.128906 -0.820312 4.414062 -0.28125 4.65625 0.25 L 4.3125 0.375 C 4.257812 0.25 4.195312 0.113281 4.125 -0.03125 C 3.082031 0.113281 2.128906 0.203125 1.265625 0.234375 L 1.25 -0.09375 C 1.394531 -0.101562 1.628906 -0.117188 1.953125 -0.140625 C 2.171875 -0.648438 2.375 -1.195312 2.5625 -1.78125 L 1.375 -1.78125 L 1.375 -2.109375 L 2.78125 -2.109375 L 2.78125 -3.046875 L 1.59375 -3.046875 L 1.59375 -3.375 L 2.78125 -3.375 L 2.78125 -3.921875 L 3.171875 -3.921875 L 3.171875 -3.375 L 4.421875 -3.375 L 4.421875 -3.046875 L 3.171875 -3.046875 L 3.171875 -2.109375 L 4.640625 -2.109375 L 4.640625 -1.78125 L 2.953125 -1.78125 C 2.765625 -1.175781 2.570312 -0.640625 2.375 -0.171875 C 2.914062 -0.210938 3.441406 -0.269531 3.953125 -0.34375 C 3.753906 -0.71875 3.59375 -1.015625 3.46875 -1.234375 Z M 3.46875 -1.234375 "/></g></g></g><g fill="#ffffff" fill-opacity="1"><g transform="translate(107.8329, 27.922354)"><g><path d="M 0.21875 0.015625 C 0.851562 -0.296875 1.347656 -0.742188 1.703125 -1.328125 C 2.054688 -1.921875 2.234375 -2.597656 2.234375 -3.359375 L 2.234375 -3.921875 L 2.625 -3.921875 L 2.625 -3.359375 C 2.625 -2.597656 2.800781 -1.921875 3.15625 -1.328125 C 3.507812 -0.742188 4.003906 -0.296875 4.640625 0.015625 L 4.4375 0.328125 C 3.96875 0.109375 3.554688 -0.21875 3.203125 -0.65625 C 2.859375 -1.09375 2.601562 -1.585938 2.4375 -2.140625 C 2.28125 -1.585938 2.019531 -1.09375 1.65625 -0.65625 C 1.300781 -0.21875 0.890625 0.109375 0.421875 0.328125 Z M 0.21875 0.015625 "/></g></g></g></svg>