<svg xmlns="http://www.w3.org/2000/svg" xmlns:xlink="http://www.w3.org/1999/xlink" width="180" zoomAndPan="magnify" viewBox="0 0 135 30.000001" height="40" preserveAspectRatio="xMidYMid meet" version="1.0"><defs><g/></defs><g fill="#ffffff" fill-opacity="1"><g transform="translate(56.177425, 22.334409)"><g><path d="M 8.828125 -18.9375 C 11.269531 -18.9375 13.21875 -17.960938 14.011719 -17.496094 L 12.753906 -15.03125 C 12.011719 -15.449219 10.640625 -16.125 9.132812 -16.125 C 7.457031 -16.125 6.273438 -15.265625 6.273438 -13.824219 C 6.273438 -12.152344 8.597656 -11.363281 10.617188 -10.503906 C 12.6875 -9.640625 14.753906 -7.945312 14.753906 -5.832031 C 14.753906 -1.671875 11.6875 -0.230469 8.109375 -0.230469 C 4.808594 -0.230469 2.507812 -1.671875 1.648438 -2.300781 L 3.253906 -4.972656 C 4.136719 -4.34375 5.972656 -3.113281 7.785156 -3.113281 C 8.621094 -3.113281 11.128906 -3.160156 11.128906 -5.578125 C 11.128906 -7.527344 8.527344 -8.226562 6.484375 -9.246094 C 4.296875 -10.316406 3.160156 -11.941406 3.160156 -13.660156 C 3.160156 -16.84375 5.972656 -18.9375 8.828125 -18.9375 Z M 8.828125 -20.097656 C 5.484375 -20.097656 2 -17.613281 2 -13.660156 C 2 -11.363281 3.53125 -9.410156 5.949219 -8.203125 C 8.457031 -6.945312 9.96875 -6.390625 9.96875 -5.578125 C 9.96875 -4.390625 8.828125 -4.273438 7.785156 -4.273438 C 5.949219 -4.273438 3.460938 -6.296875 3.460938 -6.296875 C 2.972656 -6.691406 2.671875 -6.296875 2.578125 -6.132812 L 0.394531 -2.460938 C 0.253906 -2.253906 0.300781 -1.929688 0.488281 -1.742188 C 0.558594 -1.695312 3.390625 0.929688 8.109375 0.929688 C 11.988281 0.929688 15.914062 -0.8125 15.914062 -5.832031 C 15.914062 -8.714844 13.265625 -10.640625 11.058594 -11.59375 C 8.714844 -12.59375 7.433594 -13.335938 7.433594 -13.824219 C 7.433594 -14.453125 7.808594 -14.964844 9.132812 -14.964844 C 10.828125 -14.964844 12.664062 -13.730469 12.664062 -13.730469 C 13.105469 -13.429688 13.40625 -13.730469 13.523438 -13.941406 L 15.289062 -17.425781 C 15.40625 -17.660156 15.335938 -17.984375 15.101562 -18.167969 C 15.054688 -18.191406 12.5 -20.097656 8.828125 -20.097656 Z M 8.828125 -20.097656 "/></g></g></g><g fill="#ffffff" fill-opacity="1"><g transform="translate(74.112348, 22.334409)"><g><path d="M 12.292969 -18.585938 L 19.539062 -0.582031 L 16.125 -0.582031 L 14.847656 -4.019531 C 14.753906 -4.25 14.542969 -4.414062 14.3125 -4.414062 L 7.015625 -4.414062 C 6.761719 -4.414062 6.550781 -4.25 6.460938 -4.019531 L 5.179688 -0.582031 L 1.765625 -0.582031 L 9.015625 -18.585938 Z M 13.21875 -19.378906 C 13.128906 -19.585938 12.917969 -19.75 12.6875 -19.75 L 8.644531 -19.75 C 8.410156 -19.75 8.179688 -19.585938 8.085938 -19.378906 L 0.347656 -0.210938 C 0 0.671875 0.90625 0.582031 0.90625 0.582031 L 5.597656 0.582031 C 5.832031 0.582031 6.039062 0.441406 6.132812 0.210938 L 7.410156 -3.253906 L 13.894531 -3.253906 L 15.171875 0.210938 C 15.265625 0.441406 15.472656 0.582031 15.730469 0.582031 L 20.421875 0.582031 C 21.351562 0.582031 20.957031 -0.210938 20.957031 -0.210938 Z M 13.359375 -7.875 L 11.175781 -13.453125 C 11.175781 -13.453125 10.480469 -14.5 10.082031 -13.429688 L 7.945312 -7.851562 C 7.945312 -7.851562 7.574219 -7.085938 8.503906 -7.085938 L 12.824219 -7.085938 C 12.824219 -7.085938 13.683594 -6.992188 13.359375 -7.875 Z M 11.964844 -8.25 L 9.339844 -8.25 L 10.640625 -11.617188 Z M 11.964844 -8.25 "/></g></g></g><g fill="#ffffff" fill-opacity="1"><g transform="translate(96.83292, 22.334409)"><g><path d="M 5.226562 -18.585938 L 5.226562 -3.832031 C 5.226562 -3.460938 5.554688 -3.253906 5.808594 -3.253906 L 11.828125 -3.253906 L 11.828125 -0.582031 L 2.019531 -0.582031 L 2.019531 -18.585938 Z M 6.390625 -19.167969 C 6.390625 -19.402344 6.15625 -19.75 5.808594 -19.75 L 1.441406 -19.75 C 1.183594 -19.75 0.859375 -19.515625 0.859375 -19.167969 L 0.859375 0 C 0.859375 0.253906 1.070312 0.582031 1.441406 0.582031 L 12.40625 0.582031 C 12.640625 0.582031 12.988281 0.371094 12.988281 0 L 12.988281 -3.832031 C 12.988281 -4.066406 12.753906 -4.414062 12.40625 -4.414062 L 6.390625 -4.414062 Z M 6.390625 -19.167969 "/></g></g></g><g fill="#ffffff" fill-opacity="1"><g transform="translate(111.771003, 22.334409)"><g><path d="M 11.828125 -18.585938 L 11.828125 -15.914062 L 5.808594 -15.914062 C 5.4375 -15.914062 5.226562 -15.566406 5.226562 -15.335938 L 5.226562 -11.523438 C 5.226562 -11.152344 5.554688 -10.945312 5.808594 -10.945312 L 11.546875 -10.945312 L 11.546875 -8.273438 L 5.808594 -8.273438 C 5.4375 -8.273438 5.226562 -7.921875 5.226562 -7.691406 L 5.226562 -3.832031 C 5.226562 -3.460938 5.554688 -3.253906 5.808594 -3.253906 L 11.828125 -3.253906 L 11.828125 -0.582031 L 2.019531 -0.582031 L 2.019531 -18.585938 Z M 12.988281 -19.167969 C 12.988281 -19.402344 12.753906 -19.75 12.40625 -19.75 L 1.441406 -19.75 C 1.183594 -19.75 0.859375 -19.515625 0.859375 -19.167969 L 0.859375 0 C 0.859375 0.253906 1.070312 0.582031 1.441406 0.582031 L 12.40625 0.582031 C 12.640625 0.582031 12.988281 0.371094 12.988281 0 L 12.988281 -3.832031 C 12.988281 -4.066406 12.753906 -4.414062 12.40625 -4.414062 L 6.390625 -4.414062 L 6.390625 -7.109375 L 12.128906 -7.109375 C 12.359375 -7.109375 12.710938 -7.320312 12.710938 -7.691406 L 12.710938 -11.523438 C 12.710938 -11.757812 12.476562 -12.105469 12.128906 -12.105469 L 6.390625 -12.105469 L 6.390625 -14.753906 L 12.40625 -14.753906 C 12.640625 -14.753906 12.988281 -14.964844 12.988281 -15.335938 Z M 12.988281 -19.167969 "/></g></g></g><g fill="#ffffff" fill-opacity="1"><g transform="translate(16.421647, 22.605919)"><g><path d="M 17.84375 -16.761719 C 17.816406 -16.800781 17.839844 -16.78125 17.839844 -16.78125 C 17.710938 -17.042969 17.3125 -17.429688 16.980469 -17.335938 C 16.734375 -17.269531 16.828125 -17.171875 16.734375 -17.035156 C 16.363281 -16.492188 15.921875 -16.003906 15.574219 -15.460938 C 14.648438 -14.039062 13.886719 -12.503906 13.121094 -10.988281 C 12.355469 -9.472656 11.652344 -7.964844 11.105469 -6.367188 C 10.875 -5.6875 10.53125 -5.058594 10.277344 -4.398438 C 9.921875 -3.496094 9.628906 -2.558594 9.335938 -1.640625 C 9.332031 -1.679688 9.28125 -2.652344 9.222656 -2.601562 C 9.183594 -2.558594 9.164062 -2.535156 9.167969 -2.511719 C 9.164062 -2.980469 9.277344 -3.5625 9.3125 -4.074219 C 9.371094 -4.820312 9.363281 -5.5625 9.355469 -6.304688 C 9.375 -6.539062 9.53125 -8.863281 9.652344 -10.019531 C 9.5625 -9.4375 9.46875 -8.625 9.4375 -8.535156 C 9.53125 -9.539062 9.644531 -10.546875 9.886719 -11.546875 C 9.875 -11.460938 9.882812 -11.375 9.925781 -11.378906 C 9.988281 -11.386719 10.15625 -12.082031 10.089844 -12.09375 L 10.011719 -12.023438 C 10.078125 -12.222656 10.242188 -12.257812 10.191406 -12.570312 C 10.144531 -12.863281 9.96875 -13.121094 9.722656 -13.289062 C 9.535156 -13.441406 9.203125 -13.597656 8.957031 -13.511719 C 8.734375 -13.425781 8.765625 -13.304688 8.691406 -13.191406 C 7.992188 -12.105469 7.128906 -10.921875 6.460938 -9.734375 C 6.242188 -9.371094 6.148438 -9.003906 5.929688 -8.621094 C 5.527344 -7.992188 5.167969 -7.320312 4.738281 -6.707031 C 4.3125 -6.050781 4.101562 -5.394531 3.71875 -4.742188 L 2.757812 -3.042969 C 3.003906 -4.464844 3.101562 -5.890625 3.238281 -7.324219 C 3.265625 -7.6875 3.59375 -11.578125 3.59375 -11.578125 C 3.570312 -11.574219 3.363281 -9.308594 3.324219 -9.070312 C 3.4375 -10.3125 3.570312 -11.59375 3.574219 -12.847656 C 3.574219 -12.867188 3.589844 -12.464844 3.609375 -12.488281 C 3.714844 -12.5 3.671875 -13.386719 3.589844 -13.355469 C 3.570312 -13.332031 3.550781 -13.308594 3.554688 -13.289062 C 3.535156 -13.476562 3.628906 -13.636719 3.601562 -13.910156 C 3.539062 -14.347656 3.433594 -14.761719 3.207031 -15.140625 C 3.03125 -15.441406 2.789062 -15.757812 2.425781 -15.789062 C 2.339844 -15.800781 2.324219 -15.734375 2.214844 -15.746094 C 2.109375 -15.734375 2.082031 -15.816406 1.976562 -15.808594 C 1.515625 -15.742188 1.203125 -15.265625 1.070312 -14.875 C 0.882812 -14.410156 0.753906 -12.871094 1.65625 -13.617188 C 1.667969 -13.511719 1.703125 -12.496094 1.6875 -12.433594 C 1.726562 -12.457031 1.722656 -12.5 1.738281 -12.542969 C 1.738281 -12.332031 1.738281 -12.140625 1.710938 -11.945312 C 1.691406 -11.964844 1.71875 -12.117188 1.675781 -12.113281 C 1.488281 -12.09375 1.472656 -10.25 1.496094 -10.019531 C 1.515625 -9.597656 1.46875 -9.210938 1.402344 -8.78125 C 1.378906 -8.585938 1.355469 -8.394531 1.351562 -8.203125 C 1.332031 -8.179688 1.359375 -7.695312 1.410156 -7.828125 C 1.414062 -7.785156 1.394531 -7.761719 1.398438 -7.722656 C 1.375 -7.738281 1.375 -7.761719 1.371094 -7.78125 C 1.351562 -7.757812 1.3125 -7.078125 1.292969 -7.054688 C 1.222656 -6.6875 1.105469 -6.359375 1.035156 -5.992188 C 0.882812 -5.128906 0.839844 -4.253906 0.710938 -3.394531 C 1.097656 -5.105469 1.433594 -6.917969 1.625 -8.652344 C 1.769531 -10.046875 2.003906 -11.550781 1.976562 -12.96875 C 2.035156 -11.234375 1.867188 -9.460938 1.605469 -7.78125 C 1.449219 -6.75 1.273438 -5.714844 1.097656 -4.683594 C 0.921875 -3.628906 0.554688 -2.597656 0.40625 -1.523438 C 0.324219 -1.027344 0.257812 -0.640625 0.136719 -0.140625 C 0.0117188 0.359375 -0.0625 0.894531 0.492188 1.160156 C 1.070312 1.421875 2.042969 1.203125 2.257812 0.546875 C 2.289062 0.4375 2.300781 0.328125 2.308594 0.222656 C 2.441406 -0.402344 2.808594 -0.992188 3.070312 -1.566406 C 3.542969 -2.609375 4.035156 -3.652344 4.597656 -4.660156 C 5.167969 -5.753906 5.765625 -6.804688 6.296875 -7.914062 C 6.542969 -8.425781 6.945312 -8.890625 7.234375 -9.382812 L 7.933594 -10.488281 C 7.902344 -10.378906 7.761719 -9.203125 7.742188 -9.199219 C 7.761719 -9.203125 7.757812 -9.222656 7.78125 -9.222656 C 7.75 -9.09375 7.742188 -8.945312 7.734375 -8.816406 C 7.691406 -8.8125 7.742188 -8.945312 7.703125 -8.941406 C 7.425781 -8.957031 7.425781 -7.175781 7.4375 -7.050781 C 7.429688 -6.710938 7.355469 -6.363281 7.324219 -6.023438 C 7.289062 -5.742188 7.351562 -5.515625 7.371094 -5.328125 C 7.347656 -5.367188 7.371094 -5.09375 7.355469 -5.03125 C 7.359375 -4.796875 7.304688 -4.707031 7.261719 -4.492188 C 7.140625 -3.992188 7.152344 -3.421875 7.175781 -2.9375 C 7.246094 -2.011719 7.238281 -0.992188 7.449219 -0.101562 C 7.601562 0.605469 8.355469 1.148438 9.082031 1.011719 C 9.476562 0.933594 9.546875 0.757812 9.597656 0.414062 C 9.632812 0.113281 9.75 -0.195312 9.867188 -0.523438 C 10.285156 -1.6875 10.699219 -2.871094 11.1875 -4 C 11.496094 -4.730469 11.640625 -5.441406 11.957031 -6.128906 C 12.375 -7.058594 12.773438 -7.988281 13.238281 -8.878906 C 13.453125 -9.304688 13.601562 -9.71875 13.734375 -10.136719 C 13.914062 -10.660156 14.3125 -11.144531 14.585938 -11.636719 C 14.894531 -12.175781 15.160156 -12.710938 15.507812 -13.25 C 15.824219 -13.726562 16.222656 -14.210938 16.46875 -14.722656 C 16.578125 -14.945312 16.492188 -14.933594 16.664062 -15.144531 C 16.777344 -15.28125 16.953125 -15.445312 17.109375 -15.589844 C 17.417969 -15.894531 18.0625 -16.230469 17.84375 -16.761719 Z M 9.300781 -7.738281 C 9.285156 -7.671875 9.335938 -7.828125 9.382812 -7.980469 C 9.382812 -8 9.402344 -8.023438 9.398438 -8.042969 C 9.363281 -7.746094 9.324219 -7.507812 9.304688 -7.25 C 9.292969 -7.398438 9.257812 -7.523438 9.300781 -7.738281 Z M 9.785156 -10.644531 C 9.761719 -10.644531 9.730469 -10.535156 9.710938 -10.320312 C 9.734375 -10.515625 9.785156 -10.644531 9.785156 -10.644531 Z M 9.785156 -10.644531 "/></g></g></g><g fill="#ffffff" fill-opacity="1"><g transform="translate(30.636214, 21.239764)"><g><path d="M 5.003906 -5.695312 C 4.9375 -5.964844 4.652344 -5.851562 4.515625 -5.730469 C 4.335938 -5.585938 3.421875 -4.101562 3.515625 -4.003906 C 3.578125 -4.011719 3.621094 -4.015625 3.65625 -4.058594 C 3.398438 -3.675781 2.890625 -3.222656 2.519531 -2.871094 C 2.308594 -2.660156 1.792969 -2.078125 1.441406 -2.214844 C 0.691406 -2.503906 1.898438 -5.164062 1.832031 -5.175781 C 1.769531 -5.191406 1.355469 -3.964844 1.277344 -3.683594 C 1.460938 -4.441406 1.722656 -5.210938 2.0625 -5.898438 C 2.046875 -5.832031 1.992188 -5.722656 2.035156 -5.726562 C 2.078125 -5.710938 2.351562 -6.179688 2.285156 -6.214844 C 2.261719 -6.214844 2.222656 -6.210938 2.203125 -6.1875 C 2.257812 -6.257812 2.363281 -6.289062 2.351562 -6.414062 C 2.332031 -6.625 1.828125 -6.789062 1.652344 -6.835938 C 1.238281 -6.964844 0.835938 -6.96875 0.539062 -6.726562 C 0.144531 -6.433594 0.109375 -5.921875 -0.015625 -5.464844 C -0.046875 -5.335938 -0.300781 -3.804688 -0.214844 -3.792969 C -0.175781 -3.820312 -0.179688 -3.839844 -0.160156 -3.882812 L -0.1875 -3.5 C -0.210938 -3.496094 -0.175781 -3.605469 -0.21875 -3.601562 C -0.386719 -3.585938 -0.273438 -2.835938 -0.242188 -2.730469 C -0.121094 -2.363281 0.199219 -2.117188 0.460938 -1.824219 C 0.605469 -1.648438 0.75 -1.46875 0.949219 -1.363281 C 1.21875 -1.199219 1.035156 -1.371094 1.210938 -1.304688 L 1.167969 -1.300781 C 1.160156 -1.171875 1.976562 -1.039062 2.144531 -1.074219 C 2.863281 -1.3125 3.300781 -2.265625 3.664062 -2.875 C 4.015625 -3.417969 4.304688 -3.953125 4.609375 -4.511719 C 4.792969 -4.804688 5.128906 -5.304688 5.003906 -5.695312 Z M 1.074219 -7.988281 C 1.125 -7.925781 1.070312 -7.835938 1.222656 -7.769531 C 1.378906 -7.71875 1.453125 -7.8125 1.574219 -7.863281 C 1.816406 -7.996094 1.980469 -8.285156 2.152344 -8.472656 C 2.210938 -8.519531 2.085938 -8.488281 2.085938 -8.488281 C 2.335938 -8.765625 2.132812 -8.449219 2.371094 -8.621094 C 2.605469 -8.8125 2.621094 -9.089844 2.8125 -9.339844 C 2.570312 -9.210938 2.394531 -9.046875 2.246094 -8.820312 C 2.0625 -8.527344 1.925781 -8.386719 1.710938 -8.21875 C 1.945312 -8.429688 2.050781 -8.632812 2.230469 -8.988281 C 2.285156 -9.054688 2.347656 -9.105469 2.425781 -9.15625 C 2.355469 -9.210938 2.351562 -9.273438 2.429688 -9.34375 C 2.480469 -9.457031 2.605469 -9.511719 2.65625 -9.621094 C 2.746094 -9.777344 2.707031 -9.964844 2.820312 -10.125 C 2.917969 -10.21875 3.058594 -10.296875 3.132812 -10.386719 C 3.308594 -10.574219 3.488281 -10.910156 3.375 -11.175781 C 3.269531 -11.417969 3.027344 -11.714844 2.78125 -11.835938 C 2.496094 -11.957031 2.113281 -11.984375 1.828125 -11.832031 C 1.769531 -11.804688 1.523438 -11.714844 1.613281 -11.640625 C 1.640625 -11.601562 1.660156 -11.601562 1.703125 -11.605469 C 1.527344 -11.441406 1.238281 -11.160156 1.695312 -11.035156 C 1.65625 -10.988281 1.714844 -10.804688 1.71875 -10.78125 C 1.710938 -10.632812 1.492188 -9.828125 1.339844 -9.433594 L 1.554688 -9.832031 C 1.4375 -9.503906 1.300781 -9.195312 1.132812 -8.925781 C 1.234375 -9.210938 1.011719 -8.871094 1.019531 -8.808594 C 0.777344 -8.890625 0.902344 -8.246094 0.929688 -8.183594 C 0.933594 -8.164062 1.074219 -7.988281 1.074219 -7.988281 Z M 1.15625 -2.949219 L 1.160156 -2.929688 L 1.128906 -2.800781 L 1.15625 -2.972656 C 1.175781 -2.996094 1.175781 -2.996094 1.15625 -2.949219 Z M 1.25 -9.253906 C 1.25 -9.253906 1.289062 -9.300781 1.324219 -9.386719 Z M 1.078125 -8.835938 C 1.082031 -8.8125 1.082031 -8.8125 1.0625 -8.789062 C 1.0625 -8.789062 1.058594 -8.8125 1.039062 -8.808594 C 1.058594 -8.8125 1.058594 -8.8125 1.078125 -8.835938 Z M 1.078125 -8.835938 "/></g></g></g><g fill="#ffffff" fill-opacity="1"><g transform="translate(34.604536, 20.85837)"><g><path d="M 7.882812 -6.160156 C 7.621094 -5.816406 7.480469 -5.273438 7.289062 -4.875 C 6.988281 -4.230469 6.6875 -3.609375 6.367188 -2.984375 C 5.761719 -1.78125 5.160156 -0.558594 4.398438 0.550781 C 4.082031 1.027344 3.429688 2.171875 2.707031 2.15625 C 2.175781 2.121094 2.089844 1.21875 2.050781 0.820312 C 2.015625 0.484375 2.007812 0.144531 2.019531 -0.171875 C 2.019531 -0.363281 2.128906 -1.011719 2.007812 -1.167969 L 1.898438 -0.523438 C 1.894531 -0.777344 1.910156 -1.050781 1.949219 -1.3125 C 1.925781 -1.351562 2.058594 -1.957031 2.082031 -2.148438 C 2.148438 -2.578125 2.210938 -3.007812 2.296875 -3.441406 C 2.363281 -3.871094 2.429688 -4.28125 2.515625 -4.691406 C 2.585938 -5.078125 2.714844 -5.28125 2.914062 -5.597656 C 3.746094 -6.867188 4.484375 -8.230469 5.160156 -9.585938 C 5.40625 -10.097656 5.554688 -10.535156 5.875 -10.96875 C 6.347656 -11.566406 6.625 -12.417969 6.898438 -13.125 C 7.359375 -14.269531 7.96875 -15.855469 7.722656 -17.121094 L 7.710938 -17.226562 L 7.6875 -17.246094 C 7.484375 -18.054688 6.632812 -18.945312 5.738281 -18.5625 C 5.269531 -18.371094 4.960938 -17.832031 4.703125 -17.445312 L 4.28125 -16.75 C 4.1875 -16.613281 4.070312 -16.285156 3.984375 -16.105469 L 4 -16.128906 L 3.441406 -14.910156 L 3.574219 -15.285156 C 3.46875 -15.292969 3.09375 -14.347656 3.039062 -14.234375 C 2.847656 -13.816406 2.675781 -13.394531 2.523438 -12.976562 C 2.183594 -12.097656 1.847656 -11.195312 1.660156 -10.269531 C 1.453125 -9.335938 1.203125 -8.421875 0.976562 -7.488281 C 0.855469 -6.992188 0.734375 -6.46875 0.632812 -5.972656 C 0.546875 -5.5625 0.316406 -4.882812 0.417969 -4.46875 L 0.480469 -4.476562 C 0.433594 -4.320312 0.40625 -4.171875 0.375 -4.019531 C 0.386719 -4.148438 0.371094 -4.296875 0.386719 -4.339844 C 0.296875 -4.183594 0.367188 -3.679688 0.351562 -3.636719 C 0.1875 -2.476562 -0.0195312 -1.3125 0.0078125 -0.128906 C 0.0546875 0.992188 0.195312 2.460938 1.15625 3.195312 C 2.226562 4.003906 3.304688 3.285156 4.046875 2.429688 C 4.921875 1.390625 5.636719 0.199219 6.285156 -0.964844 C 6.882812 -2.039062 7.324219 -3.164062 7.859375 -4.230469 C 8.070312 -4.675781 8.300781 -5.121094 8.382812 -5.59375 C 8.433594 -5.9375 8.320312 -6.710938 7.882812 -6.160156 Z M 4.539062 -13.425781 C 4.859375 -14.472656 5.179688 -15.542969 5.679688 -16.546875 C 5.804688 -16.789062 6.628906 -18.140625 6.691406 -17.023438 L 6.695312 -17.003906 C 6.765625 -15.824219 6.128906 -14.511719 5.722656 -13.457031 L 4.996094 -11.734375 C 4.75 -11.199219 4.308594 -10.523438 4.191406 -9.960938 C 4.285156 -10.308594 4.617188 -10.828125 4.777344 -11.160156 C 5.039062 -11.714844 5.261719 -12.265625 5.507812 -12.820312 C 5.902344 -13.789062 6.332031 -14.808594 6.59375 -15.847656 C 5.917969 -12.945312 4.40625 -10.148438 3.09375 -7.503906 C 3.523438 -9.410156 3.941406 -11.484375 4.539062 -13.425781 Z M 3.722656 -14.832031 C 3.894531 -15.25 4.242188 -15.621094 4.414062 -16.019531 C 4.058594 -15.097656 3.589844 -14.246094 3.207031 -13.363281 C 3.207031 -13.382812 3.203125 -13.425781 3.222656 -13.449219 C 3.367188 -13.929688 3.535156 -14.367188 3.722656 -14.832031 Z M 0.800781 -3.59375 C 0.78125 -3.550781 0.785156 -3.53125 0.785156 -3.53125 C 0.589844 -2.917969 0.644531 -2.117188 0.578125 -1.476562 C 0.570312 -1.328125 0.542969 -1.195312 0.554688 -1.050781 L 0.550781 -1.113281 L 0.550781 -0.433594 C 0.519531 -1.195312 0.53125 -1.980469 0.605469 -2.726562 L 0.609375 -2.707031 C 0.625 -3.195312 0.6875 -3.648438 0.773438 -3.65625 C 0.8125 -3.679688 0.816406 -3.617188 0.800781 -3.59375 Z M 0.800781 -3.59375 "/></g></g></g><g fill="#ffffff" fill-opacity="1"><g transform="translate(42.037263, 20.144014)"><g><path d="M 11.917969 -6.316406 L 11.914062 -6.335938 C 11.722656 -7.019531 10.886719 -5.773438 10.773438 -5.65625 C 10.226562 -4.925781 9.730469 -4.136719 9.257812 -3.347656 C 8.785156 -2.539062 8.332031 -1.734375 7.835938 -0.921875 C 7.601562 -0.519531 7.363281 -0.136719 7.078125 0.230469 C 6.984375 0.367188 6.769531 0.75 6.578125 0.765625 C 5.84375 0.835938 6.125 -2.179688 6.167969 -2.648438 C 6.214844 -3.480469 6.171875 -4.578125 6.632812 -5.277344 C 6.742188 -5.457031 7.996094 -7.421875 7.996094 -7.421875 C 7.953125 -7.441406 7.804688 -7.214844 7.710938 -7.078125 L 8.496094 -8.382812 L 8.550781 -8.472656 L 8.574219 -8.472656 L 8.550781 -8.472656 L 8.699219 -8.71875 C 8.722656 -8.699219 8.703125 -8.65625 8.6875 -8.613281 L 8.855469 -8.839844 L 9.332031 -9.605469 C 9.675781 -10.210938 9.996094 -10.855469 10.296875 -11.480469 C 10.773438 -12.5 11.414062 -13.960938 10.882812 -15.09375 C 10.484375 -15.925781 9.3125 -15.984375 8.566406 -15.613281 C 8.019531 -15.351562 7.578125 -14.863281 7.222656 -14.363281 C 7.039062 -14.070312 6.859375 -13.753906 6.699219 -13.421875 C 6.644531 -13.332031 6.4375 -12.632812 6.378906 -12.542969 L 6.402344 -12.546875 C 6.296875 -12.304688 6.195312 -12.058594 6.132812 -11.820312 C 6.160156 -11.992188 6.230469 -12.339844 6.308594 -12.410156 C 6.152344 -12.269531 6.066406 -11.644531 6.027344 -11.578125 C 5.398438 -9.757812 4.875 -7.929688 4.546875 -6.03125 C 3.917969 -6.628906 2.910156 -7.652344 1.960938 -7.160156 C 1.175781 -6.746094 0.648438 -5.828125 0.300781 -5.03125 C -0.0117188 -4.320312 -0.0507812 -3.617188 -0.261719 -2.941406 C -0.636719 -1.78125 -0.648438 0.527344 1.023438 0.707031 C 1.535156 0.761719 1.96875 0.402344 2.339844 0.09375 C 3.003906 -0.5 3.617188 -1.175781 4.1875 -1.863281 C 4.1875 -0.742188 4.117188 0.960938 5.105469 1.753906 C 6.328125 2.78125 7.292969 1.144531 7.886719 0.238281 C 8.640625 -0.9375 9.195312 -2.21875 9.957031 -3.351562 C 10.328125 -3.894531 10.699219 -4.441406 11.09375 -4.945312 C 11.398438 -5.3125 12.03125 -5.796875 11.917969 -6.316406 Z M 4.324219 -4.1875 C 4.308594 -4.121094 4.3125 -4.082031 4.3125 -4.082031 C 4.277344 -3.570312 4.320312 -3.128906 3.996094 -2.734375 C 3.714844 -2.371094 3.40625 -2.023438 3.101562 -1.675781 C 2.816406 -1.351562 2.140625 -0.417969 1.65625 -0.414062 C 1.0625 -0.417969 1.375 -1.804688 1.589844 -2.652344 C 1.355469 -1.78125 0.980469 -0.371094 1.679688 -0.394531 C 1.871094 -0.390625 2.167969 -0.589844 2.417969 -0.847656 C 2.1875 -0.59375 1.800781 -0.238281 1.535156 -0.339844 C 1.03125 -0.5 1.335938 -1.738281 1.390625 -2.082031 C 1.570312 -3.074219 1.878906 -4.039062 2.257812 -4.964844 C 2.445312 -5.425781 2.710938 -6.171875 3.148438 -6.257812 L 3.050781 -6.183594 C 3.070312 -6.207031 3.089844 -6.210938 3.113281 -6.210938 C 3.253906 -6.265625 3.410156 -6.175781 3.523438 -6.101562 C 3.816406 -5.941406 4.019531 -5.597656 4.234375 -5.34375 C 4.476562 -5.027344 4.363281 -4.65625 4.316406 -4.273438 Z M 7.238281 -9.363281 C 7.234375 -9.382812 7.230469 -9.425781 7.25 -9.449219 L 7.25 -9.46875 C 7.261719 -9.535156 7.28125 -9.558594 7.28125 -9.558594 L 7.28125 -9.578125 C 7.632812 -10.96875 8.03125 -12.363281 8.667969 -13.652344 C 8.828125 -13.988281 9.28125 -15.003906 9.789062 -14.777344 C 9.988281 -14.691406 10.058594 -14.421875 10.074219 -14.234375 C 10.28125 -12.980469 9.414062 -11.394531 8.882812 -10.324219 C 8.261719 -9.078125 7.554688 -7.847656 6.792969 -6.691406 L 7.210938 -7.21875 L 7.578125 -7.785156 L 6.640625 -6.296875 L 6.511719 -6.09375 L 6.4375 -6 C 6.445312 -6.128906 6.539062 -6.265625 6.628906 -6.421875 C 6.59375 -6.375 6.554688 -6.332031 6.539062 -6.285156 C 6.722656 -7.214844 6.929688 -8.148438 7.160156 -9.078125 C 7.140625 -9.058594 7.15625 -9.101562 7.167969 -9.1875 L 7.222656 -9.296875 C 7.21875 -9.320312 7.21875 -9.339844 7.238281 -9.363281 Z M 5.640625 -7.472656 C 5.605469 -7.363281 5.527344 -6.867188 5.472656 -6.796875 C 5.472656 -6.777344 5.453125 -6.753906 5.433594 -6.753906 C 5.582031 -6.976562 5.449219 -7.242188 5.507812 -7.5 C 5.539062 -7.632812 5.726562 -7.882812 5.753906 -8.054688 C 5.769531 -7.886719 5.691406 -7.582031 5.640625 -7.472656 Z M 2.859375 -1.335938 C 3.339844 -1.847656 3.796875 -2.378906 4.230469 -2.929688 C 4.214844 -2.652344 3.609375 -2.128906 3.398438 -1.894531 C 3.152344 -1.59375 2.863281 -1.292969 2.574219 -1.011719 L 2.550781 -1.007812 Z M 5.832031 -9.417969 C 5.773438 -9.160156 5.691406 -8.917969 5.585938 -8.675781 C 5.660156 -9 5.695312 -9.320312 5.8125 -9.628906 C 5.917969 -9.871094 6.035156 -10.179688 6.113281 -10.460938 C 6.042969 -10.117188 5.910156 -9.742188 5.832031 -9.417969 Z M 7.222656 -9.296875 L 7.160156 -9.078125 C 7.15625 -9.101562 7.171875 -9.144531 7.167969 -9.1875 Z M 2.953125 -6.089844 C 2.875 -6.019531 2.820312 -5.929688 2.800781 -5.925781 C 2.839844 -5.929688 2.898438 -6.019531 2.953125 -6.089844 Z M 3.539062 -6.1875 C 3.582031 -6.171875 3.625 -6.15625 3.671875 -6.117188 Z M 7.660156 -6.964844 C 7.65625 -6.988281 7.675781 -7.011719 7.695312 -7.035156 C 7.675781 -6.988281 7.660156 -6.964844 7.660156 -6.964844 Z M 7.695312 -7.035156 L 7.710938 -7.078125 C 7.714844 -7.054688 7.695312 -7.035156 7.695312 -7.035156 Z M 7.695312 -7.035156 "/></g></g></g></svg>